<svg xmlns="http://www.w3.org/2000/svg" xmlns:xlink="http://www.w3.org/1999/xlink" width="752" height="327.523" viewBox="0 0 752 327.523">
  <defs>
    <style>
      .cls-1 {
        fill: #fff;
        stroke: #b95555;
      }

      .cls-2 {
        fill: #e29476;
      }

      .cls-3 {
        fill: #5bf69e;
      }

      .cls-4 {
        fill: none;
      }

      .cls-5 {
        fill: #c9ebd2;
      }

      .cls-6 {
        fill: #f592c7;
      }

      .cls-7 {
        fill: #ecd76d;
      }

      .cls-8 {
        fill: #4ccccc;
      }

      .cls-9 {
        fill: #fcbc25;
      }

      .cls-10 {
        fill: #934fd6;
      }

      .cls-11 {
        fill: #1f2295;
        font-size: 24px;
        font-family: Roboto-Light, Roboto;
        font-weight: 300;
      }

      .cls-12 {
        stroke: none;
      }

      .cls-13 {
        filter: url(#Path_95-2);
      }

      .cls-14 {
        filter: url(#Rectangle_129-4);
      }

      .cls-15 {
        filter: url(#Path_95);
      }

      .cls-16 {
        filter: url(#Rectangle_129-3);
      }

      .cls-17 {
        filter: url(#Path_90-2);
      }

      .cls-18 {
        filter: url(#Path_89-2);
      }

      .cls-19 {
        filter: url(#Rectangle_129-2);
      }

      .cls-20 {
        filter: url(#Path_90);
      }

      .cls-21 {
        filter: url(#Path_89);
      }

      .cls-22 {
        filter: url(#Rectangle_129);
      }
    </style>
    <filter id="Rectangle_129" x="174.924" y="27.956" width="55.309" height="55.309" filterUnits="userSpaceOnUse">
      <feOffset dy="5" input="SourceAlpha"/>
      <feGaussianBlur stdDeviation="3" result="blur"/>
      <feFlood flood-opacity="0.161"/>
      <feComposite operator="in" in2="blur"/>
      <feComposite in="SourceGraphic"/>
    </filter>
    <filter id="Path_89" x="194.974" y="31.208" width="27.067" height="31.314" filterUnits="userSpaceOnUse">
      <feOffset dy="3" input="SourceAlpha"/>
      <feGaussianBlur stdDeviation="3" result="blur-2"/>
      <feFlood flood-opacity="0.161"/>
      <feComposite operator="in" in2="blur-2"/>
      <feComposite in="SourceGraphic"/>
    </filter>
    <filter id="Path_90" x="182.738" y="37.921" width="31.479" height="37.819" filterUnits="userSpaceOnUse">
      <feOffset dy="3" input="SourceAlpha"/>
      <feGaussianBlur stdDeviation="3" result="blur-3"/>
      <feFlood flood-opacity="0.161"/>
      <feComposite operator="in" in2="blur-3"/>
      <feComposite in="SourceGraphic"/>
    </filter>
    <filter id="Rectangle_129-2" x="255.652" y="27.956" width="55.309" height="55.309" filterUnits="userSpaceOnUse">
      <feOffset dy="5" input="SourceAlpha"/>
      <feGaussianBlur stdDeviation="3" result="blur-4"/>
      <feFlood flood-opacity="0.161"/>
      <feComposite operator="in" in2="blur-4"/>
      <feComposite in="SourceGraphic"/>
    </filter>
    <filter id="Path_89-2" x="276.061" y="31.208" width="27.067" height="31.314" filterUnits="userSpaceOnUse">
      <feOffset dy="3" input="SourceAlpha"/>
      <feGaussianBlur stdDeviation="3" result="blur-5"/>
      <feFlood flood-opacity="0.161"/>
      <feComposite operator="in" in2="blur-5"/>
      <feComposite in="SourceGraphic"/>
    </filter>
    <filter id="Path_90-2" x="263.825" y="37.921" width="31.479" height="37.819" filterUnits="userSpaceOnUse">
      <feOffset dy="3" input="SourceAlpha"/>
      <feGaussianBlur stdDeviation="3" result="blur-6"/>
      <feFlood flood-opacity="0.161"/>
      <feComposite operator="in" in2="blur-6"/>
      <feComposite in="SourceGraphic"/>
    </filter>
    <filter id="Rectangle_129-3" x="13.467" y="27.956" width="55.309" height="55.309" filterUnits="userSpaceOnUse">
      <feOffset dy="5" input="SourceAlpha"/>
      <feGaussianBlur stdDeviation="3" result="blur-7"/>
      <feFlood flood-opacity="0.161"/>
      <feComposite operator="in" in2="blur-7"/>
      <feComposite in="SourceGraphic"/>
    </filter>
    <filter id="Path_95" x="20.117" y="32.324" width="42.548" height="42.548" filterUnits="userSpaceOnUse">
      <feOffset dy="3" input="SourceAlpha"/>
      <feGaussianBlur stdDeviation="3" result="blur-8"/>
      <feFlood flood-opacity="0.161"/>
      <feComposite operator="in" in2="blur-8"/>
      <feComposite in="SourceGraphic"/>
    </filter>
    <filter id="Rectangle_129-4" x="94.195" y="27.956" width="55.309" height="55.309" filterUnits="userSpaceOnUse">
      <feOffset dy="5" input="SourceAlpha"/>
      <feGaussianBlur stdDeviation="3" result="blur-9"/>
      <feFlood flood-opacity="0.161"/>
      <feComposite operator="in" in2="blur-9"/>
      <feComposite in="SourceGraphic"/>
    </filter>
    <filter id="Path_95-2" x="100.627" y="32.324" width="42.548" height="42.548" filterUnits="userSpaceOnUse">
      <feOffset dy="3" input="SourceAlpha"/>
      <feGaussianBlur stdDeviation="3" result="blur-10"/>
      <feFlood flood-opacity="0.161"/>
      <feComposite operator="in" in2="blur-10"/>
      <feComposite in="SourceGraphic"/>
    </filter>
  </defs>
  <g id="help_center_bg" transform="translate(-383 -176)">
    <g id="Rectangle_147" data-name="Rectangle 147" class="cls-1" transform="translate(383 176)">
      <rect class="cls-12" width="752" height="327.523" rx="14"/>
      <rect class="cls-4" x="0.5" y="0.5" width="751" height="326.523" rx="13.5"/>
    </g>
    <g id="Group_194" data-name="Group 194" transform="translate(566.924 207.956)">
      <g class="cls-22" transform="matrix(1, 0, 0, 1, -183.92, -31.96)">
        <rect id="Rectangle_129-5" data-name="Rectangle 129" class="cls-2" width="37.309" height="37.309" rx="3" transform="translate(183.92 31.96)"/>
      </g>
      <g id="fuel" transform="translate(7.367 4.638)">
        <g class="cls-21" transform="matrix(1, 0, 0, 1, -191.29, -36.59)">
          <path id="Path_89-3" data-name="Path 89" class="cls-3" d="M292.145,13.734,287.976,21.3a3.837,3.837,0,0,0,.22,3.666,4.788,4.788,0,0,0,7.9,0,3.837,3.837,0,0,0,.22-3.666Zm0,12a.15.15,0,0,1,0-.3,2.74,2.74,0,0,0,2.737-2.737.15.15,0,0,1,.3,0,3.038,3.038,0,0,1-3.035,3.037Zm0,0" transform="translate(-83.64 23.47)"/>
        </g>
        <g class="cls-20" transform="matrix(1, 0, 0, 1, -191.29, -36.59)">
          <path id="Path_90-3" data-name="Path 90" class="cls-3" d="M17.288,165.977l-6.2,11.233a5.725,5.725,0,0,0,.325,5.459,6.449,6.449,0,0,0,5.873,3.118,6.443,6.443,0,0,0,5.87-3.118,5.717,5.717,0,0,0,.328-5.459Zm0,17.415a4.1,4.1,0,0,0,4.095-4.1.15.15,0,0,1,.3,0,4.4,4.4,0,0,1-4.393,4.393.15.15,0,1,1,0-.3Zm0,0" transform="translate(181.19 -122.06)"/>
        </g>
        <path id="Path_91" data-name="Path 91" class="cls-4" d="M7.882,152.4a.3.3,0,0,0-.521,0L1.033,163.874a6.174,6.174,0,0,0,.334,5.9,6.876,6.876,0,0,0,6.254,3.338,6.865,6.865,0,0,0,6.254-3.338,6.167,6.167,0,0,0,.337-5.9Zm5.482,17.076a6.3,6.3,0,0,1-5.742,3.046,6.323,6.323,0,0,1-5.744-3.046,5.567,5.567,0,0,1-.325-5.313l6.069-11,6.066,11a5.551,5.551,0,0,1-.323,5.309Zm0,0" transform="translate(-0.431 -145.522)"/>
        <path id="Path_92" data-name="Path 92" class="cls-5" d="M161.131,460.887a.3.3,0,0,0-.3.3,3.952,3.952,0,0,1-3.946,3.946.3.3,0,0,0,0,.6,4.547,4.547,0,0,0,4.541-4.541A.3.3,0,0,0,161.131,460.887Zm0,0" transform="translate(-149.696 -440.54)"/>
        <path id="Path_93" data-name="Path 93" class="cls-4" d="M286.739,7.96l-4.3-7.8a.3.3,0,0,0-.521,0l-4.3,7.8a4.191,4.191,0,0,0,.235,4.107,5.2,5.2,0,0,0,8.666.009,4.276,4.276,0,0,0,.22-4.116ZM286,11.76a4.62,4.62,0,0,1-7.644,0,3.691,3.691,0,0,1-.22-3.517L282.177.917l4.041,7.329A3.683,3.683,0,0,1,286,11.763Zm0,0" transform="translate(-264.961 -0.001)"/>
        <path id="Path_94" data-name="Path 94" class="cls-5" d="M386.82,209.891a.3.3,0,0,0-.3.3,2.591,2.591,0,0,1-2.588,2.588.3.3,0,0,0,0,.6,3.187,3.187,0,0,0,3.183-3.183.3.3,0,0,0-.3-.305Zm0,0" transform="translate(-366.719 -200.625)"/>
      </g>
    </g>
    <g id="Group_193" data-name="Group 193" transform="translate(647.652 207.956)">
      <g class="cls-19" transform="matrix(1, 0, 0, 1, -264.65, -31.96)">
        <rect id="Rectangle_129-6" data-name="Rectangle 129" class="cls-6" width="37.309" height="37.309" rx="3" transform="translate(264.65 31.96)"/>
      </g>
      <g id="fuel-2" data-name="fuel" transform="translate(7.726 4.638)">
        <g class="cls-18" transform="matrix(1, 0, 0, 1, -272.38, -36.59)">
          <path id="Path_89-4" data-name="Path 89" class="cls-7" d="M292.145,13.734,287.976,21.3a3.837,3.837,0,0,0,.22,3.666,4.788,4.788,0,0,0,7.9,0,3.837,3.837,0,0,0,.22-3.666Zm0,12a.15.15,0,0,1,0-.3,2.74,2.74,0,0,0,2.737-2.737.15.15,0,0,1,.3,0,3.038,3.038,0,0,1-3.035,3.037Zm0,0" transform="translate(-2.55 23.47)"/>
        </g>
        <g class="cls-17" transform="matrix(1, 0, 0, 1, -272.38, -36.59)">
          <path id="Path_90-4" data-name="Path 90" class="cls-7" d="M17.288,165.977l-6.2,11.233a5.725,5.725,0,0,0,.325,5.459,6.449,6.449,0,0,0,5.873,3.118,6.443,6.443,0,0,0,5.87-3.118,5.717,5.717,0,0,0,.328-5.459Zm0,17.415a4.1,4.1,0,0,0,4.095-4.1.15.15,0,0,1,.3,0,4.4,4.4,0,0,1-4.393,4.393.15.15,0,1,1,0-.3Zm0,0" transform="translate(262.28 -122.06)"/>
        </g>
        <path id="Path_91-2" data-name="Path 91" class="cls-4" d="M7.882,152.4a.3.3,0,0,0-.521,0L1.033,163.874a6.174,6.174,0,0,0,.334,5.9,6.876,6.876,0,0,0,6.254,3.338,6.865,6.865,0,0,0,6.254-3.338,6.167,6.167,0,0,0,.337-5.9Zm5.482,17.076a6.3,6.3,0,0,1-5.742,3.046,6.323,6.323,0,0,1-5.744-3.046,5.567,5.567,0,0,1-.325-5.313l6.069-11,6.066,11a5.551,5.551,0,0,1-.323,5.309Zm0,0" transform="translate(-0.431 -145.522)"/>
        <path id="Path_92-2" data-name="Path 92" class="cls-5" d="M161.131,460.887a.3.3,0,0,0-.3.3,3.952,3.952,0,0,1-3.946,3.946.3.3,0,0,0,0,.6,4.547,4.547,0,0,0,4.541-4.541A.3.3,0,0,0,161.131,460.887Zm0,0" transform="translate(-149.696 -440.54)"/>
        <path id="Path_93-2" data-name="Path 93" class="cls-4" d="M286.739,7.96l-4.3-7.8a.3.3,0,0,0-.521,0l-4.3,7.8a4.191,4.191,0,0,0,.235,4.107,5.2,5.2,0,0,0,8.666.009,4.276,4.276,0,0,0,.22-4.116ZM286,11.76a4.62,4.62,0,0,1-7.644,0,3.691,3.691,0,0,1-.22-3.517L282.177.917l4.041,7.329A3.683,3.683,0,0,1,286,11.763Zm0,0" transform="translate(-264.961 -0.001)"/>
        <path id="Path_94-2" data-name="Path 94" class="cls-5" d="M386.82,209.891a.3.3,0,0,0-.3.3,2.591,2.591,0,0,1-2.588,2.588.3.3,0,0,0,0,.6,3.187,3.187,0,0,0,3.183-3.183.3.3,0,0,0-.3-.305Zm0,0" transform="translate(-366.719 -200.625)"/>
      </g>
    </g>
    <g id="Group_196" data-name="Group 196" transform="translate(405.467 207.956)">
      <g class="cls-16" transform="matrix(1, 0, 0, 1, -22.47, -31.96)">
        <rect id="Rectangle_129-7" data-name="Rectangle 129" class="cls-8" width="37.309" height="37.309" rx="3" transform="translate(22.47 31.96)"/>
      </g>
      <g id="dollar-coin-money" transform="translate(6.65 6.368)">
        <g class="cls-15" transform="matrix(1, 0, 0, 1, -29.12, -38.32)">
          <path id="Path_95-3" data-name="Path 95" class="cls-9" d="M12.274,0A12.274,12.274,0,1,0,24.548,12.274,12.274,12.274,0,0,0,12.274,0Zm3.347,17.013A3.9,3.9,0,0,1,13,18.213V19.95H11.552V18.218A3.807,3.807,0,0,1,8.02,14.9l2.247-.586a1.954,1.954,0,0,0,2.068,1.9,1.6,1.6,0,0,0,1.209-.406,1.373,1.373,0,0,0,.387-.981,1.081,1.081,0,0,0-.387-.9,6.986,6.986,0,0,0-1.72-.779,10.122,10.122,0,0,1-1.873-.823,3.093,3.093,0,0,1-1.1-1.136,3.37,3.37,0,0,1-.421-1.7,3.78,3.78,0,0,1,.752-2.3,3.361,3.361,0,0,1,2.364-1.245V4.6H13V5.944A3.515,3.515,0,0,1,16.159,8.7l-2,.821q-.587-1.69-1.811-1.69a1.322,1.322,0,0,0-.987.378,1.255,1.255,0,0,0-.373.915,1.025,1.025,0,0,0,.36.842,6.177,6.177,0,0,0,1.537.725,13.643,13.643,0,0,1,2.03.893,3.191,3.191,0,0,1,1.176,1.161,3.34,3.34,0,0,1,.439,1.732A3.664,3.664,0,0,1,15.621,17.013Z" transform="translate(29.12 38.32)"/>
        </g>
      </g>
    </g>
    <g id="Group_195" data-name="Group 195" transform="translate(486.195 207.956)">
      <g class="cls-14" transform="matrix(1, 0, 0, 1, -103.2, -31.96)">
        <rect id="Rectangle_129-8" data-name="Rectangle 129" class="cls-10" width="37.309" height="37.309" rx="3" transform="translate(103.2 31.96)"/>
      </g>
      <g id="dollar-coin-money-2" data-name="dollar-coin-money" transform="translate(6.432 6.368)">
        <g class="cls-13" transform="matrix(1, 0, 0, 1, -109.63, -38.32)">
          <path id="Path_95-4" data-name="Path 95" class="cls-9" d="M12.274,0A12.274,12.274,0,1,0,24.548,12.274,12.274,12.274,0,0,0,12.274,0Zm3.347,17.013A3.9,3.9,0,0,1,13,18.213V19.95H11.552V18.218A3.807,3.807,0,0,1,8.02,14.9l2.247-.586a1.954,1.954,0,0,0,2.068,1.9,1.6,1.6,0,0,0,1.209-.406,1.373,1.373,0,0,0,.387-.981,1.081,1.081,0,0,0-.387-.9,6.986,6.986,0,0,0-1.72-.779,10.121,10.121,0,0,1-1.873-.823,3.093,3.093,0,0,1-1.1-1.136,3.37,3.37,0,0,1-.421-1.7,3.78,3.78,0,0,1,.752-2.3,3.361,3.361,0,0,1,2.364-1.245V4.6H13V5.944A3.515,3.515,0,0,1,16.159,8.7l-2,.821q-.587-1.69-1.811-1.69a1.322,1.322,0,0,0-.987.378,1.255,1.255,0,0,0-.373.915,1.025,1.025,0,0,0,.36.842,6.177,6.177,0,0,0,1.537.725,13.643,13.643,0,0,1,2.03.893,3.191,3.191,0,0,1,1.176,1.161,3.34,3.34,0,0,1,.439,1.732A3.664,3.664,0,0,1,15.621,17.013Z" transform="translate(109.63 38.32)"/>
        </g>
      </g>
    </g>
    <text id="PRICES_CHANGE" data-name="PRICES CHANGE" class="cls-11" transform="translate(728 239)"><tspan x="0" y="0">Help center</tspan></text>
  </g>
</svg>
