<svg xmlns="http://www.w3.org/2000/svg" xmlns:xlink="http://www.w3.org/1999/xlink" width="1065.297" height="433.203" viewBox="0 0 1065.297 433.203">
  <defs>
    <filter id="Rectangle_576" x="0" y="0" width="1065.297" height="433.203" filterUnits="userSpaceOnUse">
      <feOffset dy="3" input="SourceAlpha"/>
      <feGaussianBlur stdDeviation="3" result="blur"/>
      <feFlood flood-opacity="0.161"/>
      <feComposite operator="in" in2="blur"/>
      <feComposite in="SourceGraphic"/>
    </filter>
    <linearGradient id="linear-gradient" x1="0.5" x2="0.5" y2="1" gradientUnits="objectBoundingBox">
      <stop offset="0" stop-color="#bff098"/>
      <stop offset="1" stop-color="#6fd6ff"/>
    </linearGradient>
    <filter id="Rectangle_136" x="16.592" y="80.192" width="477.724" height="270.998" filterUnits="userSpaceOnUse">
      <feOffset dy="2" input="SourceAlpha"/>
      <feGaussianBlur stdDeviation="1" result="blur-2"/>
      <feFlood flood-opacity="0.235"/>
      <feComposite operator="in" in2="blur-2"/>
      <feComposite in="SourceGraphic"/>
    </filter>
    <linearGradient id="linear-gradient-2" x1="1" x2="0" y2="0.975" gradientUnits="objectBoundingBox">
      <stop offset="0" stop-color="#dd2859"/>
      <stop offset="1" stop-color="#2f219b"/>
    </linearGradient>
    <filter id="Rectangle_137" x="16.592" y="78.192" width="477.724" height="270.998" filterUnits="userSpaceOnUse">
      <feOffset input="SourceAlpha"/>
      <feGaussianBlur stdDeviation="1" result="blur-3"/>
      <feFlood flood-opacity="0.122"/>
      <feComposite operator="in" in2="blur-3"/>
      <feComposite in="SourceGraphic"/>
    </filter>
  </defs>
  <g id="add_card" transform="translate(-235.703 -600)">
    <g transform="matrix(1, 0, 0, 1, 235.7, 600)" filter="url(#Rectangle_576)">
      <rect id="Rectangle_576-2" data-name="Rectangle 576" width="1047.297" height="415.203" rx="25" transform="translate(9 6)" fill="#fff"/>
    </g>
    <path id="Path_1829" data-name="Path 1829" d="M25,0H313L25,415A25,25,0,0,1,0,390V25A25,25,0,0,1,25,0Z" transform="translate(245 606)" fill="url(#linear-gradient)"/>
    <g id="Group_7" data-name="Group 7" transform="translate(255.295 681.192)">
      <g transform="matrix(1, 0, 0, 1, -19.59, -81.19)" filter="url(#Rectangle_136)">
        <rect id="Rectangle_136-2" data-name="Rectangle 136" width="471.724" height="264.998" rx="12" transform="translate(19.59 81.19)" fill="#fff"/>
      </g>
      <g transform="matrix(1, 0, 0, 1, -19.59, -81.19)" filter="url(#Rectangle_137)">
        <rect id="Rectangle_137-2" data-name="Rectangle 137" width="471.724" height="264.998" rx="11" transform="translate(19.59 81.19)" fill="url(#linear-gradient-2)"/>
      </g>
    </g>
    <text id="_4926_2658" data-name="4926 **** **** 2658" transform="translate(312.18 821.474)" fill="#fff" font-size="26" font-family="OCRAExtended, OCR A" letter-spacing="0.02em"><tspan x="0" y="0">4926 **** **** 2658</tspan></text>
    <text id="CARDHOLDER_S_NAME" data-name="CARDHOLDER’S NAME" transform="translate(276.106 880.692)" fill="rgba(255,255,255,0.5)" font-size="13" font-family="OCRAExtended, OCR A"><tspan x="0" y="0">CARDHOLDER’S NAME</tspan></text>
    <text id="VALID_UP_TO" data-name="VALID UP TO" transform="translate(679.004 880.692)" fill="rgba(255,255,255,0.5)" font-size="13" font-family="OCRAExtended, OCR A"><tspan x="-86.373" y="0">VALID UP TO</tspan></text>
    <g id="logo-icon" transform="translate(276.479 701.8)">
      <g id="Group_294" data-name="Group 294" transform="translate(69.397 0)">
        <path id="Path_1809" data-name="Path 1809" d="M28.6,71.426a10.472,10.472,0,0,1-1.967,4.345,1.585,1.585,0,0,1-2.205.238c-4.313-3.372-6.648-8.42-7.339-16.008a1.321,1.321,0,0,0-2.205-.854C9.341,64.206.239,74-.02,89.337a17.989,17.989,0,0,0,17.889,18.451A17.791,17.791,0,0,0,35.553,90c0-4.107-.519-9.08-5.361-18.754A.854.854,0,0,0,28.6,71.426Z" transform="translate(0.022 -52.44)" fill="#61d46d"/>
        <path id="Path_1810" data-name="Path 1810" d="M117.236,269.768c-.292-5.459-4.972-6.691-6.453-10.842a1.051,1.051,0,0,0-1.719-.422,15.669,15.669,0,0,0-4.864,11.815,6.523,6.523,0,0,0,6.529,6.529A6.651,6.651,0,0,0,117.236,269.768Z" transform="translate(-92.934 -230.299)" fill="#f9e78d"/>
        <path id="Path_1811" data-name="Path 1811" d="M216.81,13.472a.682.682,0,0,1-1.189.313c-1.74-2.043-3.308-5.145-1.6-8.485.789-1.546,2.108-2.659,2.421-4.81a.615.615,0,0,1,1.081-.313c1.611,1.87,3.416,5.113,2.075,7.448C218.421,9.667,217.21,11.385,216.81,13.472Z" transform="translate(-190.228 0.045)" fill="#83e68d"/>
        <g id="Group_292" data-name="Group 292" transform="translate(1.429 37.675)">
          <ellipse id="Ellipse_179" data-name="Ellipse 179" cx="4.41" cy="3.513" rx="4.41" ry="3.513" fill="#f8b8bd"/>
          <ellipse id="Ellipse_180" data-name="Ellipse 180" cx="4.41" cy="3.513" rx="4.41" ry="3.513" transform="translate(23.899)" fill="#f8b8bd"/>
        </g>
        <g id="Group_293" data-name="Group 293" transform="translate(7.601 35.308)">
          <path id="Path_1812" data-name="Path 1812" d="M71.111,329.778a.817.817,0,0,1-.811-.811v-1.557a.811.811,0,0,1,1.621,0v1.557A.809.809,0,0,1,71.111,329.778Z" transform="translate(-70.3 -326.6)" fill="#495059"/>
          <path id="Path_1813" data-name="Path 1813" d="M244.611,329.778a.817.817,0,0,1-.811-.811v-1.557a.811.811,0,0,1,1.621,0v1.557A.81.81,0,0,1,244.611,329.778Z" transform="translate(-225.046 -326.6)" fill="#495059"/>
          <path id="Path_1814" data-name="Path 1814" d="M137.439,344.409A4.075,4.075,0,0,1,134.358,343a.812.812,0,1,1,1.221-1.07,2.451,2.451,0,0,0,3.718,0,.812.812,0,0,1,1.221,1.07A4.042,4.042,0,0,1,137.439,344.409Z" transform="translate(-127.256 -340.031)" fill="#495059"/>
        </g>
        <path id="Path_1815" data-name="Path 1815" d="M30.04,149.337C-.744,150.526,3.288,123.914,9.751,110.9A38.889,38.889,0,0,0-.02,135.8a17.989,17.989,0,0,0,17.889,18.451A17.724,17.724,0,0,0,30.04,149.337Z" transform="translate(0.022 -98.908)" fill="#8d4330" opacity="0.15"/>
      </g>
      <g id="Group_295" data-name="Group 295" transform="translate(0 19.706)">
        <text id="Gas_" data-name="Gas " transform="translate(0 13)" fill="#61d46d" font-size="15" font-family="ForteMT, Forte"><tspan x="0" y="0">Gas </tspan></text>
        <text id="Station" transform="translate(15.361 34.483)" fill="#61d46d" font-size="17" font-family="ForteMT, Forte"><tspan x="0" y="0">Station</tspan></text>
      </g>
    </g>
  </g>
</svg>
