<svg xmlns="http://www.w3.org/2000/svg" xmlns:xlink="http://www.w3.org/1999/xlink" viewBox="0 0 307.296 240.448">
  <defs>
    <style>
      .cls-1, .cls-3 {
        fill: #009688;
      }

      .cls-1, .cls-13, .cls-7 {
        opacity: 0.1;
      }

      .cls-2, .cls-23 {
        fill: none;
      }

      .cls-2 {
        stroke: #535461;
        stroke-miterlimit: 10;
        stroke-width: 2px;
      }

      .cls-4 {
        opacity: 0.25;
      }

      .cls-5 {
        fill: url(#linear-gradient);
      }

      .cls-6 {
        fill: #65617d;
      }

      .cls-8 {
        fill: #fbbebe;
      }

      .cls-9 {
        fill: #e7effd;
      }

      .cls-10 {
        fill: #3f3d56;
      }

      .cls-11 {
        fill: #e3a79f;
      }

      .cls-12 {
        fill: #7c5c5c;
      }

      .cls-14 {
        fill: #3a3768;
      }

      .cls-15 {
        fill: #e6e8ec;
      }

      .cls-16 {
        fill: #c7cce1;
      }

      .cls-17 {
        opacity: 0.2;
      }

      .cls-18 {
        fill: #dcdfed;
      }

      .cls-19 {
        fill: #f2f3f3;
      }

      .cls-20 {
        fill: #d44f6a;
      }

      .cls-21 {
        fill: #fecb42;
      }

      .cls-22 {
        fill: #97d25e;
      }

      .cls-24 {
        opacity: 0.3;
      }

      .cls-25 {
        fill: #d6d6e3;
      }
    </style>
    <linearGradient id="linear-gradient" x1="0.5" y1="1" x2="0.5" gradientUnits="objectBoundingBox">
      <stop offset="0" stop-color="gray" stop-opacity="0.251"/>
      <stop offset="0.54" stop-color="gray" stop-opacity="0.122"/>
      <stop offset="1" stop-color="gray" stop-opacity="0.102"/>
    </linearGradient>
  </defs>
  <g id="card-pay" transform="translate(-119 -898)">
    <path id="Path_433" data-name="Path 433" class="cls-1" d="M387.13,85.294c-16.338-.565-31.9-5.842-46.762-11.6S310.787,61.531,294.84,58.473c-10.259-1.967-21.988-2.245-30.256,3.254-7.951,5.292-10.522,14.43-11.9,22.9-1.041,6.378-1.651,13.093,1.2,19.062,1.976,4.141,5.487,7.629,7.916,11.6,8.448,13.817,2.476,30.853-6.679,44.342-4.3,6.313-9.28,12.35-12.59,19.074s-4.848,14.456-1.949,21.325c2.875,6.8,9.723,11.927,17.157,15.527,15.072,7.307,32.835,9.4,50.143,10.584,38.331,2.621,76.867,1.479,115.3.349,14.223-.42,28.507-.846,42.5-3.047,7.771-1.222,15.793-3.159,21.435-7.839,7.162-5.94,8.936-16,4.141-23.449-8.049-12.5-30.306-15.6-35.929-29.007-3.1-7.381.083-15.6,4.582-22.449,9.655-14.684,25.836-27.567,26.688-44.351.592-11.537-7.194-23.073-19.228-28.528-12.607-5.718-30.087-5-39.39,4.467C418.389,82.046,401.557,85.8,387.13,85.294Z" transform="translate(-73.172 844.849)"/>
    <path id="Path_434" data-name="Path 434" class="cls-2" d="M437.015,654.733s-13.607-24.112-34.113-31.06a41.942,41.942,0,0,1-21.251-15.9A70.644,70.644,0,0,1,375.38,596.5" transform="translate(-169.177 465.069)"/>
    <path id="Path_435" data-name="Path 435" class="cls-3" d="M327.762,557.535c2.334,2.266,13.214,4.612,13.214,4.612s-2.662-10.8-5.005-13.072a5.9,5.9,0,0,0-8.209,8.46Z" transform="translate(-134.45 499.573)"/>
    <path id="Path_436" data-name="Path 436" class="cls-3" d="M341.309,619.711c3.195.633,13.607-3.31,13.607-3.31s-8.114-7.62-11.306-8.253a5.895,5.895,0,1,0-2.3,11.564Z" transform="translate(-141.844 456.947)"/>
    <path id="Path_437" data-name="Path 437" class="cls-3" d="M410.109,691.848c3.076-1.065,10.058-9.723,10.058-9.723s-10.847-2.482-13.924-1.417a5.9,5.9,0,0,0,3.846,11.14Z" transform="translate(-188.233 405.958)"/>
    <path id="Path_438" data-name="Path 438" class="cls-3" d="M481.538,732.433c3.213-.529,11.566-7.88,11.566-7.88s-10.274-4.28-13.486-3.751a5.895,5.895,0,1,0,1.92,11.633Z" transform="translate(-239.104 377.569)"/>
    <path id="Path_439" data-name="Path 439" class="cls-3" d="M401.181,593.76c0,3.254-5.89,12.7-5.89,12.7s-5.9-9.439-5.9-12.693a5.9,5.9,0,0,1,11.791,0Z" transform="translate(-179.042 471.146)"/>
    <path id="Path_440" data-name="Path 440" class="cls-3" d="M482.651,638.192c-.973,3.106-9.419,10.353-9.419,10.353s-2.8-10.771-1.831-13.877a5.9,5.9,0,1,1,11.241,3.523Z" transform="translate(-236.649 441.273)"/>
    <path id="Path_441" data-name="Path 441" class="cls-3" d="M553.9,699.7c-.432,3.224-7.531,11.8-7.531,11.8s-4.585-10.14-4.141-13.368A5.893,5.893,0,0,1,553.91,699.7Z" transform="translate(-286.648 397.101)"/>
    <path id="Path_442" data-name="Path 442" class="cls-4" d="M327.762,557.535c2.334,2.266,13.214,4.612,13.214,4.612s-2.662-10.8-5.005-13.072a5.9,5.9,0,0,0-8.209,8.46Z" transform="translate(-134.45 499.573)"/>
    <path id="Path_443" data-name="Path 443" class="cls-4" d="M341.309,619.711c3.195.633,13.607-3.31,13.607-3.31s-8.114-7.62-11.306-8.253a5.895,5.895,0,1,0-2.3,11.564Z" transform="translate(-141.844 456.947)"/>
    <path id="Path_444" data-name="Path 444" class="cls-4" d="M410.109,691.848c3.076-1.065,10.058-9.723,10.058-9.723s-10.847-2.482-13.924-1.417a5.9,5.9,0,0,0,3.846,11.14Z" transform="translate(-188.233 405.958)"/>
    <path id="Path_445" data-name="Path 445" class="cls-4" d="M481.538,732.433c3.213-.529,11.566-7.88,11.566-7.88s-10.274-4.28-13.486-3.751a5.895,5.895,0,1,0,1.92,11.633Z" transform="translate(-239.104 377.569)"/>
    <path id="Path_446" data-name="Path 446" class="cls-4" d="M401.181,593.76c0,3.254-5.89,12.7-5.89,12.7s-5.9-9.439-5.9-12.693a5.9,5.9,0,0,1,11.791,0Z" transform="translate(-179.042 471.146)"/>
    <path id="Path_447" data-name="Path 447" class="cls-4" d="M482.651,638.192c-.973,3.106-9.419,10.353-9.419,10.353s-2.8-10.771-1.831-13.877a5.9,5.9,0,1,1,11.241,3.523Z" transform="translate(-236.649 441.273)"/>
    <path id="Path_448" data-name="Path 448" class="cls-4" d="M553.9,699.7c-.432,3.224-7.531,11.8-7.531,11.8s-4.585-10.14-4.141-13.368A5.893,5.893,0,0,1,553.91,699.7Z" transform="translate(-286.648 397.101)"/>
    <path id="Path_449" data-name="Path 449" class="cls-2" d="M503.136,605.538s-2.662-27.561-18.6-42.221a41.893,41.893,0,0,1-12.986-23.144,70.43,70.43,0,0,1-1.163-12.853" transform="translate(-236.081 513.785)"/>
    <path id="Path_450" data-name="Path 450" class="cls-3" d="M435.6,476.6c1.216,3.02,10.211,9.572,10.211,9.572s1.938-10.96.722-13.98A5.9,5.9,0,1,0,435.59,476.6Z" transform="translate(-211.274 555.211)"/>
    <path id="Path_451" data-name="Path 451" class="cls-3" d="M422.921,539.223c2.662,1.873,13.776,2.485,13.776,2.485s-4.328-10.253-6.99-12.128a5.9,5.9,0,1,0-6.786,9.641Z" transform="translate(-200.892 512.951)"/>
    <path id="Path_452" data-name="Path 452" class="cls-3" d="M455.992,632.778c3.254.272,13.146-4.81,13.146-4.81s-8.913-6.673-12.158-6.937a5.9,5.9,0,1,0-.988,11.747Z" transform="translate(-222.048 447.818)"/>
    <path id="Path_453" data-name="Path 453" class="cls-3" d="M505.49,699.039c3.153.816,13.77-2.52,13.77-2.52s-7.659-8.076-10.809-8.892a5.9,5.9,0,1,0-2.958,11.413Z" transform="translate(-257.69 401.032)"/>
    <path id="Path_454" data-name="Path 454" class="cls-3" d="M488.139,539.753c-1.319,2.979-10.531,9.223-10.531,9.223s-1.568-11.019-.251-13.995a5.9,5.9,0,1,1,10.782,4.771Z" transform="translate(-240.617 510.862)"/>
    <path id="Path_455" data-name="Path 455" class="cls-3" d="M538.376,613.874c-2.148,2.446-12.806,5.65-12.806,5.65s1.8-10.984,3.949-13.427a5.893,5.893,0,1,1,8.857,7.777Z" transform="translate(-274.939 459.722)"/>
    <path id="Path_456" data-name="Path 456" class="cls-3" d="M583.025,698.466c-1.716,2.775-11.667,7.735-11.667,7.735s-.083-11.128,1.621-13.9a5.9,5.9,0,0,1,10.058,6.171Z" transform="translate(-307.182 399.592)"/>
    <ellipse id="Ellipse_46" data-name="Ellipse 46" class="cls-1" cx="79.517" cy="5.718" rx="79.517" ry="5.718" transform="translate(216.338 1127.011)"/>
    <path id="Path_457" data-name="Path 457" class="cls-5" d="M769.451,118.66c.231-.63-1.5-4.127-1.5-4.3s-1.79-2.121-1.79-3.21-2.366-3.437-2.366-3.437-3.174-1.319-3.52-4.186-3.8-2.923-3.81-2.923h0s.015-.263.021-.657a9.642,9.642,0,0,0-.426-3.354,3.431,3.431,0,0,0-1.964-1.662s-.346-2.236-1.038-2.926a3.283,3.283,0,0,1-.807-3.094c.346-1.086-.461-3.846-2.136-4.239s-3.579-1.032-3.579-1.032-.186.035-.461.074l-.231-.074a10.15,10.15,0,0,1-1.213.151,1.521,1.521,0,0,1-.979-.322c-.592-.63-5.251-1.834-6.117-1.834a14.471,14.471,0,0,1-3.349-1.148s-1.73-1.316-2.479-1.89a15.683,15.683,0,0,1-2.171-3l-.024-.041H729.5a10.621,10.621,0,0,1-.453-1.251c-.027-.089-.047-.177-.071-.266a13.8,13.8,0,0,0,2.148-2.958c.059-.112.112-.228.169-.34a1.246,1.246,0,0,0,.376-.059,1.59,1.59,0,0,0,.151-.059,2.515,2.515,0,0,0,1.225-1.464h0c.041-.124.077-.251.109-.379l.027-.127c.021-.086.038-.175.056-.263s.015-.1.024-.148.027-.172.038-.257,0-.1.021-.145c.015-.109.027-.216.041-.325h0c.047-.405.095-.811.18-1.207a.041.041,0,0,1,0-.018h0a21.97,21.97,0,0,1,1.943-4.307h0c.095-.207.183-.417.266-.627s.16-.461.228-.7c.021-.071.036-.142.056-.213q.065-.26.115-.524c.015-.074.03-.148.041-.225.041-.237.074-.476.092-.716a8.833,8.833,0,0,0-.592-4.026c-.432-1.077-1.077-2.047-1.515-3.121-.663-1.633-.837-3.479-1.648-5.029a6,6,0,0,0-7.188-2.931c-1.254.467-2.343,1.376-3.618,1.775-1.7.544-3.529.136-5.295-.109s-3.715-.266-5.135.887c-1.636,1.328-2.071,3.825-3.615,5.28-.645.612-1.447,1-2.127,1.568a3.488,3.488,0,0,0-1.068,1.458.5.5,0,0,1-.038.124c-.012.041-.027.1-.039.148s-.021.115-.03.172a.522.522,0,0,0,0,.118,1.773,1.773,0,0,0,0,.3h0a2.459,2.459,0,0,0,.047.3.588.588,0,0,0,.021.077,2.265,2.265,0,0,0,.071.243v.044c.032.089.068.175.1.263l.056.127c0,.035.033.071.047.109a6.8,6.8,0,0,1,.535,1.331,1.479,1.479,0,0,1-.053.887,2.66,2.66,0,0,1-.639.84,11.928,11.928,0,0,0-2.606,4.171c-.065.177-.127.355-.186.535v.015l.077.021a3.861,3.861,0,0,0,.506.109c.1,0,.2.024.3.03a4.5,4.5,0,0,0,1.183-.089c.1-.021.2-.044.3-.071A7.063,7.063,0,0,0,705.3,64.1v.547a13.625,13.625,0,0,0,7.573,12.19c.018.127.033.248.05.373s.027.21.038.314l-.157-.151s-1.038-.515-2.02.976a6.515,6.515,0,0,1-2.828,2.177s-10.5,1.662-10.907,3.038l-4.908.3s-1.73.228-1.9,3.846-1.1,3.955-1.1,3.955-2.02,3.55-1.846,5.387a3,3,0,0,1-1.559,2.751l-.231,3.254a2.209,2.209,0,0,0-2.426,1.949,7.66,7.66,0,0,1-1.441,3.254s-3.177,2.639-3.349,4.872l-1.961,1.2s-4.561-1.032-5.6-2.866l-.32-.3a.218.218,0,0,1-.027-.044.1.1,0,0,0,0,.021,15.505,15.505,0,0,0-1.908-1.68,1.426,1.426,0,0,1,.095.923l-.34-.376-.908-1.009s-6.783-7.792-11.111-8.339l-.328-.648a.742.742,0,0,0-1-.325l-6.529,3.254a.737.737,0,0,0-.331.991l.731,1.435h-.015a.068.068,0,0,0-.03.095l.257.506a.071.071,0,0,0,.095.033h0l.269.53h0a.08.08,0,0,0-.035.106l.488.958a.077.077,0,0,0,.107.036h0l.2.388h0a.077.077,0,0,0-.032.1l.5.976a.071.071,0,0,0,.1.033h0l4.733,9.351a.745.745,0,0,0,1,.328l5.011-2.506.178.13,1.479,1.9c-.251.592-.461,1.183-.639,1.713a.452.452,0,0,1-.015.05c-.038.112-.074.225-.106.331l-.036.112c-.035.109-.068.216-.1.317l-.053.189a.513.513,0,0,1-.033.109c-.163.574-.266,1.018-.322,1.263l-.382-.118.373.16v.059c-.018.077-.024.121-.024.121.112.053.231.1.355.154,2.02.887,12.111,5.307,12.628,5.978a7.31,7.31,0,0,0,7.851,1.089,8.282,8.282,0,0,0,4.212-4.641s3.349-4.644,3.464-5.325,2.713-1.479,2.713-1.479.231,7.691-1.1,10.489-3.81,15.243-3.81,15.243a1.822,1.822,0,0,1,.491-.03l-.145.719a1.639,1.639,0,0,1,.609,0c-.183,1.411-1.242,7.987-1.242,7.987a16.285,16.285,0,0,1-.926,4.011c-.58,1.029-.633,6.419-.633,6.419l-.923,3.9s.121.269.349.671v.015a9.946,9.946,0,0,0,2.662,3.434,7.045,7.045,0,0,1-.464,1.775,5.957,5.957,0,0,0-.461,2.751,35.492,35.492,0,0,0-.867,5.674,20.691,20.691,0,0,1-.657,4.354l-1.038,9.972s-.692,8.652-.346,11a21.064,21.064,0,0,1-.231,5.558s.692,6.821.518,7.564-1.038,3.955-.518,5.733.231,6.647.231,6.647.346,6.422.748,8.484a14.638,14.638,0,0,1-.115,4.7,35.811,35.811,0,0,1-.592,4.414c-.186,0-1.674,3.035,1.384,6.017s1.171,2.514,1.171,2.514-2.426-1.2-2.136,1.26c.272,2.346.654,1.733.689,1.668L685,263.255s.151.018.405.056l-.334.4a9.113,9.113,0,0,1-1.165,1.207,2.484,2.484,0,0,0-.751,1.659,45.016,45.016,0,0,1-8.25,6.993,24.729,24.729,0,0,0-4.692,3.147c-.71.778-.592,1.408.887,1.9,3.118,1.032,8.6,1.547,12.522.231a14.6,14.6,0,0,0,6.117-3.955,8.772,8.772,0,0,1,4.908-.8c2.423.458,7.271-2.692,7.271-2.692l-.089-.814-.257-2.34a1.806,1.806,0,0,1-.405-1.432,7.516,7.516,0,0,0-.2-2.071c-.041-.228-.086-.453-.13-.666l.444-.083s-.574-2.923.464-3.5.748-8.082.748-8.082a9.25,9.25,0,0,0-2.02-2.006c-.692-.287-.059-3.846.059-4.3s1.038-9.342,1.038-9.342a12.018,12.018,0,0,1,.115-4.011c.461-1.2-.577-5.845-.577-5.845a1.064,1.064,0,0,1,.3-1.263c.642-.689.393-6.8.393-6.8s-.056-3.094-.056-3.9a14.161,14.161,0,0,1,1.325-4.7c.633-.973.234-4.014.234-4.014h0l.035-.228a2.536,2.536,0,0,1,.05-.325l.053-.3a43.434,43.434,0,0,1,1.124-4.976c.751-2.408,1.618-6.647,1.618-6.647l5.378-14.01.062-.166s2.479,4.585,2.479,8.83a50.353,50.353,0,0,1,.464,6.475,76.557,76.557,0,0,0,.521,7.851s.748,9.283.748,9.685.923,7.567,1.5,8.658-.592,4.411-.926,4.754.115,8.771.115,8.771-.867,6.647-1.038,8.022-.867,6.65-.3,8.715.346,2.349.346,2.349,2.071,2.121.867,2.293a3.181,3.181,0,0,0-2.31,4.183,52.855,52.855,0,0,0,2.544,6.135s.358-.08.956-.2v.68l.071,3.417a20.113,20.113,0,0,1,.172,4.014c-.169.541-.4,3.112-.512,4.437-.041.491-.065.819-.065.819s0,3.035,6.4,2.121,7.561-3.44,7.561-3.44l.047-.317c.095-.592.3-1.807.47-2.491.234-.92-1.843-5.047-1.843-5.047s-.349-2.8-.926-3.437a3.04,3.04,0,0,1-.464-1.2c-.053-.231-.1-.47-.136-.707.151.021.3.047.426.077,0,0-.346-2.006.985-2.639a1.892,1.892,0,0,0,.808-2.52,19.405,19.405,0,0,1,.518-3.78,1.872,1.872,0,0,1,.461-1.834c.81-.8,1.444-6.422,1.444-6.422l.139-21.639s.405-3.846-.056-5.39-.926-4.526-.3-5.325.059-4.526.059-4.526,0-7.854.864-9.8.592-14.273.592-14.273l.228-8.079s1.884-1.775,1.438-11.087c2.012-.124,4.28-.2,4.624.08.633.515,4.733,3.153,7.156,1.479a32.092,32.092,0,0,0,2.884-2.236l-1.018-17.184c.636.958,1.021,1.594,1.021,1.594,0-2.408,6.8-10.2,6.8-10.2s6.348-8.194,7.733-9.17,4.1-6.132,4.1-6.132a25.344,25.344,0,0,1,1.387-2.866C771.3,122.044,769.22,119.293,769.451,118.66Zm-14.891,6.02c-1.73.172-5.366,4.127-5.425,4.984a3.567,3.567,0,0,1-.766,1.541c-.027-.346-.056-.7-.086-1.056-.408-5.064-.846-11.241-.645-11.832a34.7,34.7,0,0,0,.228-5.674h0l.065-.089c1.165,3.6,4.777,7.839,4.777,7.839s.636,1.834,1.384,1.89S754.56,124.68,754.56,124.68Z" transform="translate(-361.113 854.45)"/>
    <path id="Path_458" data-name="Path 458" class="cls-6" d="M695.55,286.98s2.1-11.034,8.874-11.09l4.946,10.182-3.3,2.275S698.9,288.574,695.55,286.98Z" transform="translate(-394.637 690.839)"/>
    <path id="Path_459" data-name="Path 459" class="cls-7" d="M709.37,286.09l-3.3,2.278a39,39,0,0,1-8.65-.728A9.98,9.98,0,0,1,695.55,287a.651.651,0,0,1,.039-.177.361.361,0,0,1,0-.041,24.972,24.972,0,0,1,1.281-4.053c.207-.494.444-1.006.7-1.515a10.35,10.35,0,0,1,4.289-4.7,5.857,5.857,0,0,1,2.257-.592h.3l.107.225,1.674,3.44Z" transform="translate(-394.637 690.818)"/>
    <path id="Path_460" data-name="Path 460" class="cls-6" d="M919.927,390.167s7.1-.683,7.735-.172,4.665,3.13,7.052,1.479.8-7.4.8-7.623-.225-8.36-.225-8.36l-4.269-5.745-5.345-10.058-10.921-1.08.3,15.974-.056,8.191Z" transform="translate(-548.995 632.588)"/>
    <path id="Path_461" data-name="Path 461" class="cls-7" d="M919.927,390.167s7.1-.683,7.735-.172,4.665,3.13,7.052,1.479.8-7.4.8-7.623-.225-8.36-.225-8.36l-4.269-5.745-5.345-10.058-10.921-1.08.3,15.974-.056,8.191Z" transform="translate(-548.995 632.588)"/>
    <path id="Path_462" data-name="Path 462" class="cls-8" d="M682.146,250.006s-.565,6.94-4.89,7.052c0,0-1.225-.74-2.872-1.97-3.8-2.843-9.827-8.306-8.161-13.388,2.39-7.28,13.992,6.144,13.992,6.144l.887,1Z" transform="translate(-373.784 716.439)"/>
    <path id="Path_463" data-name="Path 463" class="cls-7" d="M701.372,272.163s-.565,6.94-4.89,7.052c0,0-1.225-.74-2.872-1.97l-.37-.473a5.648,5.648,0,0,0,2.366.636,3.2,3.2,0,0,0,3.091-1.946,24.77,24.77,0,0,0,1.183-2.754,8.123,8.123,0,0,0,.438-1.707Z" transform="translate(-393.01 694.282)"/>
    <path id="Path_464" data-name="Path 464" class="cls-9" d="M700.285,283.351l-.973-1.251-3.284-4.215-1.668-2.154a5.62,5.62,0,0,0,2.367.639,3.2,3.2,0,0,0,3.094-1.949A24.658,24.658,0,0,0,701,271.667c.541-1.535.529-2.325.34-2.591a17.647,17.647,0,0,1,1.878,1.668l.024.024c.192.177.317.3.317.3l.115.231,1.648,3.3.018.139C705.494,275.776,706.05,282.411,700.285,283.351Z" transform="translate(-393.799 695.662)"/>
    <path id="Path_465" data-name="Path 465" class="cls-6" d="M754.207,790.7s-4.777,3.13-7.165,2.662a8.48,8.48,0,0,0-4.836.8,14.394,14.394,0,0,1-6.032,3.925c-3.866,1.307-9.268.8-12.338-.231-1.455-.482-1.571-1.109-.873-1.878a24.3,24.3,0,0,1,4.627-3.127,44.547,44.547,0,0,0,8.132-6.94,2.468,2.468,0,0,1,.74-1.648,8.826,8.826,0,0,0,1.148-1.183c.609-.722,1.183-1.479,1.183-1.479l14.051.456s.24,1.015.426,2.05a7.332,7.332,0,0,1,.2,2.047,1.849,1.849,0,0,0,.4,1.42l.251,2.322Z" transform="translate(-413.649 334.724)"/>
    <path id="Path_466" data-name="Path 466" class="cls-6" d="M895.016,797.157c-.169.68-.373,1.9-.464,2.476-.033.2-.047.314-.047.314s-1.139,2.5-7.451,3.414-6.313-2.106-6.313-2.106.024-.325.065-.813c.109-1.331.337-3.878.5-4.419a20.116,20.116,0,0,0-.169-3.982l-.068-3.39-.047-2.367L891.49,785.2a20.037,20.037,0,0,0,.337,2.331,2.958,2.958,0,0,0,.459,1.183c.568.63.911,3.414.911,3.414S895.238,796.246,895.016,797.157Z" transform="translate(-525.045 332.189)"/>
    <path id="Path_467" data-name="Path 467" class="cls-7" d="M788.572,782.038s.24,1.015.426,2.05c-1.518.278-8.153,1.429-9.812.624a25.951,25.951,0,0,0-5.916-1.423l.068-.231c.609-.722,1.183-1.479,1.183-1.479Z" transform="translate(-449.366 334.738)"/>
    <path id="Path_468" data-name="Path 468" class="cls-7" d="M892.483,787.543c-2.662-.45-8.466.639-10.756,1.106l-.047-2.366,10.466-1.083A20.019,20.019,0,0,0,892.483,787.543Z" transform="translate(-525.707 332.188)"/>
    <path id="Path_469" data-name="Path 469" class="cls-10" d="M819.618,419.606l-.228,8.019s.3,12.229-.568,14.163-.855,9.726-.855,9.726.571,3.7-.056,4.49-.172,3.757.3,5.292.053,5.348.053,5.348l-.112,21.5s-.624,5.573-1.423,6.372a1.864,1.864,0,0,0-.453,1.819,19.181,19.181,0,0,0-.512,3.754,1.883,1.883,0,0,1-.8,2.5c-1.307.624-.97,2.618-.97,2.618-3.127-.74-12,1.254-12,1.254a51.878,51.878,0,0,1-2.505-6.088,3.141,3.141,0,0,1,2.275-4.141c1.192-.16-.852-2.278-.852-2.278s.228-.3-.34-2.331.112-7.283.3-8.647,1.023-7.963,1.023-7.963-.453-8.36-.112-8.7,1.479-3.641.911-4.733-1.479-8.191-1.479-8.579-.74-9.614-.74-9.614a77.608,77.608,0,0,1-.512-7.792,51.028,51.028,0,0,0-.456-6.425c0-4.212-2.443-8.762-2.443-8.762l-.062.163-5.286,13.9s-.852,4.206-1.594,6.6a43.228,43.228,0,0,0-1.109,4.937l-.05.3c-.021.127-.039.237-.05.319l-.036.231h0s.4,3.014-.228,3.982a14.224,14.224,0,0,0-1.334,4.674c0,.808.053,3.872.053,3.872s.231,6.085-.4,6.768a1.074,1.074,0,0,0-.3,1.251s1.026,4.606.571,5.8a11.967,11.967,0,0,0-.112,3.979s-.9,8.8-1,9.259-.739,3.982-.059,4.266a9.171,9.171,0,0,1,1.991,1.991s.3,7.451-.737,8.019-.459,3.47-.459,3.47-8.244,1.594-10.123.683a25.985,25.985,0,0,0-5.916-1.423l.565-1.87c-.033.065-.408.672-.677-1.657-.3-2.446,2.106-1.251,2.106-1.251s1.875.456-1.142-2.5-1.535-5.972-1.364-5.972a38.2,38.2,0,0,0,.568-4.378A14.554,14.554,0,0,0,771,481.15c-.4-2.047-.737-8.419-.737-8.419s.3-4.834-.228-6.6.34-4.949.512-5.691-.512-7.508-.512-7.508a20.934,20.934,0,0,0,.228-5.514c-.343-2.331.343-10.921.343-10.921l1.023-9.9a21,21,0,0,0,.624-4.322,35.2,35.2,0,0,1,.852-5.62,6.189,6.189,0,0,1,.456-2.73c.568-1.136.8-4.89.8-4.89l5.461-12.516,2.662-11.034,36.119-.34s.133.955.349,2.695.529,4.316.887,7.493c.313,2.887.657,6.283.994,10.058C821.893,417.444,819.618,419.606,819.618,419.606Z" transform="translate(-446.923 613.899)"/>
    <path id="Path_470" data-name="Path 470" class="cls-8" d="M881.1,142.812l-8.422,8.99s-10.8-4.325-9.667-5.8c.441-.574.37-2.367.115-4.372-.4-3.147-1.251-6.777-1.251-6.777s18.882-3.071,17.287.112a5.165,5.165,0,0,0-.118,3.778,14.2,14.2,0,0,0,2.056,4.073Z" transform="translate(-511.764 791.096)"/>
    <path id="Path_471" data-name="Path 471" class="cls-7" d="M879.167,134.962c-.592,1.166-.858,1.278-.494,2.532-2.47,2.662-5.62,5.546-9.513,5.546a13.469,13.469,0,0,1-6.029-1.414c-.4-3.147-1.251-6.777-1.251-6.777S880.762,131.779,879.167,134.962Z" transform="translate(-511.764 791.096)"/>
    <path id="Path_472" data-name="Path 472" class="cls-8" d="M867.792,86.333a13.539,13.539,0,1,1-27.077,0c0-.065,0-.13,0-.2a13.537,13.537,0,0,1,27.073.2Z" transform="translate(-496.86 833.924)"/>
    <path id="Path_473" data-name="Path 473" class="cls-7" d="M848.233,402.87c-1.793.015-7.765.065-14.439.172h-.08l-2.207.035h-.068c-7.913.127-15.711-1.42-18.84-1.124-6.656.624,2.387-6.144,2.387-6.144a55.622,55.622,0,0,0,15.16,1.532l1.914-.1c6.049-.343,12.128-.911,15.3-1.864C847.583,397.137,847.89,399.7,848.233,402.87Z" transform="translate(-475.34 606.695)"/>
    <path id="Path_474" data-name="Path 474" class="cls-11" d="M848.233,401.713c-1.793,0-7.765.065-14.439.169h-.08l-2.207.038h-.068c-7.913.127-15.711-1.42-18.84-1.127-6.656.624,2.387-6.141,2.387-6.141a55.758,55.758,0,0,0,15.16,1.532l1.914-.1c6.049-.34,12.128-.911,15.3-1.864C847.583,395.977,847.89,398.536,848.233,401.713Z" transform="translate(-475.34 607.512)"/>
    <path id="Path_475" data-name="Path 475" class="cls-7" d="M830.041,172.757l-10.466,4.893L811.5,240.1s4.777-2.159,7.508-.8,11.146.115,11.146.115,6.144-.343,7.055.34,11.6-2.843,11.6-2.843,1.935-4.325.455-5.005.456-7.4.456-7.4l-.911-45.049-1.819-5.8L842.1,170.71l-5.011,3.982-2.366.34Z" transform="translate(-476.287 764.905)"/>
    <path id="Path_476" data-name="Path 476" class="cls-9" d="M830.041,170.44l-10.466,4.893L811.5,237.79s4.777-2.162,7.508-.8,11.146.112,11.146.112,6.144-.34,7.055.34,11.6-2.843,11.6-2.843,1.935-4.322.455-5.005.456-7.4.456-7.4l-.911-45.055-1.819-5.8L842.1,168.39l-5.011,3.985-2.366.337Z" transform="translate(-476.287 766.539)"/>
    <path id="Path_477" data-name="Path 477" class="cls-7" d="M854.242,182.94s3.014,3.582,2.958,4.322-.169,2.5-.169,2.5l-2.278,4.609s-1.251,5.745-1.251,6.94-1.991,11.537-1.991,11.537l-2.387,15.926-3.014,20.875,3.071,5.289,3.641-3.07,4.834-37.2,1.023-7.336s1.08-13.2,1.08-14.56a46.625,46.625,0,0,0-.624-4.949s.74-3.414,3.81-4.209-.228-.172-.228-.172l-1.775-1.423-1.535.627S855.153,181.349,854.242,182.94Z" transform="translate(-500.659 756.941)"/>
    <path id="Path_478" data-name="Path 478" class="cls-10" d="M853.12,181.817s3.014,3.582,2.958,4.322-.172,2.5-.172,2.5l-2.275,4.609s-1.237,5.739-1.237,6.931-1.991,11.537-1.991,11.537l-2.4,15.95-3,20.861,3.073,5.292,3.624-3.079,4.839-37.192,1.023-7.336s1.08-13.2,1.08-14.563a46.516,46.516,0,0,0-.624-4.949s.74-3.411,3.81-4.209-.228-.169-.228-.169l-1.775-1.423-1.512.621S854.031,180.217,853.12,181.817Z" transform="translate(-499.878 757.73)"/>
    <path id="Path_479" data-name="Path 479" class="cls-7" d="M860.3,163.79s-.455.34-.568,2.615a45.5,45.5,0,0,1-1.707,7.4s5.916-4.1,8.874-3.641Z" transform="translate(-509.053 769.778)"/>
    <path id="Path_480" data-name="Path 480" class="cls-9" d="M860.3,161.48s-.455.34-.568,2.618a45.419,45.419,0,0,1-1.707,7.4s5.916-4.094,8.874-3.639Z" transform="translate(-509.053 771.405)"/>
    <path id="Path_481" data-name="Path 481" class="cls-7" d="M898.12,157.63l-9.33,8.191s7.851,4.665,8.874,5.8,2.047-11.149,2.047-11.149Z" transform="translate(-530.714 774.116)"/>
    <path id="Path_482" data-name="Path 482" class="cls-9" d="M899.312,155.33,890,163.515s7.848,4.662,8.874,5.8,2.05-11.149,2.05-11.149Z" transform="translate(-531.566 775.736)"/>
    <path id="Path_483" data-name="Path 483" class="cls-7" d="M802.226,163.586s-1.023-.512-1.991.967a6.416,6.416,0,0,1-2.787,2.159s-10.353,1.651-10.75,3.014l-4.834.3s-1.707.225-1.878,3.81-1.092,3.917-1.092,3.917-1.991,3.526-1.822,5.345a2.99,2.99,0,0,1-1.535,2.73l7.1,18.485s.228,7.623-1.083,10.41-3.754,15.131-3.754,15.131,1.026-.228.967.453-1.251,8.135-1.251,8.135a16.387,16.387,0,0,1-.908,3.982c-.568,1.023-.627,6.372-.627,6.372l-.911,3.866s2.162,4.837,5.461,4.141,9.309-13.578,9.309-13.578l3.81-13.936,2.958-13.764.852-9.327,1.367-20.648,1.991-13.652S803.024,164.554,802.226,163.586Z" transform="translate(-450.634 769.982)"/>
    <path id="Path_484" data-name="Path 484" class="cls-6" d="M801.132,161.276s-1.023-.512-1.991.967a6.435,6.435,0,0,1-2.787,2.162S786,166.054,785.6,167.42l-4.837.3s-1.707.228-1.875,3.81-1.083,3.925-1.083,3.925-1.991,3.526-1.819,5.345a2.984,2.984,0,0,1-1.535,2.73l7.1,18.485s.228,7.623-1.08,10.41-3.754,15.131-3.754,15.131,1.023-.228.967.456-1.251,8.132-1.251,8.132a16.286,16.286,0,0,1-.911,3.982c-.571,1.024-.624,6.372-.624,6.372l-.9,3.854s2.162,4.837,5.461,4.141,9.271-13.593,9.271-13.593l3.813-13.936,2.958-13.767.855-9.327,1.364-20.648,1.991-13.652S801.928,162.244,801.132,161.276Z" transform="translate(-449.88 771.609)"/>
    <path id="Path_485" data-name="Path 485" class="cls-7" d="M708.582,285.252l-3.3,2.278a39,39,0,0,1-8.65-.728l-1.834-.816-.37-.16.379.118a7.509,7.509,0,0,0,4.553.163c4.668-1.571,4.141-9.28,3.973-11.025-.018-.175-.03-.3-.038-.331a.1.1,0,0,1,0-.021l.027.044a2.087,2.087,0,0,0,.216.3c.065.074.133.151.207.222h0l1.648,3.3.018.139Z" transform="translate(-393.848 691.656)"/>
    <path id="Path_486" data-name="Path 486" class="cls-6" d="M720.8,235.12l-1.591.456-.228,3.254a2.174,2.174,0,0,0-2.39,1.935,7.815,7.815,0,0,1-1.42,3.254s-3.13,2.618-3.3,4.834l-1.932,1.183s-4.5-1.047-5.517-2.855c0,0,2.047,14.675-8.874,11.09,0,0,12.229,5.348,12.8,6.088a7.167,7.167,0,0,0,7.735,1.08,8.23,8.23,0,0,0,4.153-4.618s3.3-4.609,3.414-5.292,2.662-1.479,2.662-1.479l4.893-11.832Z" transform="translate(-394.637 719.548)"/>
    <path id="Path_487" data-name="Path 487" class="cls-7" d="M913.171,162.838l1.648-7.508s.74,2.446,1.479,3.014l2.446,1.875a14.214,14.214,0,0,0,3.3,1.139c.852,0,5.461,1.183,6.029,1.819s2.846.172,2.846.172,1.875.624,3.526,1.023,2.446,3.13,2.1,4.209a3.281,3.281,0,0,0,.8,3.071,7.358,7.358,0,0,1,1.023,2.9A3.328,3.328,0,0,1,940.3,176.2a11.42,11.42,0,0,1,.4,3.982l-8.475,11.945a34.678,34.678,0,0,1-.228,5.62c-.34,1.012,1.183,18.429,1.183,18.429l1.775,29.918a31.659,31.659,0,0,1-2.843,2.219c-.512.228-1.026-10.581-1.026-10.978s-13.137-19.68-13.137-19.68-1.775-2.846-1.775-3.47-1.651-6.372-1.651-6.372l-2.5-11.09Z" transform="translate(-547.072 775.736)"/>
    <path id="Path_488" data-name="Path 488" class="cls-6" d="M943.051,179.484c0,.39-.021.651-.021.651l-8.469,11.936h0a34.291,34.291,0,0,1-.225,5.62c-.2.592.237,6.715.639,11.741.3,3.63.556,6.688.556,6.688l.748,12.69,1.012,17.228a31.659,31.659,0,0,1-2.843,2.219c-.512.228-1.023-10.581-1.023-10.981s-13.14-19.677-13.14-19.677-1.775-2.846-1.775-3.47-1.648-6.372-1.648-6.372l-2.5-11.093,1.136-33.9.967-7.508a16.4,16.4,0,0,0,2.162,3.011c.74.565,2.443,1.878,2.443,1.878a14.2,14.2,0,0,0,3.3,1.139c.855,0,5.461,1.183,6.029,1.819s2.846.172,2.846.172,1.875.624,3.523,1.023,2.446,3.13,2.106,4.206a3.281,3.281,0,0,0,.8,3.073,7.3,7.3,0,0,1,1.023,2.9,3.34,3.34,0,0,1,1.935,1.654A9.31,9.31,0,0,1,943.051,179.484Z" transform="translate(-548.72 775.785)"/>
    <path id="Path_489" data-name="Path 489" class="cls-7" d="M776.31,749.48c.3,0,12.229.456,12,2.39S776.31,749.48,776.31,749.48Z" transform="translate(-451.507 357.342)"/>
    <path id="Path_490" data-name="Path 490" class="cls-7" d="M785.35,760.44s8.019,1.307,5.916,2.5S785.35,760.44,785.35,760.44Z" transform="translate(-457.873 349.624)"/>
    <path id="Path_491" data-name="Path 491" class="cls-7" d="M886.1,745.25s13.312,1.139,11.321,2.615-6.712,1.707-6.94,1.775A61.3,61.3,0,0,1,886.1,745.25Z" transform="translate(-528.82 360.321)"/>
    <path id="Path_492" data-name="Path 492" class="cls-7" d="M880.72,765.06s7.4,1.251,7.62,2.662S880.72,765.06,880.72,765.06Z" transform="translate(-525.031 346.371)"/>
    <path id="Path_493" data-name="Path 493" class="cls-7" d="M894.56,649.3s6.768,1.591,7.168,2.662Z" transform="translate(-534.777 427.888)"/>
    <path id="Path_494" data-name="Path 494" class="cls-7" d="M802.489,665.84s-3.526,1.023-.112,3.07S802.489,665.84,802.489,665.84Z" transform="translate(-468.814 416.24)"/>
    <path id="Path_495" data-name="Path 495" class="cls-7" d="M859.18,477.79c.4,0,6.6-2.047,8.759-1.136a14.382,14.382,0,0,0,4.836.908Z" transform="translate(-509.863 549.628)"/>
    <path id="Path_496" data-name="Path 496" class="cls-7" d="M842.712,495.592l-.062.562-5.286,13.9s-.852,4.206-1.594,6.6a43.215,43.215,0,0,0-1.109,4.937l4.695-29.111Z" transform="translate(-492.596 538.319)"/>
    <path id="Path_497" data-name="Path 497" class="cls-10" d="M881.307,406.318l-2.207.038h-.068l-1.293-5.733c.636-.033,1.272-.065,1.914-.1Z" transform="translate(-522.933 603.076)"/>
    <path id="Path_498" data-name="Path 498" class="cls-8" d="M925.974,383.651l-1.417,1.165-4.733,3.893s-12.8,6.827-16.326.343c-3.109-5.712,11.4-9.791,14.9-10.682.476-.121.745-.18.745-.18Z" transform="translate(-540.766 618.8)"/>
    <path id="Path_499" data-name="Path 499" class="cls-7" d="M795.73,207.63s2.5,1.136,3.07,2.73S795.73,207.63,795.73,207.63Z" transform="translate(-465.182 738.907)"/>
    <path id="Path_500" data-name="Path 500" class="cls-7" d="M763.591,265.31s-3.641,4.437-2.162,6.144S763.591,265.31,763.591,265.31Z" transform="translate(-440.779 698.289)"/>
    <path id="Path_501" data-name="Path 501" class="cls-7" d="M981.156,216.09s-3.414.34-3.526,3.3Z" transform="translate(-593.274 732.949)"/>
    <path id="Path_502" data-name="Path 502" class="cls-7" d="M882.64,347.609c.34-.34,8.191-11.945,10.01-10.921Z" transform="translate(-526.383 648.071)"/>
    <path id="Path_503" data-name="Path 503" class="cls-7" d="M867.8,86.3a13.49,13.49,0,0,1-1.6,6.39l-.1-.018c-.858-.18-1.3-1.183-1.961-1.8a2.662,2.662,0,0,0-3.071-.432,3.124,3.124,0,0,0-1.509,2.92c-.432-1.822-.3-3.76-.719-5.585s-1.7-3.671-3.44-3.7c-.751,0-1.63.278-2.171-.3-.328-.34-.4-.887-.642-1.287-1.245-2.017-5.029-1-6.585.035-1.5.994-3.349,2.686-5.274,3.573a13.537,13.537,0,1,1,27.073.2Z" transform="translate(-496.871 833.952)"/>
    <path id="Path_504" data-name="Path 504" class="cls-12" d="M844.406,64.812c.248.411.314.95.642,1.287.541.562,1.42.275,2.171.3,1.742.03,3.017,1.878,3.44,3.7s.3,3.76.719,5.582a3.118,3.118,0,0,1,1.512-2.917,2.662,2.662,0,0,1,3.068.429c.657.624,1.1,1.624,1.961,1.8s1.686-.642,1.994-1.547a23.712,23.712,0,0,0,.491-2.834c.388-1.775,1.544-3.227,2.186-4.913a8.91,8.91,0,0,0-.059-6.354c-.426-1.068-1.062-2.029-1.479-3.1-.657-1.621-.828-3.449-1.624-4.993a5.894,5.894,0,0,0-7.085-2.908c-1.237.464-2.31,1.364-3.565,1.775-1.683.538-3.479.133-5.221-.109s-3.662-.266-5.061.887c-1.609,1.316-2.05,3.792-3.55,5.239-.636.606-1.426.994-2.1,1.556a2.905,2.905,0,0,0-1.183,2.31c.1,1.183,1.254,2.248.828,3.34a2.7,2.7,0,0,1-.63.831,11.85,11.85,0,0,0-2.754,4.686c3.044.95,6.339-2.4,8.721-3.99C839.372,63.818,843.161,62.809,844.406,64.812Z" transform="translate(-488.688 851.298)"/>
    <path id="Path_505" data-name="Path 505" class="cls-7" d="M961.962,383.651l-1.417,1.165c-1.248-2.071-6.375-6.233-6.375-6.233l.222-.213c.476-.121.745-.18.745-.18Z" transform="translate(-576.754 618.8)"/>
    <path id="Path_506" data-name="Path 506" class="cls-9" d="M964.145,377.221s-.509,1.266-1.035,2.366-1.1,2.088-1.127,1.281c-.056-1.594-6.653-6.943-6.653-6.943l.887-.87,1.038-1.006Z" transform="translate(-577.571 623.124)"/>
    <path id="Path_507" data-name="Path 507" class="cls-7" d="M964.5,345.148l.748,12.69c-1.775-2.748-6.617-9.791-9.738-9.564l7.567-8.7a10.17,10.17,0,0,0,.867-1.115C964.234,342.09,964.5,345.148,964.5,345.148Z" transform="translate(-577.697 646.778)"/>
    <path id="Path_508" data-name="Path 508" class="cls-7" d="M966.272,377.221s-.509,1.266-1.035,2.367c-1.982-2.719-4.709-5.931-6.886-6.532l1.038-1.006Z" transform="translate(-579.697 623.124)"/>
    <path id="Path_509" data-name="Path 509" class="cls-6" d="M970.777,234l2.047,1.591s3.411.059,3.754,2.9,3.47,4.141,3.47,4.141,2.331,2.331,2.331,3.411,1.775,3.017,1.775,3.186,1.707,3.641,1.479,4.266,1.819,3.357,1.183,4.381a25.072,25.072,0,0,0-1.367,2.843s-2.662,5.121-4.038,6.088-7.62,9.1-7.62,9.1-6.712,7.735-6.712,10.126c0,0-6.543-10.921-10.41-10.649l7.564-8.7s1.31-1.42,1.367-2.275,3.639-4.777,5.345-4.949c0,0,.3-2.331-.456-2.387s-1.364-1.878-1.364-1.878-5.005-5.916-5.061-9.67S970.777,234,970.777,234Z" transform="translate(-578.514 720.337)"/>
    <path id="Path_510" data-name="Path 510" class="cls-7" d="M1005.27,252.24s-4.78,3.526-3.754,4.662S1005.27,252.24,1005.27,252.24Z" transform="translate(-609.993 707.493)"/>
    <path id="Path_511" data-name="Path 511" class="cls-7" d="M1015.32,298.452s8.875-2.843,9.782,0Z" transform="translate(-619.815 675.84)"/>
    <path id="Path_512" data-name="Path 512" class="cls-7" d="M754.207,810.417s-4.777,3.13-7.165,2.662a8.48,8.48,0,0,0-4.836.8,14.4,14.4,0,0,1-6.032,3.925c-3.866,1.307-9.268.8-12.338-.231-1.455-.482-1.571-1.109-.873-1.878,3.34.666,10.8,1.988,12.815,1.026a53.106,53.106,0,0,0,6.369-3.982s4.9-.683,5.576-.683a60.953,60.953,0,0,0,6.4-2.455Z" transform="translate(-413.649 315.006)"/>
    <path id="Path_513" data-name="Path 513" class="cls-7" d="M894.531,834c-.033.2-.047.314-.047.314s-1.139,2.5-7.451,3.414-6.313-2.106-6.313-2.106.024-.325.065-.814C882.782,835.562,887.142,836.411,894.531,834Z" transform="translate(-525.031 297.824)"/>
    <path id="Path_514" data-name="Path 514" class="cls-7" d="M800.33,249.93s0,12.968-1.109,14.249S800.33,249.93,800.33,249.93Z" transform="translate(-467.422 709.119)"/>
    <path id="Path_515" data-name="Path 515" class="cls-7" d="M977.05,264.06,978.7,268.7S979.354,264.146,977.05,264.06Z" transform="translate(-592.866 699.169)"/>
    <g id="Group_202" data-name="Group 202" class="cls-13" transform="translate(340.41 910.261)">
      <path id="Path_516" data-name="Path 516" d="M838.7,88.254c.417-1.068-.674-2.112-.816-3.254a2.141,2.141,0,0,0-.183,1.029,19.164,19.164,0,0,0,.887,2.464,1.363,1.363,0,0,0,.112-.24Z" transform="translate(-835.142 -85)"/>
      <path id="Path_517" data-name="Path 517" d="M851.5,109.008c-.408-1.8-.3-3.695-.7-5.487s-1.7-3.674-3.437-3.7c-.751,0-1.63.275-2.174-.3-.325-.337-.393-.887-.639-1.287-1.245-2.017-5.029-.994-6.588.038-2.328,1.547-5.523,4.78-8.5,4.047-.145.346-.278.7-.388,1.053,3.044.95,6.339-2.4,8.721-3.99,1.553-1.032,5.342-2.071,6.588-.038.248.411.314.95.642,1.287.541.562,1.42.275,2.171.3,1.742.03,3.017,1.878,3.44,3.7s.3,3.76.719,5.582A3.072,3.072,0,0,1,851.5,109.008Z" transform="translate(-829.07 -93.505)"/>
      <path id="Path_518" data-name="Path 518" d="M913.5,127.832c-.3.905-1.121,1.733-2,1.547s-1.3-1.183-1.958-1.8a2.662,2.662,0,0,0-3.071-.429,3.1,3.1,0,0,0-1.509,2.757,2.958,2.958,0,0,1,1.34-1.648,2.662,2.662,0,0,1,3.068.429c.657.624,1.1,1.624,1.961,1.8s1.686-.642,1.994-1.547a7.741,7.741,0,0,0,.314-1.633A4.578,4.578,0,0,1,913.5,127.832Z" transform="translate(-882.514 -114.464)"/>
      <path id="Path_519" data-name="Path 519" d="M937.269,101.007c-.639,1.686-1.8,3.142-2.183,4.916-.077.358-.121.725-.166,1.092.391-1.775,1.541-3.218,2.18-4.9a8.782,8.782,0,0,0,.527-2.366A8.642,8.642,0,0,1,937.269,101.007Z" transform="translate(-903.608 -95.387)"/>
    </g>
    <rect id="Rectangle_177" data-name="Rectangle 177" class="cls-14" width="0.26" height="2.136" rx="0.13" transform="matrix(0.893, -0.45, 0.45, 0.893, 296.503, 958.357)"/>
    <rect id="Rectangle_178" data-name="Rectangle 178" class="cls-14" width="0.145" height="0.704" rx="0.072" transform="translate(288.055 960.707) rotate(-26.74)"/>
    <rect id="Rectangle_179" data-name="Rectangle 179" class="cls-14" width="0.163" height="1.225" rx="0.081" transform="matrix(0.893, -0.45, 0.45, 0.893, 288.634, 961.889)"/>
    <rect id="Rectangle_180" data-name="Rectangle 180" class="cls-14" width="0.157" height="1.234" rx="0.078" transform="matrix(0.893, -0.45, 0.45, 0.893, 289.378, 963.365)"/>
    <rect id="Rectangle_182" data-name="Rectangle 182" class="cls-15" width="1.21" height="0.246" rx="0.123" transform="matrix(0.893, -0.45, 0.45, 0.893, 290.449, 957.521)"/>
    <circle id="Ellipse_47" data-name="Ellipse 47" class="cls-15" cx="0.139" cy="0.139" r="0.139" transform="translate(291.731 956.786)"/>
    <path id="Path_521" data-name="Path 521" class="cls-1" d="M176.305,69.611s28.735-1.733,25.348,18.4a4.917,4.917,0,0,1-2.553,5.174s-.05-1.479-2.958-.985a13.379,13.379,0,0,1-3.124.148,6.472,6.472,0,0,1-3.816-1.574h0s-8.064-3.328-11.208-16.539c0,0-2.322-2.881-2.23-3.621l4.848,2.071s-1.657,3.5-.352,6.407c0,0,.157-6.28,1.089-6.132.189.033,2.52,1.213,2.52,1.213s-2.852,6.094-.7,10.522c0,0-.816-7.508,1.591-10.081l3.414,1.994S184.839,82.9,187.1,88.04c0,0-.592-7.877,1.775-10.945l3.094,2.411s-3.13,6.212-1.222,10.463c0,0,.248-9.17,1.89-9.862,0,0,2.707,2.387,3.121,3.366,0,0-2.145,4.5-.813,6.881,0,0,.813-6.109,1.479-6.138,0,0,2.7,4.05,2.979,6.821a14.732,14.732,0,0,0-2.325-7.209,8.178,8.178,0,0,1,4.141,2.139s-.42-2.863-4.8-3.112c0,0-2.227-3.071-2.825-3.254,0,0,4.351-.364,6.99.8,0,0-2.322-2.7-7.786-1.479l-3.053-2.491s5.727-.787,8.156.08c0,0-2.8-2.387-8.981-.648l-3.331-1.985s4.884-1.053,7.795-.671c0,0-3.07-1.657-8.768.139l-2.366-1.068s3.579-.7,4.626-.813,1.1-.4,1.1-.4a12.424,12.424,0,0,0-6.721.748S176.219,69.927,176.305,69.611Z" transform="translate(-28.607 836.124)"/>
    <path id="Path_522" data-name="Path 522" class="cls-1" d="M231.413,251.76s12.983-.784,11.454,8.315a2.233,2.233,0,0,1-1.154,2.337s-.024-.674-1.331-.447a5.866,5.866,0,0,1-1.411.068,2.932,2.932,0,0,1-1.725-.71h0s-3.65-1.509-5.07-7.475c0,0-1.05-1.3-1.009-1.633l2.192.935a3.927,3.927,0,0,0-.16,2.893s.071-2.837.491-2.769c.086.015,1.139.547,1.139.547s-1.287,2.754-.317,4.754c0,0-.367-3.39.719-4.556l1.544.9s-1.518,2.843-.494,5.18c0,0-.263-3.55.808-4.946l1.4,1.089s-1.414,2.8-.553,4.733c0,0,.112-4.141.855-4.458a8.59,8.59,0,0,1,1.411,1.52s-.97,2.035-.37,3.109c0,0,.37-2.76.671-2.772a9.168,9.168,0,0,1,1.346,3.082,6.634,6.634,0,0,0-1.05-3.254,3.674,3.674,0,0,1,1.864.967s-.189-1.293-2.165-1.405a8.776,8.776,0,0,0-1.275-1.479,7.98,7.98,0,0,1,3.156.364s-1.047-1.219-3.517-.666l-1.381-1.127a11.428,11.428,0,0,1,3.686.038s-1.263-1.08-4.056-.3l-1.5-.887a13.469,13.469,0,0,1,3.52-.3,5.4,5.4,0,0,0-3.961.062L234.093,253s1.615-.319,2.091-.37.5-.18.5-.18a5.6,5.6,0,0,0-3.035.337A13.564,13.564,0,0,1,231.413,251.76Z" transform="translate(-67.623 707.843)"/>
    <path id="Path_523" data-name="Path 523" class="cls-1" d="M80.833,87.36s12.983-.781,11.454,8.315a2.236,2.236,0,0,1-1.154,2.34s-.024-.674-1.331-.447a6.019,6.019,0,0,1-1.411.068,2.934,2.934,0,0,1-1.725-.713h0s-3.65-1.506-5.07-7.472c0,0-1.05-1.3-1.009-1.636l2.192.935a3.936,3.936,0,0,0-.16,2.9s.071-2.837.491-2.769c.086,0,1.139.547,1.139.547s-1.287,2.754-.317,4.754c0,0-.367-3.393.719-4.556l1.544.887s-1.506,2.846-.485,5.165c0,0-.263-3.55.808-4.943l1.4,1.089s-1.414,2.8-.553,4.733c0,0,.112-4.141.855-4.455a8.591,8.591,0,0,1,1.411,1.52s-.97,2.035-.37,3.109c0,0,.37-2.76.671-2.775a9.2,9.2,0,0,1,1.346,3.082,6.642,6.642,0,0,0-1.05-3.254,3.647,3.647,0,0,1,1.864.967s-.189-1.3-2.165-1.408a8.774,8.774,0,0,0-1.275-1.479,7.98,7.98,0,0,1,3.156.364S90.76,91,88.29,91.561l-1.37-1.115a11.34,11.34,0,0,1,3.686.038s-1.263-1.08-4.056-.3l-1.5-.887a13.334,13.334,0,0,1,3.52-.3,5.4,5.4,0,0,0-3.961.062l-1.074-.482s1.618-.317,2.091-.367.5-.18.5-.18a5.6,5.6,0,0,0-3.047.319A13.582,13.582,0,0,1,80.833,87.36Z" transform="translate(38.414 823.611)"/>
    <ellipse id="Ellipse_48" data-name="Ellipse 48" class="cls-3" cx="13.723" cy="2.319" rx="13.723" ry="2.319" transform="translate(398.851 1113.581)"/>
    <path id="Path_524" data-name="Path 524" class="cls-3" d="M1062.036,752.29a3.949,3.949,0,0,0,1.31-1.976,1.75,1.75,0,0,0-.914-2.011,2.578,2.578,0,0,0-2.417.849,3.245,3.245,0,0,1-2.352,1.136,3.576,3.576,0,0,0,1.106-3.349,1.379,1.379,0,0,0-.3-.68c-.464-.5-1.31-.3-1.869.106-1.775,1.248-2.269,3.659-2.278,5.83a10.857,10.857,0,0,1-.032-2.4,2.49,2.49,0,0,0-.887-2.124,2.735,2.735,0,0,0-1.375-.322,2.843,2.843,0,0,0-2.23.633,2.214,2.214,0,0,0,.089,2.739,8.587,8.587,0,0,0,2.307,1.849,5.121,5.121,0,0,1,1.651,1.574,1.549,1.549,0,0,1,.121.3h5A14.042,14.042,0,0,0,1062.036,752.29Z" transform="translate(-643.789 359.818)"/>
    <ellipse id="Ellipse_49" data-name="Ellipse 49" class="cls-3" cx="10.77" cy="1.822" rx="10.77" ry="1.822" transform="translate(125.385 1131.67)"/>
    <path id="Path_525" data-name="Path 525" class="cls-3" d="M129.875,817.748a3.136,3.136,0,0,0,1.029-1.55,1.383,1.383,0,0,0-.719-1.58,2.014,2.014,0,0,0-1.9.666,2.524,2.524,0,0,1-1.846.887,2.807,2.807,0,0,0,.87-2.627,1.1,1.1,0,0,0-.243-.535c-.367-.391-1.029-.222-1.479.086-1.393.979-1.775,2.872-1.79,4.576a8.9,8.9,0,0,1-.027-1.884,1.938,1.938,0,0,0-.707-1.668,2.14,2.14,0,0,0-1.08-.254,2.243,2.243,0,0,0-1.751.5,1.745,1.745,0,0,0,.068,2.151,6.8,6.8,0,0,0,1.813,1.452,4.014,4.014,0,0,1,1.3,1.237,1.48,1.48,0,0,1,.1.219h3.925a10.908,10.908,0,0,0,2.438-1.671Z" transform="translate(10.733 312.766)"/>
    <ellipse id="Ellipse_50" data-name="Ellipse 50" class="cls-3" cx="10.77" cy="1.822" rx="10.77" ry="1.822" transform="translate(152.537 1117.995)"/>
    <path id="Path_526" data-name="Path 526" class="cls-3" d="M221.7,771.519a3.13,3.13,0,0,0,1.026-1.55,1.375,1.375,0,0,0-.719-1.577c-.657-.254-1.361.2-1.9.666a2.523,2.523,0,0,1-1.843.887,2.81,2.81,0,0,0,.867-2.63,1.086,1.086,0,0,0-.243-.532c-.364-.393-1.026-.225-1.464.083-1.393.982-1.775,2.872-1.79,4.576a8.528,8.528,0,0,1-.027-1.884,1.942,1.942,0,0,0-.707-1.668,2.115,2.115,0,0,0-1.08-.251,2.225,2.225,0,0,0-1.751.5,1.741,1.741,0,0,0,.068,2.151,6.8,6.8,0,0,0,1.813,1.452,4.034,4.034,0,0,1,1.3,1.234,1.165,1.165,0,0,1,.095.222h3.925A10.905,10.905,0,0,0,221.7,771.519Z" transform="translate(-53.937 345.319)"/>
    <path id="Path_527" data-name="Path 527" class="cls-16" d="M627.6,262.4v32.7a3.275,3.275,0,0,1-3.281,3.281H620.8V259.12h3.523A3.275,3.275,0,0,1,627.6,262.4Z" transform="translate(-341.998 702.648)"/>
    <path id="Path_528" data-name="Path 528" class="cls-17" d="M632.07,259.182v39.13a3.3,3.3,0,0,1-.642.062h-.538V259.12h.538A3.3,3.3,0,0,1,632.07,259.182Z" transform="translate(-349.104 702.648)"/>
    <rect id="Rectangle_183" data-name="Rectangle 183" class="cls-18" width="12.702" height="101.848" transform="translate(257.349 1012.686)"/>
    <rect id="Rectangle_184" data-name="Rectangle 184" class="cls-16" width="20.201" height="2.837" transform="translate(252.871 1125.408)"/>
    <rect id="Rectangle_185" data-name="Rectangle 185" class="cls-7" width="20.201" height="1.591" transform="translate(252.871 1125.408)"/>
    <rect id="Rectangle_186" data-name="Rectangle 186" class="cls-7" width="12.702" height="2.012" transform="translate(257.349 1112.519)"/>
    <path id="Path_529" data-name="Path 529" class="cls-18" d="M408.87,726.54h29.084a12.04,12.04,0,0,1,12.039,12.04v1.852H396.83V738.58A12.04,12.04,0,0,1,408.87,726.54Z" transform="translate(-160.442 386.397)"/>
    <rect id="Rectangle_187" data-name="Rectangle 187" class="cls-7" width="12.702" height="12.217" transform="translate(257.349 1026.708)"/>
    <rect id="Rectangle_188" data-name="Rectangle 188" class="cls-7" width="12.702" height="12.217" transform="translate(257.349 1025.876)"/>
    <rect id="Rectangle_189" data-name="Rectangle 189" class="cls-18" width="15.202" height="12.217" transform="translate(256.172 1026.29)"/>
    <path id="Path_530" data-name="Path 530" class="cls-16" d="M551.564,394v5.07a4.757,4.757,0,0,1-4.757,4.757H529.947a4.757,4.757,0,0,1-4.757-4.757V394a4.754,4.754,0,0,1,4.757-4.751h16.861A4.754,4.754,0,0,1,551.564,394Z" transform="translate(-274.671 611.012)"/>
    <path id="Path_531" data-name="Path 531" class="cls-7" d="M551.543,394v.518a16.592,16.592,0,0,1-26.383,0V394a4.754,4.754,0,0,1,4.757-4.751h16.861A4.754,4.754,0,0,1,551.543,394Z" transform="translate(-274.65 611.012)"/>
    <path id="Path_532" data-name="Path 532" class="cls-16" d="M434.42,202h30.5a1.34,1.34,0,0,1,1.34,1.34V241.5a14.379,14.379,0,0,1-14.379,14.379h-4.422A14.379,14.379,0,0,1,433.08,241.5V203.34A1.34,1.34,0,0,1,434.42,202Z" transform="translate(-185.969 755.772)"/>
    <path id="Path_533" data-name="Path 533" class="cls-16" d="M444.516,135.363h19.228a5.106,5.106,0,0,1,5.106,5.106V155.1a1.84,1.84,0,0,1-1.84,1.84H441.25a1.84,1.84,0,0,1-1.84-1.84V140.466a5.106,5.106,0,0,1,5.106-5.106Z" transform="translate(-190.426 802.699)"/>
    <rect id="Rectangle_190" data-name="Rectangle 190" class="cls-17" width="23.047" height="1.526" transform="translate(252.457 953.195)"/>
    <rect id="Rectangle_191" data-name="Rectangle 191" class="cls-7" width="26.378" height="19.142" transform="translate(250.513 962.67)"/>
    <rect id="Rectangle_192" data-name="Rectangle 192" class="cls-3" width="26.378" height="19.142" transform="translate(250.513 962.253)"/>
    <g id="Group_203" data-name="Group 203" class="cls-13" transform="translate(250.661 984.676)">
      <rect id="Rectangle_193" data-name="Rectangle 193" width="5.934" height="2.118" rx="0.79"/>
      <rect id="Rectangle_194" data-name="Rectangle 194" width="5.934" height="2.118" rx="0.79" transform="translate(6.715)"/>
      <rect id="Rectangle_195" data-name="Rectangle 195" width="5.934" height="2.118" rx="0.79" transform="translate(13.43)"/>
      <rect id="Rectangle_196" data-name="Rectangle 196" width="5.934" height="2.118" rx="0.79" transform="translate(20.148)"/>
      <rect id="Rectangle_197" data-name="Rectangle 197" width="5.934" height="2.118" rx="0.79" transform="translate(0 4.147)"/>
      <rect id="Rectangle_198" data-name="Rectangle 198" width="5.934" height="2.118" rx="0.79" transform="translate(6.715 4.147)"/>
      <rect id="Rectangle_199" data-name="Rectangle 199" width="5.934" height="2.118" rx="0.79" transform="translate(13.43 4.147)"/>
      <rect id="Rectangle_200" data-name="Rectangle 200" width="5.934" height="2.118" rx="0.79" transform="translate(0 8.191)"/>
      <rect id="Rectangle_201" data-name="Rectangle 201" width="5.934" height="2.118" rx="0.79" transform="translate(6.715 8.191)"/>
      <rect id="Rectangle_202" data-name="Rectangle 202" width="5.934" height="2.118" rx="0.79" transform="translate(13.43 8.191)"/>
      <rect id="Rectangle_203" data-name="Rectangle 203" width="5.934" height="2.118" rx="0.79" transform="translate(0 12.652)"/>
      <rect id="Rectangle_204" data-name="Rectangle 204" width="5.934" height="2.118" rx="0.79" transform="translate(6.715 12.652)"/>
      <rect id="Rectangle_205" data-name="Rectangle 205" width="5.934" height="2.118" rx="0.79" transform="translate(13.43 12.652)"/>
      <rect id="Rectangle_206" data-name="Rectangle 206" width="5.934" height="2.118" rx="0.79" transform="translate(20.148 4.147)"/>
      <rect id="Rectangle_207" data-name="Rectangle 207" width="5.26" height="7.549" rx="1.97" transform="translate(20.512 7.963)"/>
    </g>
    <rect id="Rectangle_208" data-name="Rectangle 208" class="cls-19" width="5.934" height="2.118" rx="0.79" transform="translate(250.661 984.258)"/>
    <rect id="Rectangle_209" data-name="Rectangle 209" class="cls-19" width="5.934" height="2.118" rx="0.79" transform="translate(257.376 984.258)"/>
    <rect id="Rectangle_210" data-name="Rectangle 210" class="cls-19" width="5.934" height="2.118" rx="0.79" transform="translate(264.091 984.258)"/>
    <rect id="Rectangle_211" data-name="Rectangle 211" class="cls-20" width="5.934" height="2.118" rx="0.79" transform="translate(270.809 984.258)"/>
    <rect id="Rectangle_212" data-name="Rectangle 212" class="cls-19" width="5.934" height="2.118" rx="0.79" transform="translate(250.661 988.406)"/>
    <rect id="Rectangle_213" data-name="Rectangle 213" class="cls-19" width="5.934" height="2.118" rx="0.79" transform="translate(257.376 988.406)"/>
    <rect id="Rectangle_214" data-name="Rectangle 214" class="cls-19" width="5.934" height="2.118" rx="0.79" transform="translate(264.091 988.406)"/>
    <rect id="Rectangle_215" data-name="Rectangle 215" class="cls-19" width="5.934" height="2.118" rx="0.79" transform="translate(250.661 992.45)"/>
    <rect id="Rectangle_216" data-name="Rectangle 216" class="cls-19" width="5.934" height="2.118" rx="0.79" transform="translate(257.376 992.45)"/>
    <rect id="Rectangle_217" data-name="Rectangle 217" class="cls-19" width="5.934" height="2.118" rx="0.79" transform="translate(264.091 992.45)"/>
    <rect id="Rectangle_218" data-name="Rectangle 218" class="cls-19" width="5.934" height="2.118" rx="0.79" transform="translate(250.661 996.91)"/>
    <rect id="Rectangle_219" data-name="Rectangle 219" class="cls-19" width="5.934" height="2.118" rx="0.79" transform="translate(257.376 996.91)"/>
    <rect id="Rectangle_220" data-name="Rectangle 220" class="cls-19" width="5.934" height="2.118" rx="0.79" transform="translate(264.091 996.91)"/>
    <rect id="Rectangle_221" data-name="Rectangle 221" class="cls-21" width="5.934" height="2.118" rx="0.79" transform="translate(270.809 988.406)"/>
    <rect id="Rectangle_222" data-name="Rectangle 222" class="cls-22" width="5.26" height="7.549" rx="1.97" transform="translate(271.173 992.225)"/>
    <path id="Path_534" data-name="Path 534" class="cls-23" d="M442.22,351" transform="translate(-216.245 637.947)"/>
    <rect id="Rectangle_223" data-name="Rectangle 223" class="cls-16" width="2.843" height="0.34" transform="translate(263.665 979.07)"/>
    <rect id="Rectangle_224" data-name="Rectangle 224" class="cls-16" width="2.843" height="0.34" transform="translate(267.646 979.07)"/>
    <rect id="Rectangle_225" data-name="Rectangle 225" class="cls-16" width="2.843" height="0.34" transform="translate(271.628 979.07)"/>
    <g id="Group_263" data-name="Group 263" transform="matrix(-0.469, -0.883, 0.883, -0.469, -7422.47, 4723.235)">
      <rect id="Rectangle_422" data-name="Rectangle 422" class="cls-3" width="18.314" height="11.367" rx="1" transform="translate(-312.312 8573.537)"/>
      <rect id="Rectangle_423" data-name="Rectangle 423" class="cls-24" width="18.314" height="2.084" transform="translate(-312.312 8575.525)"/>
      <ellipse id="Ellipse_174" data-name="Ellipse 174" class="cls-24" cx="1.453" cy="1.453" rx="1.453" ry="1.453" transform="translate(-310.796 8581.241)"/>
      <rect id="Rectangle_424" data-name="Rectangle 424" class="cls-25" width="14.841" height="1.01" transform="translate(-310.575 8578.914)"/>
    </g>
  </g>
</svg>
