<svg xmlns="http://www.w3.org/2000/svg" xmlns:xlink="http://www.w3.org/1999/xlink" viewBox="0 0 287.489 175.856">
  <defs>
    <style>
      .cls-1 {
        fill: #aa8c8c;
        font-size: 16px;
      }

      .cls-1, .cls-2 {
        font-family: Roboto-Light, Roboto;
        font-weight: 300;
      }

      .cls-2 {
        fill: #483d3d;
        font-size: 19px;
      }

      .cls-3 {
        fill: #fff;
      }

      .cls-4 {
        fill: #4ccccc;
      }

      .cls-5 {
        fill: none;
        stroke: #707070;
      }

      .cls-6 {
        fill: #fcbc25;
      }

      .cls-7 {
        filter: url(#Path_95);
      }

      .cls-8 {
        filter: url(#Rectangle_129);
      }

      .cls-9 {
        filter: url(#Rectangle_130);
      }
    </style>
    <filter id="Rectangle_130" x="0" y="4.278" width="287.489" height="171.578" filterUnits="userSpaceOnUse">
      <feOffset dx="2" dy="5" input="SourceAlpha"/>
      <feGaussianBlur stdDeviation="7.5" result="blur"/>
      <feFlood flood-opacity="0.161"/>
      <feComposite operator="in" in2="blur"/>
      <feComposite in="SourceGraphic"/>
    </filter>
    <filter id="Rectangle_129" x="39.944" y="0" width="82.711" height="82.711" filterUnits="userSpaceOnUse">
      <feOffset dy="5" input="SourceAlpha"/>
      <feGaussianBlur stdDeviation="3" result="blur-2"/>
      <feFlood flood-opacity="0.161"/>
      <feComposite operator="in" in2="blur-2"/>
      <feComposite in="SourceGraphic"/>
    </filter>
    <filter id="Path_95" x="51.478" y="9.044" width="60.578" height="60.578" filterUnits="userSpaceOnUse">
      <feOffset dy="3" input="SourceAlpha"/>
      <feGaussianBlur stdDeviation="3" result="blur-3"/>
      <feFlood flood-opacity="0.161"/>
      <feComposite operator="in" in2="blur-3"/>
      <feComposite in="SourceGraphic"/>
    </filter>
  </defs>
  <g id="con-oil" transform="translate(-166.522 -69.956)">
    <g id="Group_178" data-name="Group 178" transform="translate(342.045 100.267)">
      <text id="Price_oil" data-name="Price oil" class="cls-1" transform="translate(0 15)"><tspan x="0" y="0">Price oil</tspan></text>
    </g>
    <g id="Group_179" data-name="Group 179" transform="translate(309.333 126.578)">
      <text id="_21000đ_lit" data-name="21000đ/lit" class="cls-2" transform="translate(0 18)"><tspan x="0" y="0">21000đ/lit</tspan></text>
    </g>
    <g class="cls-9" transform="matrix(1, 0, 0, 1, 166.52, 69.96)">
      <rect id="Rectangle_130-2" data-name="Rectangle 130" class="cls-3" width="242.489" height="126.578" rx="3" transform="translate(20.5 21.78)"/>
    </g>
    <g class="cls-8" transform="matrix(1, 0, 0, 1, 166.52, 69.96)">
      <rect id="Rectangle_129-2" data-name="Rectangle 129" class="cls-4" width="64.711" height="64.711" rx="3" transform="translate(48.94 4)"/>
    </g>
    <line id="Line_76" data-name="Line 76" class="cls-5" x2="186.311" transform="translate(211.111 182.6)"/>
    <g id="Group_189" data-name="Group 189" transform="translate(315.911 100.267)">
      <text id="Price_Oil-2" data-name="Price Oil" class="cls-1" transform="translate(24 15)"><tspan x="0" y="0">Price Oil</tspan></text>
    </g>
    <g id="dollar-coin-money" transform="translate(227 85)">
      <g class="cls-7" transform="matrix(1, 0, 0, 1, -60.48, -15.04)">
        <path id="Path_95-2" data-name="Path 95" class="cls-6" d="M21.289,0A21.289,21.289,0,1,0,42.578,21.289,21.29,21.29,0,0,0,21.289,0Zm5.806,29.509a6.763,6.763,0,0,1-4.537,2.074v3.012H20.036v-3q-4.947-.507-6.125-5.748l3.9-1.016q.542,3.294,3.586,3.293a2.777,2.777,0,0,0,2.1-.7,2.381,2.381,0,0,0,.67-1.7,1.875,1.875,0,0,0-.67-1.564A12.117,12.117,0,0,0,20.509,22.8a17.555,17.555,0,0,1-3.248-1.427,5.365,5.365,0,0,1-1.9-1.97,5.844,5.844,0,0,1-.73-2.957,6.557,6.557,0,0,1,1.3-3.981,5.829,5.829,0,0,1,4.1-2.16V7.983h2.521v2.326a6.1,6.1,0,0,1,5.47,4.782l-3.472,1.424q-1.017-2.931-3.142-2.931a2.293,2.293,0,0,0-1.713.655,2.177,2.177,0,0,0-.647,1.588,1.779,1.779,0,0,0,.624,1.461,10.713,10.713,0,0,0,2.666,1.258,23.663,23.663,0,0,1,3.521,1.549,5.534,5.534,0,0,1,2.04,2.014,5.794,5.794,0,0,1,.761,3A6.356,6.356,0,0,1,27.095,29.509Z" transform="translate(60.48 15.04)"/>
      </g>
    </g>
  </g>
</svg>
