<svg xmlns="http://www.w3.org/2000/svg" xmlns:xlink="http://www.w3.org/1999/xlink" viewBox="0 0 358 338.048">
  <defs>
    <style>
      .cls-1 {
        fill: #9de9ec;
      }

      .cls-2 {
        fill: url(#linear-gradient);
      }

      .cls-3 {
        fill: #4ccccc;
      }

      .cls-4 {
        fill: #fcbc25;
      }

      .cls-5 {
        fill: #fff;
        font-size: 21px;
        font-family: Roboto-Light, Roboto;
        font-weight: 300;
      }

      .cls-6 {
        filter: url(#Path_95);
      }

      .cls-7 {
        filter: url(#Rectangle_129);
      }

      .cls-8 {
        filter: url(#Rectangle_136);
      }
    </style>
    <filter id="Rectangle_136" x="0" y="0" width="358" height="338.048" filterUnits="userSpaceOnUse">
      <feOffset dx="5" dy="5" input="SourceAlpha"/>
      <feGaussianBlur stdDeviation="4" result="blur"/>
      <feFlood flood-opacity="0.161"/>
      <feComposite operator="in" in2="blur"/>
      <feComposite in="SourceGraphic"/>
    </filter>
    <linearGradient id="linear-gradient" x1="0.013" y1="0.05" x2="1" y2="1" gradientUnits="objectBoundingBox">
      <stop offset="0" stop-color="#ff4df3"/>
      <stop offset="1" stop-color="#a244c4"/>
    </linearGradient>
    <filter id="Rectangle_129" x="247.467" y="19.956" width="65.044" height="65.044" filterUnits="userSpaceOnUse">
      <feOffset dy="5" input="SourceAlpha"/>
      <feGaussianBlur stdDeviation="3" result="blur-2"/>
      <feFlood flood-opacity="0.161"/>
      <feComposite operator="in" in2="blur-2"/>
      <feComposite in="SourceGraphic"/>
    </filter>
    <filter id="Path_95" x="255.852" y="25.985" width="48.954" height="48.954" filterUnits="userSpaceOnUse">
      <feOffset dy="3" input="SourceAlpha"/>
      <feGaussianBlur stdDeviation="3" result="blur-3"/>
      <feFlood flood-opacity="0.161"/>
      <feComposite operator="in" in2="blur-3"/>
      <feComposite in="SourceGraphic"/>
    </filter>
  </defs>
  <g id="gasPriceChange" transform="translate(-379 -154)">
    <g id="form_edit_price">
      <g class="cls-8" transform="matrix(1, 0, 0, 1, 379, 154)">
        <rect id="Rectangle_136-2" data-name="Rectangle 136" class="cls-1" width="334" height="314.048" rx="7" transform="translate(7 7)"/>
      </g>
      <path id="Rectangle_137" data-name="Rectangle 137" class="cls-2" d="M7,0H327a7,7,0,0,1,7,7V73a0,0,0,0,1,0,0H0a0,0,0,0,1,0,0V7A7,7,0,0,1,7,0Z" transform="translate(386 161)"/>
    </g>
    <g class="cls-7" transform="matrix(1, 0, 0, 1, 379, 154)">
      <rect id="Rectangle_129-2" data-name="Rectangle 129" class="cls-3" width="47.044" height="47.044" rx="3" transform="translate(256.47 23.96)"/>
    </g>
    <g id="dollar-coin-money" transform="translate(643.851 185.985)">
      <g class="cls-6" transform="matrix(1, 0, 0, 1, -264.85, -31.98)">
        <path id="Path_95-2" data-name="Path 95" class="cls-4" d="M15.477,0A15.477,15.477,0,1,0,30.954,15.477,15.478,15.478,0,0,0,15.477,0ZM19.7,21.453a4.917,4.917,0,0,1-3.3,1.508v2.19H14.566V22.972q-3.6-.368-4.453-4.179l2.834-.739a2.464,2.464,0,0,0,2.607,2.394,2.019,2.019,0,0,0,1.525-.512,1.731,1.731,0,0,0,.487-1.237,1.363,1.363,0,0,0-.487-1.137,8.809,8.809,0,0,0-2.169-.982,12.762,12.762,0,0,1-2.362-1.037,3.9,3.9,0,0,1-1.381-1.432,4.249,4.249,0,0,1-.531-2.15,4.767,4.767,0,0,1,.948-2.894,4.238,4.238,0,0,1,2.981-1.57V5.8H16.4V7.495a4.433,4.433,0,0,1,3.977,3.476l-2.524,1.035q-.74-2.131-2.284-2.131a1.667,1.667,0,0,0-1.245.476,1.582,1.582,0,0,0-.47,1.154,1.293,1.293,0,0,0,.453,1.062,7.788,7.788,0,0,0,1.938.914,17.2,17.2,0,0,1,2.56,1.126,4.023,4.023,0,0,1,1.483,1.464,4.212,4.212,0,0,1,.553,2.184A4.621,4.621,0,0,1,19.7,21.453Z" transform="translate(264.85 31.98)"/>
      </g>
    </g>
    <text id="GASOLINE_PRICE" data-name="GASOLINE PRICE" class="cls-5" transform="translate(417 212)"><tspan x="0" y="0">GASOLINE PRICE</tspan></text>
  </g>
</svg>
