<svg xmlns="http://www.w3.org/2000/svg" viewBox="0 0 119.666 119.666">
  <defs>
    <style>
      .cls-1 {
        fill: #fff;
      }
    </style>
  </defs>
  <path id="help" class="cls-1" d="M61.833,2a59.833,59.833,0,1,0,59.833,59.833A59.855,59.855,0,0,0,61.833,2Zm5.983,101.716H55.85V91.75H67.816ZM80.2,57.346l-5.385,5.5c-4.308,4.368-7,7.958-7,16.933H55.85V76.791a24.083,24.083,0,0,1,7-16.933L70.27,52.32a11.7,11.7,0,0,0,3.53-8.436,11.967,11.967,0,1,0-23.933,0H37.9a23.933,23.933,0,1,1,47.867,0A19.039,19.039,0,0,1,80.2,57.346Z" transform="translate(-2 -2)"/>
</svg>
