<svg xmlns="http://www.w3.org/2000/svg" viewBox="0 0 683 428.424">
  <defs>
    <style>
      .cls-1 {
        fill: #99d69f;
      }

      .cls-2 {
        fill: #dd5350;
      }

      .cls-3 {
        fill: #f2dd77;
      }

      .cls-4 {
        fill: #9fdaf4;
      }

      .cls-5 {
        fill: #2b292a;
      }

      .cls-6 {
        fill: #ce4339;
        stroke: #ce4339;
        stroke-miterlimit: 10;
      }
    </style>
  </defs>
  <g id="intro-img" transform="translate(-0.039)">
    <rect id="XMLID_389_" class="cls-1" width="27.012" height="27.012" transform="translate(536.423 219.293)"/>
    <rect id="XMLID_388_" class="cls-1" width="27.012" height="27.012" transform="translate(579.836 219.293)"/>
    <rect id="XMLID_387_" class="cls-1" width="27.012" height="27.012" transform="translate(536.423 259.943)"/>
    <rect id="XMLID_386_" class="cls-1" width="27.012" height="27.012" transform="translate(579.836 259.943)"/>
    <rect id="XMLID_385_" class="cls-2" width="15.186" height="104.562" transform="translate(209.098 103.151)"/>
    <rect id="XMLID_384_" class="cls-3" width="15.186" height="104.562" transform="translate(233.092 103.151)"/>
    <rect id="XMLID_383_" class="cls-4" width="15.186" height="104.562" transform="translate(257.21 103.151)"/>
    <rect id="XMLID_382_" class="cls-1" width="15.186" height="104.562" transform="translate(281.204 103.151)"/>
    <rect id="XMLID_381_" class="cls-3" width="84.521" height="14.191" transform="translate(89.615 192.449)"/>
    <rect id="XMLID_380_" class="cls-3" width="84.521" height="15.311" transform="translate(89.615 220.544)"/>
    <g id="XMLID_376_" transform="translate(8.216 260.512)">
      <g id="XMLID_377_">
        <g id="XMLID_378_">
          <path id="XMLID_379_" class="cls-1" d="M37.593,210.57s-.249-1.245-.747-.747c-.5-.5-.747.871-.747.871-9.46,10.954-61.493,74.812.249,85.268v.249c.124,0,.373-.125.5-.125.249,0,.373.125.622.125v-.249C98.463,283.141,47.054,221.151,37.593,210.57Z" transform="translate(-6.608 -209.706)"/>
        </g>
      </g>
    </g>
    <g id="XMLID_372_" transform="translate(631.578 268.719)">
      <g id="XMLID_373_">
        <g id="XMLID_374_">
          <path id="XMLID_375_" class="cls-1" d="M534.5,217.047s-.249-1.12-.622-.622c-.373-.5-.622.747-.622.747-8.091,9.336-52.53,63.858.249,72.82v.124a.941.941,0,0,0,.5-.124.749.749,0,0,1,.5.124v-.249C586.53,279.162,542.589,226.259,534.5,217.047Z" transform="translate(-508.067 -216.298)"/>
        </g>
      </g>
    </g>
    <path id="XMLID_371_" class="cls-4" d="M399.6,285.713c9.211-19.668,30.622-32.613,58.256-32.613,26.638,0,47.426,13.07,59.625,32.613Z" transform="translate(96.959 61.411)"/>
    <path id="XMLID_370_" class="cls-4" d="M444.106,113.25a14.061,14.061,0,0,0-27.883.622,15.651,15.651,0,0,0-4.108-.622,14.315,14.315,0,0,0,0,28.63h31.369A14.317,14.317,0,0,0,457.8,127.565,14.543,14.543,0,0,0,444.106,113.25Z" transform="translate(96.694 24.503)"/>
    <path id="XMLID_369_" class="cls-4" d="M123.606,47.25a14.061,14.061,0,0,0-27.883.622,15.651,15.651,0,0,0-4.108-.622,14.315,14.315,0,0,0,0,28.63h31.369a14.322,14.322,0,0,0,.622-28.63Z" transform="translate(18.913 8.519)"/>
    <g id="XMLID_367_" transform="translate(360.859 108.586)">
      <path id="XMLID_368_" class="cls-1" d="M299.766,90.252c1.369,2.365,2.739,4.606,4.232,6.971.871,1.494,1.867,2.987,2.739,4.481a7.542,7.542,0,0,1,1.369,2.614c.373,2.987-5.975,1.992-7.593,1.867-2.863,0-5.6-.124-8.465-.124a1.805,1.805,0,0,0,0,3.61c3.236,0,6.6.124,9.834.124,3.859,0,7.842.622,9.585-3.859,1.245-3.112-2.116-6.971-3.61-9.585-1.618-2.739-3.236-5.477-4.979-8.216-1.12-1.743-4.357.124-3.112,2.116Z" transform="translate(-290.275 -87.445)"/>
    </g>
    <g id="XMLID_365_" transform="translate(344.064 89.385)">
      <path id="XMLID_366_" class="cls-1" d="M280.169,88.93c1.369-2.241,2.739-4.481,4.232-6.722.871-1.494,1.743-2.863,2.739-4.357.5-.871,1-2.116,2.116-2.241s1.743,1.12,2.365,1.867c.871,1.369,1.867,2.614,2.739,3.983,1.618,2.241,3.112,4.481,4.73,6.846,1.369,1.867,4.481.124,3.112-1.867-1.743-2.49-3.61-5.1-5.353-7.593-1.992-2.863-3.734-6.722-7.593-6.846-3.734-.124-5.477,4.232-7.1,6.846-1.743,2.739-3.361,5.477-5.1,8.216-1.245,1.992,1.867,3.859,3.112,1.867Z" transform="translate(-276.768 -71.998)"/>
    </g>
    <g id="XMLID_363_" transform="translate(331.757 108.65)">
      <path id="XMLID_364_" class="cls-1" d="M275.622,88.372c-1.618,2.739-3.236,5.477-4.979,8.216-1.743,2.863-4.481,6.1-3.61,9.585,1.12,4.481,6.1,3.859,9.585,3.859,3.236,0,6.6-.124,9.834-.124,2.365,0,2.365-3.734,0-3.61-2.863,0-5.6.124-8.465.124h-4.855c-1.369,0-2.739-.249-2.739-1.992a6.7,6.7,0,0,1,1.245-2.49c1-1.618,1.867-3.112,2.863-4.73,1.369-2.365,2.863-4.606,4.232-6.971,1.369-2.116-1.867-3.859-3.112-1.867Z" transform="translate(-266.866 -87.496)"/>
    </g>
    <g id="XMLID_361_" transform="translate(576.848 34.483)">
      <circle id="XMLID_362_" class="cls-2" cx="22.033" cy="22.033" r="22.033"/>
    </g>
    <g id="XMLID_357_" transform="translate(348.488 293.066)">
      <g id="XMLID_358_">
        <g id="XMLID_359_">
          <path id="XMLID_360_" class="cls-1" d="M293.488,236.285s-.124-.5-.249-.373c-.249-.249-.249.373-.249.373-4.108,4.73-26.39,32.116.125,36.6v.124h.5v-.124C319.629,267.4,297.472,240.891,293.488,236.285Z" transform="translate(-280.327 -235.853)"/>
        </g>
      </g>
    </g>
    <g id="XMLID_350_" transform="translate(330.225 91.118)">
      <g id="XMLID_355_" transform="translate(0 17.025)">
        <path id="XMLID_356_" class="cls-5" d="M286.75,103.786h-17.3c-2.241,0-2.241-2.365-1.245-3.734.871-1.245,1.743-2.49,2.614-3.61,1.494-2.116,2.987-4.108,4.481-6.224.124.871.373,1.743.5,2.614.249,1.12,1.992.622,1.743-.5-.249-1.494-.622-2.987-.871-4.606a.891.891,0,0,0-1.12-.622c-1.743.373-3.361.871-5.1,1.245-1.12.249-.622,1.992.5,1.743.871-.249,1.743-.373,2.614-.622-1.743,2.365-3.361,4.73-5.1,7.1-.747,1-1.369,1.992-2.116,2.863a3.982,3.982,0,0,0,1.618,5.851,9.5,9.5,0,0,0,3.236.249h15.435A.874.874,0,1,0,286.75,103.786Z" transform="translate(-265.648 -87.075)"/>
      </g>
      <g id="XMLID_353_" transform="translate(11.742)">
        <path id="XMLID_354_" class="cls-5" d="M292.656,80.994c1.369,1.867,2.739,3.61,4.108,5.477a22.975,22.975,0,0,1-2.863-.5c-1.12-.124-1.618,1.618-.5,1.743l4.855.747a.891.891,0,0,0,1.12-.622l.747-4.481c.249-1.12-1.618-1.618-1.743-.5-.124.747-.249,1.494-.373,2.365l-4.481-5.975c-1.743-2.365-3.485-5.975-6.846-5.851-2.987.124-4.855,4.232-6.348,6.348-1.743,2.49-3.361,4.979-5.1,7.469-.622,1,.871,1.867,1.618.871l4.108-5.975c.871-1.369,1.867-2.739,2.739-3.983a7.6,7.6,0,0,1,2.241-2.614C288.548,73.774,291.536,79.376,292.656,80.994Z" transform="translate(-275.081 -73.397)"/>
      </g>
      <g id="XMLID_351_" transform="translate(25.552 17.139)">
        <path id="XMLID_352_" class="cls-5" d="M305.625,96.171l-6.348-8.589c-.747-1-2.241,0-1.618.871,1.743,2.365,3.485,4.855,5.353,7.22,1,1.245,1.867,2.614,2.863,3.859.871,1.245,1.743,4.232-.747,4.232H289.318l1.867-1.867c.871-.871-.5-2.116-1.245-1.245l-3.485,3.485a.829.829,0,0,0,0,1.245c1,1.12,2.116,2.241,3.112,3.361.871.871,2.116-.5,1.245-1.245-.622-.622-1.12-1.245-1.743-1.867h14.315a6.049,6.049,0,0,0,3.61-.622C310.853,102.519,307.368,98.536,305.625,96.171Z" transform="translate(-286.175 -87.166)"/>
      </g>
    </g>
    <g id="XMLID_344_" transform="translate(425.855 301.331)">
      <path id="XMLID_345_" d="M471.511,343.677H431.8a1.762,1.762,0,0,1-1.743-1.618,38.232,38.232,0,0,0-4.855-14.066c-5.353-9.087-13.444-13.693-24.4-13.693-11.2,0-19.668,4.606-25.02,13.817a37.3,37.3,0,0,0-4.855,13.942,1.859,1.859,0,0,1-1.743,1.618H344.543a1.532,1.532,0,0,1-1.245-.622,1.872,1.872,0,0,1-.5-1.369c0-.5.871-11.452,7.593-24.4,6.224-11.7,18.8-27.136,43.568-34.481a70.655,70.655,0,0,1,15.186-19.792c10.207-9.336,28.132-20.415,55.891-20.415,24.771,0,46.68,9.585,63.609,27.634a103.545,103.545,0,0,1,26.39,56.887,11.156,11.156,0,0,1,2.987.871A7.623,7.623,0,0,1,563,335.337a7.13,7.13,0,0,1-2.116,5.228c-2.987,2.987-8.091,2.863-8.34,2.863H534.373a1.753,1.753,0,0,1-1.743-1.618,37.93,37.93,0,0,0-4.979-13.817c-5.353-8.962-13.568-13.444-24.4-13.444-11.079,0-19.419,4.606-24.9,13.568a39.529,39.529,0,0,0-4.979,13.817A2.1,2.1,0,0,1,471.511,343.677Zm-38.215-3.61h36.721a43.754,43.754,0,0,1,5.1-13.568c4.232-6.971,12.448-15.311,28.008-15.311,15.186,0,23.4,8.34,27.634,15.311a43.754,43.754,0,0,1,5.1,13.568h16.68c1.12,0,4.232-.373,5.726-1.867a3.463,3.463,0,0,0,1-2.614c0-4.606-5.726-4.73-5.975-4.73a1.859,1.859,0,0,1-1.743-1.618,101.142,101.142,0,0,0-25.643-56.264c-11.2-12.074-31-26.39-60.995-26.39-26.514,0-43.692,10.456-53.277,19.294-10.581,9.585-14.813,19.294-14.813,19.419a1.767,1.767,0,0,1-1.12,1c-19.419,5.477-33.609,16.556-42.2,32.862a65,65,0,0,0-6.971,21.037h21.037a42.512,42.512,0,0,1,5.1-13.817c4.232-7.1,12.448-15.56,28.132-15.56,15.311,0,23.4,8.465,27.51,15.56A40.2,40.2,0,0,1,433.3,340.067Z" transform="translate(-342.8 -242.6)"/>
    </g>
    <g id="XMLID_340_" transform="translate(560.417 377.139)">
      <path id="XMLID_341_" d="M476.543,354.785a25.643,25.643,0,1,1,25.643-25.643A25.686,25.686,0,0,1,476.543,354.785Zm0-47.551a22.033,22.033,0,1,0,22.033,22.033A21.994,21.994,0,0,0,476.543,307.234Z" transform="translate(-450.9 -303.5)"/>
    </g>
    <g id="XMLID_336_" transform="translate(457.831 377.139)">
      <path id="XMLID_337_" d="M393.943,354.785a25.643,25.643,0,1,1,25.643-25.643A25.686,25.686,0,0,1,393.943,354.785Zm0-47.551a22.033,22.033,0,1,0,22.033,22.033A21.994,21.994,0,0,0,393.943,307.234Z" transform="translate(-368.3 -303.5)"/>
    </g>
    <g id="XMLID_332_" transform="translate(487.797 309.659)">
      <path id="XMLID_333_" d="M512.358,285.548H394.352a1.9,1.9,0,0,1-1.494-.871,1.732,1.732,0,0,1-.124-1.743,55.1,55.1,0,0,1,22.9-24.522c10.456-5.975,23.278-9.211,36.97-9.211a72.436,72.436,0,0,1,36.1,9.211,68.712,68.712,0,0,1,25.02,24.273,1.693,1.693,0,0,1,0,1.867A1.349,1.349,0,0,1,512.358,285.548Zm-115.018-3.61H509a65.94,65.94,0,0,0-22.033-20.29,68.127,68.127,0,0,0-34.356-8.714C427.588,252.81,407.049,263.64,397.34,281.938Z" transform="translate(-392.561 -249.2)"/>
    </g>
    <g id="XMLID_328_" transform="translate(70.321 145.484)">
      <path id="XMLID_329_" d="M171.145,341.213H58.243A1.7,1.7,0,0,1,56.5,339.47V119.143a1.7,1.7,0,0,1,1.743-1.743h112.9a1.7,1.7,0,0,1,1.743,1.743V339.47A1.7,1.7,0,0,1,171.145,341.213ZM60.11,337.6H169.4V120.885H60.11Z" transform="translate(-56.5 -117.4)"/>
    </g>
    <g id="XMLID_324_" transform="translate(191.028 83.742)">
      <path id="XMLID_325_" d="M268.345,353.355h-112.9a1.7,1.7,0,0,1-1.743-1.743V69.543a1.7,1.7,0,0,1,1.743-1.743h112.9a1.7,1.7,0,0,1,1.743,1.743V351.487A1.735,1.735,0,0,1,268.345,353.355Zm-111.16-3.61H266.478V71.41H157.185Z" transform="translate(-153.7 -67.8)"/>
    </g>
    <g id="XMLID_322_" transform="translate(85.134 169.331)">
      <path id="XMLID_323_" d="M153.668,138.79H69.645a1.245,1.245,0,1,1,0-2.49h84.148a1.247,1.247,0,0,1,1.245,1.245A1.279,1.279,0,0,1,153.668,138.79Z" transform="translate(-68.4 -136.3)"/>
    </g>
    <g id="XMLID_320_" transform="translate(95.715 285.013)">
      <path id="XMLID_321_" d="M78.145,296.494a1.247,1.247,0,0,1-1.245-1.245v-64.6a1.245,1.245,0,0,1,2.49,0v64.6A1.247,1.247,0,0,1,78.145,296.494Z" transform="translate(-76.9 -229.4)"/>
    </g>
    <g id="XMLID_318_" transform="translate(111.524 285.013)">
      <path id="XMLID_319_" d="M90.845,296.494a1.247,1.247,0,0,1-1.245-1.245v-64.6a1.247,1.247,0,0,1,1.245-1.245,1.339,1.339,0,0,1,1.245,1.245v64.6C92.214,296,91.592,296.494,90.845,296.494Z" transform="translate(-89.6 -229.4)"/>
    </g>
    <g id="XMLID_316_" transform="translate(127.457 285.013)">
      <path id="XMLID_317_" d="M103.645,296.494a1.247,1.247,0,0,1-1.245-1.245v-64.6a1.245,1.245,0,0,1,2.49,0v64.6A1.176,1.176,0,0,1,103.645,296.494Z" transform="translate(-102.4 -229.4)"/>
    </g>
    <g id="XMLID_314_" transform="translate(143.212 285.013)">
      <path id="XMLID_315_" d="M116.445,296.494a1.247,1.247,0,0,1-1.245-1.245v-64.6a1.245,1.245,0,0,1,2.49,0v64.6A1.247,1.247,0,0,1,116.445,296.494Z" transform="translate(-115.2 -229.4)"/>
    </g>
    <g id="XMLID_312_" transform="translate(159.001 285.013)">
      <path id="XMLID_313_" d="M129.145,296.494a1.247,1.247,0,0,1-1.245-1.245v-64.6a1.245,1.245,0,0,1,2.49,0v64.6C130.514,296,129.892,296.494,129.145,296.494Z" transform="translate(-127.9 -229.4)"/>
    </g>
    <g id="XMLID_310_" transform="translate(85.134 272.147)">
      <path id="XMLID_311_" d="M153.668,221.49H69.645a1.245,1.245,0,1,1,0-2.49h84.148a1.247,1.247,0,0,1,1.245,1.245A1.279,1.279,0,0,1,153.668,221.49Z" transform="translate(-68.4 -219)"/>
    </g>
    <g id="XMLID_306_" transform="translate(205.244 99.918)">
      <path id="XMLID_307_" d="M180.162,187.3H166.345a1.247,1.247,0,0,1-1.245-1.245V81.745a1.247,1.247,0,0,1,1.245-1.245h13.817a1.247,1.247,0,0,1,1.245,1.245V186.058A1.247,1.247,0,0,1,180.162,187.3Zm-12.572-2.614h11.2V82.99h-11.2Z" transform="translate(-165.1 -80.5)"/>
    </g>
    <g id="XMLID_302_" transform="translate(229.238 99.918)">
      <path id="XMLID_303_" d="M199.462,187.3H185.645a1.247,1.247,0,0,1-1.245-1.245V81.745a1.247,1.247,0,0,1,1.245-1.245h13.817a1.247,1.247,0,0,1,1.245,1.245V186.058A1.339,1.339,0,0,1,199.462,187.3Zm-12.572-2.614h11.2V82.99h-11.2Z" transform="translate(-184.4 -80.5)"/>
    </g>
    <g id="XMLID_298_" transform="translate(253.107 99.918)">
      <path id="XMLID_299_" d="M218.662,187.3H204.845a1.247,1.247,0,0,1-1.245-1.245V81.745a1.247,1.247,0,0,1,1.245-1.245h13.817a1.247,1.247,0,0,1,1.245,1.245V186.058A1.247,1.247,0,0,1,218.662,187.3Zm-12.448-2.614h11.2V82.99h-11.2Z" transform="translate(-203.6 -80.5)"/>
    </g>
    <g id="XMLID_294_" transform="translate(277.101 99.918)">
      <path id="XMLID_295_" d="M237.962,187.3H224.145a1.247,1.247,0,0,1-1.245-1.245V81.745a1.247,1.247,0,0,1,1.245-1.245h13.817a1.247,1.247,0,0,1,1.245,1.245V186.058A1.339,1.339,0,0,1,237.962,187.3Zm-12.572-2.614h11.2V82.99h-11.2Z" transform="translate(-222.9 -80.5)"/>
    </g>
    <g id="XMLID_290_" transform="translate(205.244 225.516)">
      <path id="XMLID_291_" d="M180.162,197.807H166.345a1.247,1.247,0,0,1-1.245-1.245V182.745a1.247,1.247,0,0,1,1.245-1.245h13.817a1.247,1.247,0,0,1,1.245,1.245v13.817A1.247,1.247,0,0,1,180.162,197.807Zm-12.572-2.49h11.2v-11.2h-11.2Z" transform="translate(-165.1 -181.5)"/>
    </g>
    <g id="XMLID_286_" transform="translate(229.238 225.516)">
      <path id="XMLID_287_" d="M199.462,197.807H185.645a1.247,1.247,0,0,1-1.245-1.245V182.745a1.247,1.247,0,0,1,1.245-1.245h13.817a1.247,1.247,0,0,1,1.245,1.245v13.817A1.339,1.339,0,0,1,199.462,197.807Zm-12.572-2.49h11.2v-11.2h-11.2Z" transform="translate(-184.4 -181.5)"/>
    </g>
    <g id="XMLID_282_" transform="translate(253.107 225.516)">
      <path id="XMLID_283_" d="M218.662,197.807H204.845a1.247,1.247,0,0,1-1.245-1.245V182.745a1.247,1.247,0,0,1,1.245-1.245h13.817a1.247,1.247,0,0,1,1.245,1.245v13.817A1.247,1.247,0,0,1,218.662,197.807Zm-12.448-2.49h11.2v-11.2h-11.2Z" transform="translate(-203.6 -181.5)"/>
    </g>
    <g id="XMLID_278_" transform="translate(277.101 225.516)">
      <path id="XMLID_279_" d="M237.962,197.807H224.145a1.247,1.247,0,0,1-1.245-1.245V182.745a1.247,1.247,0,0,1,1.245-1.245h13.817a1.247,1.247,0,0,1,1.245,1.245v13.817A1.339,1.339,0,0,1,237.962,197.807Zm-12.572-2.49h11.2v-11.2h-11.2Z" transform="translate(-222.9 -181.5)"/>
    </g>
    <g id="XMLID_274_" transform="translate(205.244 247.645)">
      <path id="XMLID_275_" d="M180.162,215.607H166.345a1.247,1.247,0,0,1-1.245-1.245V200.545a1.247,1.247,0,0,1,1.245-1.245h13.817a1.247,1.247,0,0,1,1.245,1.245v13.817A1.176,1.176,0,0,1,180.162,215.607Zm-12.572-2.49h11.2v-11.2h-11.2Z" transform="translate(-165.1 -199.3)"/>
    </g>
    <g id="XMLID_270_" transform="translate(229.238 247.645)">
      <path id="XMLID_271_" d="M199.462,215.607H185.645a1.247,1.247,0,0,1-1.245-1.245V200.545a1.247,1.247,0,0,1,1.245-1.245h13.817a1.247,1.247,0,0,1,1.245,1.245v13.817A1.247,1.247,0,0,1,199.462,215.607Zm-12.572-2.49h11.2v-11.2h-11.2Z" transform="translate(-184.4 -199.3)"/>
    </g>
    <g id="XMLID_266_" transform="translate(253.107 247.645)">
      <path id="XMLID_267_" d="M218.662,215.607H204.845a1.247,1.247,0,0,1-1.245-1.245V200.545a1.247,1.247,0,0,1,1.245-1.245h13.817a1.247,1.247,0,0,1,1.245,1.245v13.817A1.176,1.176,0,0,1,218.662,215.607Zm-12.448-2.49h11.2v-11.2h-11.2Z" transform="translate(-203.6 -199.3)"/>
    </g>
    <g id="XMLID_262_" transform="translate(277.101 247.645)">
      <path id="XMLID_263_" d="M237.962,215.607H224.145a1.247,1.247,0,0,1-1.245-1.245V200.545a1.247,1.247,0,0,1,1.245-1.245h13.817a1.247,1.247,0,0,1,1.245,1.245v13.817A1.247,1.247,0,0,1,237.962,215.607Zm-12.572-2.49h11.2v-11.2h-11.2Z" transform="translate(-222.9 -199.3)"/>
    </g>
    <g id="XMLID_258_" transform="translate(205.244 269.773)">
      <path id="XMLID_259_" d="M180.162,233.407H166.345a1.247,1.247,0,0,1-1.245-1.245V218.345a1.247,1.247,0,0,1,1.245-1.245h13.817a1.247,1.247,0,0,1,1.245,1.245v13.817A1.176,1.176,0,0,1,180.162,233.407Zm-12.572-2.49h11.2v-11.2h-11.2Z" transform="translate(-165.1 -217.1)"/>
    </g>
    <g id="XMLID_254_" transform="translate(229.238 269.773)">
      <path id="XMLID_255_" d="M199.462,233.407H185.645a1.247,1.247,0,0,1-1.245-1.245V218.345a1.247,1.247,0,0,1,1.245-1.245h13.817a1.247,1.247,0,0,1,1.245,1.245v13.817A1.247,1.247,0,0,1,199.462,233.407Zm-12.572-2.49h11.2v-11.2h-11.2Z" transform="translate(-184.4 -217.1)"/>
    </g>
    <g id="XMLID_250_" transform="translate(253.107 269.773)">
      <path id="XMLID_251_" d="M218.662,233.407H204.845a1.247,1.247,0,0,1-1.245-1.245V218.345a1.247,1.247,0,0,1,1.245-1.245h13.817a1.247,1.247,0,0,1,1.245,1.245v13.817A1.176,1.176,0,0,1,218.662,233.407Zm-12.448-2.49h11.2v-11.2h-11.2Z" transform="translate(-203.6 -217.1)"/>
    </g>
    <g id="XMLID_246_" transform="translate(277.101 269.773)">
      <path id="XMLID_247_" d="M237.962,233.407H224.145a1.247,1.247,0,0,1-1.245-1.245V218.345a1.247,1.247,0,0,1,1.245-1.245h13.817a1.247,1.247,0,0,1,1.245,1.245v13.817A1.247,1.247,0,0,1,237.962,233.407Zm-12.572-2.49h11.2v-11.2h-11.2Z" transform="translate(-222.9 -217.1)"/>
    </g>
    <g id="XMLID_242_" transform="translate(323.56 225.405)">
      <path id="XMLID_243_" d="M321.544,311.58H269.885c-7.1,0-9.585-2.49-9.585-9.336V194.2A12.75,12.75,0,0,1,273,181.5h45.559a12.75,12.75,0,0,1,12.7,12.7v108.67C331.253,310.336,328.141,311.58,321.544,311.58ZM273,184.985a9.138,9.138,0,0,0-9.087,9.087V302.12c0,4.979.871,5.851,6.1,5.851h51.659c5.477,0,6.1-.5,6.1-5.1V194.2a9.138,9.138,0,0,0-9.087-9.087H273Z" transform="translate(-260.3 -181.5)"/>
    </g>
    <g id="XMLID_238_" transform="translate(332.648 235.818)">
      <path id="XMLID_239_" d="M311.79,227.393H276.438a8.872,8.872,0,0,1-8.838-8.838V198.638a8.872,8.872,0,0,1,8.838-8.838H311.79a8.872,8.872,0,0,1,8.838,8.838v19.917A8.792,8.792,0,0,1,311.79,227.393ZM276.438,193.41a5.26,5.26,0,0,0-5.228,5.228v19.917a5.26,5.26,0,0,0,5.228,5.228H311.79a5.26,5.26,0,0,0,5.228-5.228V198.638a5.26,5.26,0,0,0-5.228-5.228Z" transform="translate(-267.6 -189.8)"/>
    </g>
    <g id="XMLID_236_" transform="translate(390.793 267.86)">
      <path id="XMLID_237_" d="M331.464,283.068c-4.606,0-7.469-3.361-7.469-9.087V236.886c0-8.091-5.1-9.087-7.842-9.709l-.373-.124a1.782,1.782,0,1,1,.747-3.485l.373.124c2.987.622,10.705,2.241,10.705,13.195v37.095c0,3.61,1.245,5.477,3.859,5.477,1.245,0,3.983,0,3.983-5.726V217.343a1.743,1.743,0,0,1,3.485,0v56.389C339.058,281.947,334.327,283.068,331.464,283.068Z" transform="translate(-314.356 -215.6)"/>
    </g>
    <g id="XMLID_232_" transform="translate(409.011 252.118)">
      <path id="XMLID_233_" d="M336.593,222.319h-5.851A1.7,1.7,0,0,1,329,220.576V204.643a1.7,1.7,0,0,1,1.743-1.743h5.851a1.7,1.7,0,0,1,1.743,1.743v15.933A1.78,1.78,0,0,1,336.593,222.319Zm-4.108-3.61h2.241V206.385h-2.241Z" transform="translate(-329 -202.9)"/>
    </g>
    <g id="XMLID_230_" transform="translate(404.161 241.679)">
      <path id="XMLID_231_" d="M334.56,208.442a1.7,1.7,0,0,1-1.743-1.743v-3.485a5,5,0,0,0-1.369-3.734,6.21,6.21,0,0,0-4.606-1.494,1.743,1.743,0,1,1,0-3.485,9.839,9.839,0,0,1,7.1,2.49,8.756,8.756,0,0,1,2.365,6.224V206.7A1.633,1.633,0,0,1,334.56,208.442Z" transform="translate(-325.1 -194.5)"/>
    </g>
    <g id="XMLID_225_" transform="translate(346.174 293.426)">
      <path id="XMLID_226_" class="cls-5" d="M302.782,251.525a45.008,45.008,0,0,0-9.336-15.062c-.622-.622-1.618.373-1,1a50.438,50.438,0,0,1,5.353,7.1h0l-5.726,5.726V236.837a.685.685,0,0,0-1.369,0v13.319l-5.726-5.726h-.124a50.439,50.439,0,0,1,5.353-7.1c.622-.622-.373-1.618-1-1A46.994,46.994,0,0,0,280,251.152a18.707,18.707,0,0,0-.871,12.2c1.618,4.855,5.851,7.842,10.456,9.709.871.373,1.245-1,.373-1.369-4.357-1.867-8.34-4.73-9.585-9.46a14.219,14.219,0,0,1-.124-6.473l10.581,10.581v6.1a.685.685,0,0,0,1.369,0v-6.1l10.581-10.581a14.946,14.946,0,0,1-.124,6.224c-1.12,4.855-5.353,7.967-9.709,9.709-.871.373-.5,1.743.373,1.369,4.481-1.867,8.589-4.73,10.332-9.46C304.9,259.865,304.151,255.384,302.782,251.525ZM280.5,254.388h0a28.494,28.494,0,0,1,1-3.485,38.674,38.674,0,0,1,2.49-5.1l6.6,6.6v12.2C287.222,261.11,283.861,257.749,280.5,254.388Zm21.535,0-10.083,10.083v-12.2l6.6-6.6a43.466,43.466,0,0,1,2.365,4.855,15.067,15.067,0,0,1,1.12,3.859Z" transform="translate(-278.465 -236.142)"/>
    </g>
    <g id="XMLID_221_" transform="translate(315.468 351.745)">
      <path id="XMLID_222_" d="M333.591,300.9H261.767a8.022,8.022,0,0,1-7.967-7.967v-1.867a8.022,8.022,0,0,1,7.967-7.967h71.824a8.022,8.022,0,0,1,7.967,7.967v1.867A7.942,7.942,0,0,1,333.591,300.9ZM261.767,286.71a4.41,4.41,0,0,0-4.357,4.357v1.867a4.41,4.41,0,0,0,4.357,4.357h71.824a4.41,4.41,0,0,0,4.357-4.357v-1.867a4.41,4.41,0,0,0-4.357-4.357Z" transform="translate(-253.8 -283.1)"/>
    </g>
    <g id="XMLID_213_" transform="translate(0.039 261.52)">
      <g id="XMLID_216_">
        <path id="XMLID_217_" class="cls-5" d="M56.628,246.2a105.056,105.056,0,0,0-21.659-34.979c-1.369-1.618-3.734.747-2.365,2.365a107.558,107.558,0,0,1,12.448,16.431l-.124.124L31.608,243.458v-31.12a1.619,1.619,0,0,0-3.236,0v31L15.052,230.014l-.124-.124a107.559,107.559,0,0,1,12.448-16.431c1.369-1.494-.871-3.859-2.365-2.365A107.673,107.673,0,0,0,3.6,245.574c-3.361,8.962-4.979,19.045-1.992,28.381,3.61,11.2,13.693,18.174,24.149,22.531,1.992.871,2.739-2.365.871-3.112C16.546,289.142,7.335,282.3,4.223,271.341a34.2,34.2,0,0,1-.373-15.062l24.4,24.4v14.066a1.619,1.619,0,0,0,3.236,0V280.677l24.522-24.522a35.273,35.273,0,0,1-.124,14.44c-2.614,11.2-12.323,18.3-22.531,22.531-1.867.747-1.12,3.983.871,3.112,10.456-4.357,19.917-11.079,23.9-22.033C61.608,265.366,59.865,255.159,56.628,246.2Zm-51.659,6.6c-.124-.124-.124-.124-.249-.124a72.373,72.373,0,0,1,2.614-7.842,88.4,88.4,0,0,1,5.851-11.95l15.186,15.186V276.2Zm50.041,0-23.4,23.4V248.064l15.186-15.186a106.23,106.23,0,0,1,5.6,11.328,65.917,65.917,0,0,1,2.863,8.34C55.135,252.67,55.135,252.794,55.01,252.794Z" transform="translate(-0.039 -210.618)"/>
      </g>
      <g id="XMLID_214_" transform="translate(28.048 87.642)">
        <path id="XMLID_215_" class="cls-5" d="M22.607,282.612c.124,7.967-.124,15.809,0,23.775,0,2.116,3.361,2.116,3.236,0-.124-7.967.124-15.809,0-23.775C25.844,280.5,22.483,280.5,22.607,282.612Z" transform="translate(-22.571 -281.025)"/>
      </g>
    </g>
    <g id="XMLID_205_" transform="translate(624.501 269.752)">
      <g id="XMLID_208_">
        <path id="XMLID_209_" class="cls-5" d="M550.827,247.565c-3.859-10.954-10.705-21.41-18.547-29.875-1.245-1.369-3.236.622-1.992,1.992a92.348,92.348,0,0,1,10.581,14.066.122.122,0,0,0-.124.124l-11.452,11.452V218.811a1.37,1.37,0,1,0-2.739,0v26.514L515.226,234l-.124-.124a98.94,98.94,0,0,1,10.581-14.066c1.245-1.369-.747-3.361-1.992-1.992a92.511,92.511,0,0,0-18.3,29.377c-2.863,7.718-4.232,16.307-1.618,24.273,3.112,9.585,11.7,15.56,20.663,19.294,1.618.747,2.365-1.992.747-2.739-8.589-3.61-16.556-9.46-19.045-18.8a27.9,27.9,0,0,1-.249-12.821L526.8,277.316v11.95a1.37,1.37,0,1,0,2.739,0v-11.95L550.453,256.4a29.379,29.379,0,0,1-.124,12.323c-2.241,9.585-10.581,15.684-19.17,19.294-1.618.622-.871,3.361.747,2.739,8.963-3.734,17.054-9.46,20.415-18.8C555.059,264,553.565,255.159,550.827,247.565Zm-44.19,5.6-.124-.125q.934-3.361,2.241-6.722a85.712,85.712,0,0,1,4.979-10.207l12.946,12.946v24.024C519.956,266.486,513.234,259.889,506.637,253.167Zm42.821,0-20.041,20.041V249.184c4.357-4.357,8.714-8.589,12.946-12.946a76.069,76.069,0,0,1,7.22,16.929C549.582,253.043,549.458,253.167,549.458,253.167Z" transform="translate(-502.382 -217.23)"/>
      </g>
      <g id="XMLID_206_" transform="translate(24.011 74.743)">
        <path id="XMLID_207_" class="cls-5" d="M521.707,278.675c.124,6.722-.124,13.568,0,20.29,0,1.743,2.863,1.867,2.739,0-.124-6.722.124-13.568,0-20.29C524.446,276.808,521.583,276.808,521.707,278.675Z" transform="translate(-521.671 -277.275)"/>
      </g>
    </g>
    <g id="XMLID_158_" transform="translate(553.993 13.259)">
      <g id="XMLID_202_" transform="translate(15.858 16.978)">
        <g id="XMLID_203_">
          <path id="XMLID_204_" class="cls-5" d="M504.189,48.551A21.919,21.919,0,0,1,482.53,70.211c-11.95.124-21.41-9.958-21.659-21.659-.124-11.95,9.958-21.41,21.659-21.659,12.074-.124,21.535,9.958,21.659,21.659a1.311,1.311,0,0,0,2.614,0,24.36,24.36,0,0,0-18.3-23.4c-10.705-2.863-22.033,2.614-27.261,12.2-5.353,9.834-2.614,22.157,5.477,29.377a24.078,24.078,0,0,0,39.958-18.174C506.8,46.809,504.313,46.809,504.189,48.551Z" transform="translate(-458.479 -24.389)"/>
        </g>
      </g>
      <g id="XMLID_159_">
        <g id="XMLID_199_" transform="translate(7.615 15.012)">
          <g id="XMLID_200_">
            <path id="XMLID_201_" class="cls-5" d="M452.284,24.914c3.485,2.739,6.971,5.6,10.332,8.34,1.245,1,3.112-.747,1.867-1.867-3.485-2.739-6.971-5.6-10.332-8.34-1.369-.871-3.112.871-1.867,1.867Z" transform="translate(-451.857 -22.81)"/>
          </g>
        </g>
        <g id="XMLID_196_" transform="translate(21.46 3.894)">
          <g id="XMLID_197_">
            <path id="XMLID_198_" class="cls-5" d="M471.345,26.353c-1.992-3.983-3.983-7.842-5.975-11.825-.747-1.494-2.987-.124-2.241,1.245,1.992,3.983,3.983,7.842,5.975,11.825.747,1.494,2.987.124,2.241-1.245Z" transform="translate(-462.979 -13.879)"/>
          </g>
        </g>
        <g id="XMLID_193_" transform="translate(0 45.583)">
          <g id="XMLID_194_" transform="translate(0 0)">
            <path id="XMLID_195_" class="cls-5" d="M447.308,52.885c4.357-1,8.714-1.992,13.195-2.987,1.618-.373.871-2.863-.622-2.49-4.357,1-8.714,1.992-13.195,2.987a1.284,1.284,0,0,0,.622,2.49Z" transform="translate(-445.74 -47.369)"/>
          </g>
        </g>
        <g id="XMLID_190_" transform="translate(0 30.895)">
          <g id="XMLID_191_">
            <path id="XMLID_192_" class="cls-5" d="M460.379,38.595l-13.07-2.987a1.284,1.284,0,0,0-.622,2.49l13.07,2.987a1.284,1.284,0,0,0,.622-2.49Z" transform="translate(-445.74 -35.569)"/>
          </g>
        </g>
        <g id="XMLID_187_" transform="translate(38.788)">
          <g id="XMLID_188_">
            <path id="XMLID_189_" class="cls-5" d="M476.9,12.057V25.874a1.311,1.311,0,0,0,2.614,0V12.057a1.307,1.307,0,1,0-2.614,0Z" transform="translate(-476.9 -10.75)"/>
          </g>
        </g>
        <g id="XMLID_184_" transform="translate(50.339 3.869)">
          <g id="XMLID_185_">
            <path id="XMLID_186_" class="cls-5" d="M488.57,27.6c1.867-3.983,3.734-7.842,5.726-11.825.747-1.494-1.494-2.739-2.241-1.245-1.867,3.983-3.734,7.842-5.726,11.825-.747,1.369,1.494,2.739,2.241,1.245Z" transform="translate(-486.179 -13.858)"/>
          </g>
        </g>
        <g id="XMLID_181_" transform="translate(7.557 56.292)">
          <g id="XMLID_182_">
            <path id="XMLID_183_" class="cls-5" d="M454.038,66.339c3.485-2.739,6.971-5.477,10.332-8.216,1.245-1-.5-2.863-1.867-1.867-3.485,2.739-6.971,5.477-10.332,8.216-1.12,1.12.622,2.987,1.867,1.867Z" transform="translate(-451.811 -55.972)"/>
          </g>
        </g>
        <g id="XMLID_178_" transform="translate(64.356 45.583)">
          <g id="XMLID_179_" transform="translate(0 0)">
            <path id="XMLID_180_" class="cls-5" d="M512.2,50.395c-4.357-1-8.714-1.992-13.195-2.987a1.284,1.284,0,0,0-.622,2.49c4.357,1,8.714,1.992,13.195,2.987,1.494.373,2.241-2.116.622-2.49Z" transform="translate(-497.44 -47.369)"/>
          </g>
        </g>
        <g id="XMLID_175_" transform="translate(58.792 55.841)">
          <g id="XMLID_176_">
            <path id="XMLID_177_" class="cls-5" d="M493.381,57.714c3.61,2.863,7.344,5.851,10.954,8.714,1.245,1,3.112-.747,1.867-1.867-3.61-2.863-7.344-5.851-10.954-8.714-1.245-.871-3.112.871-1.867,1.867Z" transform="translate(-492.97 -55.61)"/>
          </g>
        </g>
        <g id="XMLID_172_" transform="translate(64.392 30.895)">
          <g id="XMLID_173_">
            <path id="XMLID_174_" class="cls-5" d="M499,41.085c4.357-1,8.714-1.992,13.195-2.987,1.618-.373.871-2.863-.622-2.49-4.357,1-8.714,1.992-13.195,2.987-1.618.373-.871,2.863.622,2.49Z" transform="translate(-497.469 -35.569)"/>
          </g>
        </g>
        <g id="XMLID_169_" transform="translate(59.274 15.077)">
          <g id="XMLID_170_">
            <path id="XMLID_171_" class="cls-5" d="M504.24,23.158c-3.485,2.739-6.971,5.6-10.456,8.34-1.245,1,.5,2.863,1.867,1.867,3.485-2.739,6.971-5.6,10.456-8.34,1.245-1.12-.5-2.863-1.867-1.867Z" transform="translate(-493.357 -22.862)"/>
          </g>
        </g>
        <g id="XMLID_166_" transform="translate(50.002 63.121)">
          <g id="XMLID_167_">
            <path id="XMLID_168_" class="cls-5" d="M494.238,74.58c-1.992-4.108-3.983-8.34-5.975-12.448-.747-1.494-2.863-.249-2.241,1.245,1.992,4.108,3.983,8.34,5.975,12.448.747,1.494,2.987.249,2.241-1.245Z" transform="translate(-485.909 -61.458)"/>
          </g>
        </g>
        <g id="XMLID_163_" transform="translate(38.788 65.818)">
          <g id="XMLID_164_">
            <path id="XMLID_165_" class="cls-5" d="M476.9,64.839V78.531a1.311,1.311,0,0,0,2.614,0V64.839c-.125-1.618-2.614-1.618-2.614,0Z" transform="translate(-476.9 -63.625)"/>
          </g>
        </g>
        <g id="XMLID_160_" transform="translate(21.459 63.744)">
          <g id="XMLID_161_">
            <path id="XMLID_162_" class="cls-5" d="M465.37,75.7c1.992-3.983,3.983-7.842,5.975-11.825.747-1.494-1.494-2.739-2.241-1.245-1.992,3.983-3.983,7.842-5.975,11.825-.747,1.494,1.494,2.739,2.241,1.245Z" transform="translate(-462.979 -61.958)"/>
          </g>
        </g>
      </g>
    </g>
    <g id="XMLID_156_" transform="translate(513.986 197.068)">
      <path id="XMLID_157_" d="M519.9,294.257a1.7,1.7,0,0,1-1.743-1.743V162.185H417.085v98.961a1.743,1.743,0,0,1-3.485,0v-100.7a1.7,1.7,0,0,1,1.743-1.743H519.9a1.7,1.7,0,0,1,1.743,1.743V292.515A1.7,1.7,0,0,1,519.9,294.257Z" transform="translate(-413.6 -158.7)"/>
    </g>
    <g id="XMLID_144_" transform="translate(487.777 121.575)">
      <path id="XMLID_145_" d="M439.826,141.966H408.458a16.058,16.058,0,1,1,0-32.116,22.357,22.357,0,0,1,2.739.249,15.756,15.756,0,0,1,15.435-12.2,15.993,15.993,0,0,1,15.435,12.074,15.914,15.914,0,0,1,13.942,15.933A16.285,16.285,0,0,1,439.826,141.966ZM408.458,113.46a12.448,12.448,0,1,0,0,24.9h31.369a12.453,12.453,0,0,0,.5-24.9l-1.494-.124-.249-1.494a12.235,12.235,0,0,0-24.273.5l-.249,2.116-2.116-.622A16.591,16.591,0,0,0,408.458,113.46Z" transform="translate(-392.4 -97.9)"/>
    </g>
    <g id="XMLID_140_" transform="translate(87.499 39.586)">
      <path id="XMLID_141_" d="M117.726,75.966H86.358a16.058,16.058,0,1,1,0-32.116A22.356,22.356,0,0,1,89.1,44.1a15.756,15.756,0,0,1,15.435-12.2,15.993,15.993,0,0,1,15.435,12.074,15.914,15.914,0,0,1,13.942,15.933A16.286,16.286,0,0,1,117.726,75.966ZM86.358,47.46a12.448,12.448,0,1,0,0,24.9h31.369a12.453,12.453,0,0,0,.5-24.9l-1.494-.124-.249-1.494a12.235,12.235,0,0,0-24.273.5l-.249,2.116-2.116-.622A14.963,14.963,0,0,0,86.358,47.46Z" transform="translate(-70.3 -31.9)"/>
    </g>
    <g id="XMLID_136_" transform="translate(531.073 214.069)">
      <path id="XMLID_137_" d="M455.955,202.8H428.943a1.7,1.7,0,0,1-1.743-1.743V174.043a1.7,1.7,0,0,1,1.743-1.743h27.012a1.7,1.7,0,0,1,1.743,1.743v27.012A1.7,1.7,0,0,1,455.955,202.8Zm-25.269-3.485h23.526V175.785H430.685Z" transform="translate(-427.2 -172.3)"/>
    </g>
    <g id="XMLID_132_" transform="translate(573.985 214.069)">
      <path id="XMLID_133_" d="M490.555,202.8H463.543a1.7,1.7,0,0,1-1.743-1.743V174.043a1.7,1.7,0,0,1,1.743-1.743h27.012a1.7,1.7,0,0,1,1.743,1.743v27.012A1.7,1.7,0,0,1,490.555,202.8Zm-25.269-3.485h23.526V175.785H465.285Z" transform="translate(-461.8 -172.3)"/>
    </g>
    <g id="XMLID_128_" transform="translate(531.073 254.595)">
      <path id="XMLID_129_" d="M455.955,235.4H428.943a1.7,1.7,0,0,1-1.743-1.743V206.643a1.7,1.7,0,0,1,1.743-1.743h27.012a1.7,1.7,0,0,1,1.743,1.743v27.012A1.78,1.78,0,0,1,455.955,235.4Zm-25.269-3.61h23.526V208.261H430.685Z" transform="translate(-427.2 -204.9)"/>
    </g>
    <g id="XMLID_124_" transform="translate(573.985 254.595)">
      <path id="XMLID_125_" d="M490.555,235.4H463.543a1.7,1.7,0,0,1-1.743-1.743V206.643a1.7,1.7,0,0,1,1.743-1.743h27.012a1.7,1.7,0,0,1,1.743,1.743v27.012A1.78,1.78,0,0,1,490.555,235.4Zm-25.269-3.61h23.526V208.261H465.285Z" transform="translate(-461.8 -204.9)"/>
    </g>
    <g id="XMLID_98_" transform="translate(356.511 66.847)">
      <g id="XMLID_122_" transform="translate(183.606)">
        <path id="XMLID_123_" class="cls-6" d="M437.263,54.3h-2.614a.249.249,0,0,1,0-.5h2.614a.268.268,0,0,1,.249.249C437.512,54.173,437.512,54.3,437.263,54.3Z" transform="translate(-434.4 -53.8)"/>
      </g>
      <g id="XMLID_103_" transform="translate(7.718)">
        <path id="XMLID_104_" class="cls-6" d="M464.134,54.3h-5.228a.249.249,0,1,1,0-.5h5.228a.249.249,0,1,1,0,.5Zm-10.332,0h-5.228a.249.249,0,1,1,0-.5H453.8a.249.249,0,1,1,0,.5Zm-10.332,0h-5.228a.249.249,0,1,1,0-.5h5.228a.249.249,0,1,1,0,.5Zm-10.332,0h-5.228a.249.249,0,1,1,0-.5h5.228a.249.249,0,1,1,0,.5Zm-10.332,0h-5.228a.249.249,0,1,1,0-.5h5.228a.249.249,0,1,1,0,.5Zm-10.332,0h-5.228a.249.249,0,1,1,0-.5h5.228a.249.249,0,1,1,0,.5Zm-10.456,0h-5.228a.249.249,0,1,1,0-.5h5.228a.268.268,0,0,1,.249.249C402.392,54.173,402.268,54.3,402.019,54.3Zm-10.332,0h-5.228a.249.249,0,1,1,0-.5h5.228a.249.249,0,1,1,0,.5Zm-10.332,0h-5.228a.249.249,0,1,1,0-.5h5.228a.249.249,0,1,1,0,.5Zm-10.332,0H365.8a.249.249,0,1,1,0-.5h5.228a.249.249,0,1,1,0,.5Zm-10.332,0h-5.228a.249.249,0,1,1,0-.5h5.228a.249.249,0,1,1,0,.5Zm-10.332,0h-5.228a.249.249,0,1,1,0-.5h5.228a.249.249,0,1,1,0,.5Zm-10.332,0H334.8a.249.249,0,1,1,0-.5h5.228a.249.249,0,1,1,0,.5Zm-10.456,0h-5.228a.249.249,0,1,1,0-.5h5.228a.268.268,0,0,1,.249.249C329.946,54.173,329.821,54.3,329.572,54.3Zm-10.332,0h-5.1a.249.249,0,1,1,0-.5h5.228a.268.268,0,0,1,.249.249C319.49,54.173,319.365,54.3,319.241,54.3Zm-10.332,0h-5.228a.249.249,0,1,1,0-.5h5.228a.249.249,0,1,1,0,.5Zm-10.332,0h-5.228a.249.249,0,1,1,0-.5h5.228a.249.249,0,1,1,0,.5Z" transform="translate(-293.1 -53.8)"/>
      </g>
      <g id="XMLID_101_">
        <path id="XMLID_102_" class="cls-6" d="M287.149,56.912a.268.268,0,0,1-.249-.249V54.049a.268.268,0,0,1,.249-.249h2.614a.249.249,0,1,1,0,.5h-2.241v2.241C287.4,56.787,287.4,56.912,287.149,56.912Z" transform="translate(-286.9 -53.8)"/>
      </g>
      <g id="XMLID_99_" transform="translate(0 9.087)">
        <path id="XMLID_100_" class="cls-6" d="M287.149,64.212a.268.268,0,0,1-.249-.249V61.349a.249.249,0,0,1,.5,0v2.614C287.4,64.087,287.4,64.212,287.149,64.212Z" transform="translate(-286.9 -61.1)"/>
      </g>
    </g>
    <g id="XMLID_96_" transform="translate(101.939 91.502)">
      <path id="XMLID_97_" d="M83.643,84.53A1.7,1.7,0,0,1,81.9,82.787V75.443a1.743,1.743,0,0,1,3.485,0v7.344A1.633,1.633,0,0,1,83.643,84.53Z" transform="translate(-81.9 -73.7)"/>
    </g>
    <g id="XMLID_94_" transform="translate(101.939 108.532)">
      <path id="XMLID_95_" d="M83.643,106.445A1.7,1.7,0,0,1,81.9,104.7V89.143a1.743,1.743,0,0,1,3.485,0V104.7A1.633,1.633,0,0,1,83.643,106.445Z" transform="translate(-81.9 -87.4)"/>
    </g>
    <g id="XMLID_92_" transform="translate(114.013 116.74)">
      <path id="XMLID_93_" d="M93.343,104.83a1.7,1.7,0,0,1-1.743-1.743V95.743a1.743,1.743,0,1,1,3.485,0v7.344A1.7,1.7,0,0,1,93.343,104.83Z" transform="translate(-91.6 -94)"/>
    </g>
    <g id="XMLID_90_" transform="translate(114.013 91.5)">
      <path id="XMLID_91_" d="M93.343,92.87A1.7,1.7,0,0,1,91.6,91.127V75.443a1.743,1.743,0,0,1,3.485,0V91A1.809,1.809,0,0,1,93.343,92.87Z" transform="translate(-91.6 -73.7)"/>
    </g>
    <g id="XMLID_88_" transform="translate(126.088 91.502)">
      <path id="XMLID_89_" d="M103.043,84.53a1.7,1.7,0,0,1-1.743-1.743V75.443a1.743,1.743,0,0,1,3.485,0v7.344A1.633,1.633,0,0,1,103.043,84.53Z" transform="translate(-101.3 -73.7)"/>
    </g>
    <g id="XMLID_86_" transform="translate(126.088 108.532)">
      <path id="XMLID_87_" d="M103.043,106.445A1.7,1.7,0,0,1,101.3,104.7V89.143a1.743,1.743,0,0,1,3.485,0V104.7A1.633,1.633,0,0,1,103.043,106.445Z" transform="translate(-101.3 -87.4)"/>
    </g>
    <g id="XMLID_84_" transform="translate(137.99 116.74)">
      <path id="XMLID_85_" d="M112.743,104.83A1.7,1.7,0,0,1,111,103.087V95.743a1.743,1.743,0,1,1,3.485,0v7.344A1.7,1.7,0,0,1,112.743,104.83Z" transform="translate(-111 -94)"/>
    </g>
    <g id="XMLID_82_" transform="translate(137.99 91.5)">
      <path id="XMLID_83_" d="M112.743,92.87A1.7,1.7,0,0,1,111,91.127V75.443a1.743,1.743,0,0,1,3.485,0V91A1.809,1.809,0,0,1,112.743,92.87Z" transform="translate(-111 -73.7)"/>
    </g>
    <g id="XMLID_78_" transform="translate(584.441 159.867)">
      <path id="XMLID_79_" d="M504.307,162.807H471.943a1.7,1.7,0,0,1-1.743-1.743V130.443a1.7,1.7,0,0,1,1.743-1.743h32.365a1.7,1.7,0,0,1,1.743,1.743v30.622A1.7,1.7,0,0,1,504.307,162.807Zm-30.622-3.61h28.879V132.185H473.685Z" transform="translate(-470.2 -128.7)"/>
    </g>
    <g id="XMLID_74_" transform="translate(85.383 215.446)">
      <path id="XMLID_75_" d="M153.993,189.707H69.845a1.247,1.247,0,0,1-1.245-1.245V174.645a1.247,1.247,0,0,1,1.245-1.245h84.148a1.247,1.247,0,0,1,1.245,1.245v13.817A1.247,1.247,0,0,1,153.993,189.707Zm-82.9-2.614h81.534v-11.2H71.09Z" transform="translate(-68.6 -173.4)"/>
    </g>
    <g id="XMLID_70_" transform="translate(85.383 187.102)">
      <path id="XMLID_71_" d="M153.993,166.907H69.845a1.247,1.247,0,0,1-1.245-1.245V151.845a1.247,1.247,0,0,1,1.245-1.245h84.148a1.247,1.247,0,0,1,1.245,1.245v13.817A1.176,1.176,0,0,1,153.993,166.907Zm-82.9-2.49h81.534v-11.2H71.09Z" transform="translate(-68.6 -150.6)"/>
    </g>
    <g id="XMLID_6_" transform="translate(123.617 0.5)">
      <g id="XMLID_68_" transform="translate(0 30.622)">
        <rect id="XMLID_69_" class="cls-6" width="0.498" height="2.614"/>
      </g>
      <g id="XMLID_64_" transform="translate(0 8.34)">
        <path id="XMLID_65_" class="cls-6" d="M100.1,23.88h-.5v-5.6h.5Zm0-11.079h-.5V7.2h.5Z" transform="translate(-99.6 -7.2)"/>
      </g>
      <g id="XMLID_62_">
        <path id="XMLID_63_" class="cls-6" d="M100.1,3.363h-.5V.5h2.739V1H100.1Z" transform="translate(-99.6 -0.5)"/>
      </g>
      <g id="XMLID_23_" transform="translate(7.842)">
        <path id="XMLID_24_" class="cls-6" d="M476.847,1h-5.1V.5h5.1ZM466.64,1h-5.1V.5h5.1ZM456.432,1h-5.1V.5h5.1ZM446.35,1h-5.1V.5h5.1ZM436.142,1h-5.1V.5h5.1ZM426.06,1h-5.1V.5h5.1ZM415.852,1h-5.1V.5h5.1ZM405.645,1h-5.1V.5h5.1ZM395.562,1h-5.1V.5h5.1ZM385.355,1h-5.1V.5h5.1ZM375.148,1h-5.1V.5h5.1ZM365.065,1h-5.1V.5h5.1ZM354.858,1h-5.1V.5h5.1ZM344.775,1h-5.1V.5h5.1ZM334.568,1h-5.1V.5h5.1ZM324.36,1h-5.1V.5h5.1ZM314.278,1h-5.1V.5h5.1ZM304.07,1h-5.1V.5h5.1ZM293.863,1h-5.1V.5h5.1ZM283.78,1h-5.1V.5h5.1ZM273.573,1h-5.1V.5h5.1ZM263.366,1h-5.1V.5h5.1ZM253.283,1h-5.1V.5h5.1ZM243.076,1h-5.1V.5h5.1ZM232.993,1h-5.1V.5h5.1ZM222.786,1h-5.1V.5h5.1ZM212.578,1h-5.1V.5h5.1ZM202.5,1h-5.1V.5h5.1ZM192.288,1h-5.1V.5h5.1ZM182.081,1h-5.1V.5h5.1ZM172,1h-5.1V.5H172ZM161.791,1h-5.1V.5h5.1ZM151.584,1h-5.1V.5h5.1ZM141.5,1h-5.1V.5h5.1ZM131.294,1h-5.1V.5h5.1ZM121.211,1h-5.1V.5h5.1ZM111,1h-5.1V.5H111Z" transform="translate(-105.9 -0.5)"/>
      </g>
      <g id="XMLID_21_" transform="translate(383.893)">
        <path id="XMLID_22_" class="cls-6" d="M410.739,3.363h-.5V1H408V.5h2.739Z" transform="translate(-408 -0.5)"/>
      </g>
      <g id="XMLID_9_" transform="translate(386.134 7.842)">
        <path id="XMLID_10_" class="cls-6" d="M410.3,101.279h-.5V96.3h.5Zm0-9.958h-.5V86.342h.5Zm0-9.958h-.5V76.384h.5Zm0-9.958h-.5V66.425h.5Zm0-9.958h-.5V56.467h.5Zm0-9.958h-.5V46.509h.5Zm0-9.958h-.5V36.55h.5Zm0-9.958h-.5V26.592h.5Zm0-9.958h-.5V16.634h.5Zm0-9.834h-.5V6.8h.5Z" transform="translate(-409.8 -6.8)"/>
      </g>
      <g id="XMLID_7_" transform="translate(386.133 107.301)">
        <rect id="XMLID_8_" class="cls-6" width="0.498" height="2.614"/>
      </g>
    </g>
    <g id="XMLID_1_" transform="translate(15.924 384.483)">
      <g id="XMLID_4_" transform="translate(98.214)">
        <path id="XMLID_5_" d="M398.665,309.4H93.443a1.743,1.743,0,1,0,0,3.485H398.665a1.743,1.743,0,1,0,0-3.485Z" transform="translate(-91.7 -309.4)"/>
      </g>
      <g id="XMLID_2_">
        <path id="XMLID_3_" d="M90.724,309.4H14.543a1.743,1.743,0,1,0,0,3.485H90.724a1.743,1.743,0,1,0,0-3.485Z" transform="translate(-12.8 -309.4)"/>
      </g>
    </g>
  </g>
</svg>
