<svg xmlns="http://www.w3.org/2000/svg" viewBox="0 0 78.209 85.319">
  <defs>
    <style>
      .cls-1 {
        fill: #fff;
      }
    </style>
  </defs>
  <path id="location" class="cls-1" d="M78.749,23.05,78.8,23,61.164,5.37l-5.024,5.024,10,10A11.832,11.832,0,0,0,70.359,43.29a12.116,12.116,0,0,0,4.74-1V76.469a4.74,4.74,0,0,1-9.48,0V55.139a9.508,9.508,0,0,0-9.48-9.48H51.4V12.48A9.508,9.508,0,0,0,41.92,3H13.48A9.508,9.508,0,0,0,4,12.48V88.319H51.4V52.769h7.11v23.7a11.85,11.85,0,0,0,23.7,0V31.44A11.859,11.859,0,0,0,78.749,23.05ZM41.92,36.18H13.48V12.48H41.92Zm28.44,0a4.74,4.74,0,1,1,4.74-4.74A4.754,4.754,0,0,1,70.359,36.18Z" transform="translate(-4 -3)"/>
</svg>
