<svg xmlns="http://www.w3.org/2000/svg" xmlns:xlink="http://www.w3.org/1999/xlink" viewBox="0 0 289.102 240.447">
  <defs>
    <style>
      .cls-1, .cls-3 {
        fill: #009688;
      }

      .cls-1, .cls-15, .cls-5 {
        opacity: 0.1;
      }

      .cls-2 {
        fill: #3a3768;
      }

      .cls-4 {
        fill: #e6e8ec;
      }

      .cls-6 {
        fill: #ffd037;
      }

      .cls-7 {
        fill: #a8a8a8;
      }

      .cls-8 {
        opacity: 0.2;
      }

      .cls-9 {
        fill: url(#linear-gradient);
      }

      .cls-10 {
        fill: url(#linear-gradient-2);
      }

      .cls-11 {
        fill: #ffbdc6;
      }

      .cls-12 {
        fill: #474463;
      }

      .cls-13 {
        fill: #f2f1f2;
      }

      .cls-14 {
        fill: #ff748e;
      }

      .cls-16 {
        fill: #fff;
      }

      .cls-17 {
        fill: #3acc6c;
      }
    </style>
    <linearGradient id="linear-gradient" x1="0.505" y1="1.007" x2="0.505" gradientUnits="objectBoundingBox">
      <stop offset="0" stop-color="gray" stop-opacity="0.251"/>
      <stop offset="0.54" stop-color="gray" stop-opacity="0.122"/>
      <stop offset="1" stop-color="gray" stop-opacity="0.102"/>
    </linearGradient>
    <linearGradient id="linear-gradient-2" x1="0.5" y1="1" x2="0.5" y2="0" xlink:href="#linear-gradient"/>
  </defs>
  <g id="safety-acc" transform="translate(0.004 0.002)">
    <path id="Path_543" data-name="Path 543" class="cls-1" d="M263.2,62.08c-18.534-.644-36.186-6.627-53.041-13.173s-33.551-13.8-51.641-17.268c-11.635-2.231-24.943-2.546-34.316,3.691-9.023,6.014-11.939,16.366-13.505,25.982-1.18,7.234-1.873,14.848,1.357,21.618,2.245,4.7,6.226,8.654,8.981,13.159,9.585,15.67,2.809,34.994-7.574,50.295-4.868,7.179-10.524,14.032-14.284,21.667s-5.5,16.395-2.208,24.19c3.259,7.732,11.028,13.528,19.444,17.609,17.093,8.29,37.228,10.661,56.876,12,43.479,2.975,87.188,1.687,130.782.4,16.134-.478,32.337-.962,48.207-3.456,8.814-1.386,17.912-3.582,24.313-8.892,8.121-6.738,10.135-18.147,4.691-26.6-9.129-14.172-34.364-17.692-40.753-32.9-3.511-8.373.095-17.7,5.2-25.464,10.951-16.655,29.3-31.269,30.269-50.306.664-13.076-8.159-26.171-21.8-32.36-14.3-6.483-34.129-5.67-44.674,5.066C298.652,58.395,279.563,62.647,263.2,62.08Z" transform="translate(-95.23 -30.18)"/>
    <ellipse id="Ellipse_57" data-name="Ellipse 57" class="cls-1" cx="87.048" cy="11.775" rx="87.048" ry="11.775" transform="translate(51.406 211.874)"/>
    <rect id="Rectangle_254" data-name="Rectangle 254" class="cls-2" width="2.537" height="20.911" rx="1.269" transform="translate(184.075 82.994)"/>
    <rect id="Rectangle_255" data-name="Rectangle 255" class="cls-2" width="1.423" height="6.884" rx="0.712" transform="translate(99.759 66.611)"/>
    <rect id="Rectangle_256" data-name="Rectangle 256" class="cls-2" width="1.604" height="11.982" rx="0.802" transform="translate(99.708 79.217)"/>
    <rect id="Rectangle_257" data-name="Rectangle 257" class="cls-2" width="1.526" height="12.085" rx="0.763" transform="translate(99.734 95.391)"/>
    <rect id="Rectangle_258" data-name="Rectangle 258" class="cls-2" width="84.88" height="172.506" rx="38.99" transform="translate(100.564 43.862)"/>
    <path id="Path_544" data-name="Path 544" class="cls-3" d="M532.383,199h-9.737v1.171a5.55,5.55,0,0,1-5.553,5.55H486.129a5.55,5.55,0,0,1-5.553-5.55V199h-9.115a6.741,6.741,0,0,0-6.741,6.741V355.79a6.741,6.741,0,0,0,6.741,6.741h60.922a6.741,6.741,0,0,0,6.741-6.741V205.753A6.741,6.741,0,0,0,532.383,199Z" transform="translate(-358.913 -150.657)"/>
    <rect id="Rectangle_259" data-name="Rectangle 259" class="cls-4" width="11.853" height="2.405" rx="1.203" transform="translate(134.817 49.013)"/>
    <circle id="Ellipse_58" data-name="Ellipse 58" class="cls-4" cx="1.366" cy="1.366" r="1.366" transform="translate(148.462 48.85)"/>
    <path id="Path_545" data-name="Path 545" class="cls-3" d="M791.842,156.852s-24.112-1.455-21.271,15.441a4.106,4.106,0,0,0,2.142,4.341s.043-1.251,2.474-.825a11.311,11.311,0,0,0,2.62.126,5.458,5.458,0,0,0,3.2-1.309h0s6.778-2.8,9.413-13.877c0,0,1.95-2.417,1.873-3.038l-4.069,1.738s1.392,2.935.286,5.375c0,0-.132-5.269-.914-5.155-.157.023-2.113,1.017-2.113,1.017s2.391,5.112.587,8.829c0,0,.684-6.3-1.334-8.459l-2.864,1.672s2.795,5.281.9,9.59c0,0,.487-6.609-1.5-9.184l-2.595,2.025s2.626,5.2,1.025,8.777c0,0-.209-7.692-1.586-8.273a15.954,15.954,0,0,0-2.617,2.824s1.8,3.78.682,5.773c0,0-.684-5.126-1.246-5.155,0,0-2.262,3.4-2.5,5.727a12.339,12.339,0,0,1,1.95-6.048,6.818,6.818,0,0,0-3.465,1.793s.352-2.4,4.023-2.612c0,0,1.87-2.577,2.368-2.732,0,0-3.648-.306-5.862.676,0,0,1.947-2.265,6.532-1.234l2.563-2.093s-4.805-.656-6.844.069c0,0,2.345-2,7.534-.544l2.789-1.667a25.589,25.589,0,0,0-6.538-.573s2.577-1.389,7.357.117l2-.9s-3-.59-3.88-.684-.925-.335-.925-.335a10.409,10.409,0,0,1,5.639.627S791.913,157.118,791.842,156.852Z" transform="translate(-577.011 -120.556)"/>
    <path id="Path_546" data-name="Path 546" class="cls-3" d="M734.853,130.655s-10.882-.656-9.611,6.979a1.862,1.862,0,0,0,.968,1.962s.02-.573,1.12-.375a5.015,5.015,0,0,0,1.183.057,2.451,2.451,0,0,0,1.446-.6h0s3.064-1.266,4.255-6.271c0,0,.879-1.091.845-1.372l-1.839.785a3.3,3.3,0,0,1,.135,2.428s-.06-2.38-.412-2.325c-.072,0-.956.461-.956.461s1.082,2.311.266,3.989c0,0,.309-2.846-.6-3.823l-1.294.767s1.263,2.385.407,4.333c0,0,.221-2.987-.679-4.15l-1.171.916s1.186,2.351.464,3.966c0,0-.1-3.477-.719-3.74a7.18,7.18,0,0,0-1.183,1.277s.813,1.718.309,2.609c0,0-.309-2.317-.573-2.328a7.707,7.707,0,0,0-1.128,2.577,5.589,5.589,0,0,1,.882-2.732,3.081,3.081,0,0,0-1.566.81s.16-1.085,1.818-1.18a7.833,7.833,0,0,1,1.071-1.237,6.715,6.715,0,0,0-2.649.306s.879-1.022,2.95-.558l1.146-.945a9.883,9.883,0,0,0-3.093.032s1.06-.9,3.4-.246l1.26-.753a11.476,11.476,0,0,0-2.955-.255,4.539,4.539,0,0,1,3.325.052l.9-.4s-1.357-.266-1.755-.309-.418-.152-.418-.152a4.693,4.693,0,0,1,2.549.286A11.656,11.656,0,0,0,734.853,130.655Z" transform="translate(-544.756 -101.873)"/>
    <ellipse id="Ellipse_59" data-name="Ellipse 59" class="cls-1" cx="7.712" cy="1.303" rx="7.712" ry="1.303" transform="translate(239.757 220.156)"/>
    <ellipse id="Ellipse_60" data-name="Ellipse 60" class="cls-1" cx="7.712" cy="1.303" rx="7.712" ry="1.303" transform="translate(18.37 230.849)"/>
    <ellipse id="Ellipse_61" data-name="Ellipse 61" class="cls-1" cx="7.712" cy="1.303" rx="7.712" ry="1.303" transform="translate(48.202 237.839)"/>
    <ellipse id="Ellipse_62" data-name="Ellipse 62" class="cls-3" cx="11.515" cy="1.947" rx="11.515" ry="1.947" transform="translate(219.072 233.475)"/>
    <path id="Path_547" data-name="Path 547" class="cls-3" d="M890.539,827.934a3.354,3.354,0,0,0,1.1-1.658,1.479,1.479,0,0,0-.767-1.687c-.7-.269-1.458.22-2.027.713a2.708,2.708,0,0,1-1.973.951,3,3,0,0,0,.931-2.809,1.183,1.183,0,0,0-.261-.573c-.389-.418-1.1-.241-1.566.092-1.489,1.045-1.9,3.07-1.913,4.888a9.193,9.193,0,0,1-.029-2,2.071,2.071,0,0,0-.756-1.784,2.273,2.273,0,0,0-1.145-.269,2.385,2.385,0,0,0-1.873.533,1.846,1.846,0,0,0,.074,2.291,7.293,7.293,0,0,0,1.939,1.552,4.3,4.3,0,0,1,1.383,1.32,1.19,1.19,0,0,1,.1.238h4.184A11.755,11.755,0,0,0,890.539,827.934Z" transform="translate(-655.19 -595.696)"/>
    <path id="Path_548" data-name="Path 548" class="cls-3" d="M281.087,753.45s1.575,2.059-.725,5.155-4.2,5.727-3.436,7.666c0,0,3.471-5.77,6.3-5.851S284.195,756.921,281.087,753.45Z" transform="translate(-224.776 -546.329)"/>
    <path id="Path_549" data-name="Path 549" class="cls-5" d="M281.318,753.45a2.529,2.529,0,0,1,.321.647c2.755,3.236,4.224,6.257,1.575,6.332-2.466.072-5.424,4.482-6.134,5.6.023.086.052.169.083.255,0,0,3.471-5.77,6.3-5.85S284.425,756.921,281.318,753.45Z" transform="translate(-225.007 -546.329)"/>
    <path id="Path_550" data-name="Path 550" class="cls-6" d="M301.191,761.454c0,.724-.08,1.312-.18,1.312s-.18-.587-.18-1.312.1-.384.2-.384S301.191,760.73,301.191,761.454Z" transform="translate(-241.955 -551.71)"/>
    <path id="Path_551" data-name="Path 551" class="cls-6" d="M302.509,764.389c-.636.347-1.191.556-1.237.467s.427-.441,1.062-.787.387-.095.432,0S303.145,764.043,302.509,764.389Z" transform="translate(-242.269 -553.781)"/>
    <path id="Path_552" data-name="Path 552" class="cls-3" d="M254.057,753.45s-1.575,2.059.725,5.155,4.2,5.727,3.436,7.666c0,0-3.468-5.77-6.3-5.851S250.944,756.921,254.057,753.45Z" transform="translate(-206.053 -546.329)"/>
    <path id="Path_553" data-name="Path 553" class="cls-5" d="M254.041,753.45a2.577,2.577,0,0,0-.324.647c-2.755,3.236-4.221,6.257-1.575,6.332,2.468.072,5.427,4.482,6.137,5.6a2.226,2.226,0,0,1-.086.255s-3.468-5.77-6.3-5.85S250.928,756.921,254.041,753.45Z" transform="translate(-206.037 -546.329)"/>
    <path id="Path_554" data-name="Path 554" class="cls-6" d="M252.65,761.454c0,.724.083,1.312.183,1.312s.18-.587.18-1.312-.1-.384-.2-.384S252.65,760.73,252.65,761.454Z" transform="translate(-207.573 -551.71)"/>
    <path id="Path_555" data-name="Path 555" class="cls-6" d="M248.184,764.389c.636.347,1.188.556,1.237.467s-.43-.441-1.065-.787-.384-.095-.432,0S247.549,764.043,248.184,764.389Z" transform="translate(-204.109 -553.781)"/>
    <path id="Path_556" data-name="Path 556" class="cls-7" d="M254.4,791.384s4.4-.138,5.727-1.08,6.767-2.073,7.093-.558,6.612,7.529,1.647,7.569-11.541-.773-12.864-1.578S254.4,791.384,254.4,791.384Z" transform="translate(-208.822 -571.704)"/>
    <path id="Path_557" data-name="Path 557" class="cls-8" d="M268.953,802.7c-4.966.04-11.541-.773-12.864-1.578-1.005-.616-1.409-2.818-1.544-3.832H254.4s.286,3.545,1.6,4.353,7.9,1.618,12.864,1.578c1.432,0,1.927-.521,1.9-1.277C270.566,802.407,270.019,802.691,268.953,802.7Z" transform="translate(-208.822 -577.615)"/>
    <path id="Path_558" data-name="Path 558" class="cls-9" d="M377.46,474.88a.263.263,0,0,0,.312.04,1.106,1.106,0,0,1-.312-.04Z" transform="translate(-296.641 -347.533)"/>
    <path id="Path_559" data-name="Path 559" class="cls-10" d="M294.588,233.312c-.6-.178-1.463-.467-2.5-.83a13.41,13.41,0,0,0,2.32-4.734l-.089.034c.029-.106.06-.209.089-.315-1.987.819-4.19-.573-5.59-2.351s-2.354-3.992-3.886-5.633a17.954,17.954,0,0,0-2.059-1.8,2.736,2.736,0,0,0-1.495-.742c-.893-.026-1.6.859-2.457,1.125a3.327,3.327,0,0,1-1.718-.063c-2.225-.518-4.37-1.472-6.629-1.718a7.66,7.66,0,0,0-3.6.41c-1.145.441-1.661,1.314-2.577,2-.994.75-2.973.733-4.144.859a29.675,29.675,0,0,1-4.278.18,9.7,9.7,0,0,0-2.463.092c-1.7.378-3.067,1.747-4.341,3.064a2.291,2.291,0,0,0-.719,1.145,1.521,1.521,0,0,0,0,.378,2.46,2.46,0,0,0,.172,1,13.291,13.291,0,0,0,1.632,3.339,10.01,10.01,0,0,1,1.432,2.36,4.648,4.648,0,0,1,.22,1.36,10.432,10.432,0,0,1-.152,1.463,18.613,18.613,0,0,1-1.1,3.892,7.482,7.482,0,0,0-.644,2.053,3.705,3.705,0,0,0,0,.435c-.086,2.242,2.151,3.86,2.577,6.091a4.064,4.064,0,0,1,.063.558,3.808,3.808,0,0,1-1.982,3.29c.1.04.2.074.306.112a3.224,3.224,0,0,1-.306.172c.209.08.424.149.641.212a15.069,15.069,0,0,0-3.267,4.061c-3.855,7.311-30.126,21.652-30.126,21.652s.149.083.389.226c-.1.06-.2.129-.315.206-2.274,1.535-7.612,6.014-2.786,11.661,0,0,3.766-6.028,6.4-8.591.12-.115.235-.22.347-.321a.782.782,0,0,1,.1.619l17.277-9.842s6.14-4.359,7.852-5.344a14.1,14.1,0,0,1,3.892-1.692l-.2.089a7.775,7.775,0,0,1,1.982-.286c3.058.049,6.369,2.32,7.463,11.314,1.463,12.045.785,14.215.315,14.513a.824.824,0,0,1-.172-.031.258.258,0,0,0,.046.034.829.829,0,0,1-.189-.034.263.263,0,0,0,.252.063.246.246,0,0,0,.192-.023H261c0,.109-.017.223-.026.335-.023,0-.137.066,0,.074h0c-.034.679-.031,1.432,0,2.191-1.521.086-3.038.178-4.37.261l.12-.639.054-.286c1.166-.095,2.274-.441,2.4-1.4.286-2.108-2.577-3.233-5-3.373s-16.99.845-16.99.845-2.185,2.864,4.742,3.754c.206.109.421.229.639.355a76.781,76.781,0,0,1,8.156,5.879l.246.2-.79.639c4.3.985,8.425,17.577,10.707,25.169s7.282,7.311,11.423,6.188c3.88-1.057,4.376-12.48,4.422-13.915v-.146l6.9,8.623.524.656c.2.106.4.206.6.3a6.668,6.668,0,0,0,9.356-7.809c-1.658-5.556-4.235-13.766-5.954-17.237-1.432-2.907-3.3-7.732-4.424-10.762a3.969,3.969,0,0,0,.427-.206s-.026-.135-.072-.384l.072-.037a108.522,108.522,0,0,1-1.753-14.96v-.53c1.249-.286,2.039-.4,2.039-.4l.023-.269-.146.031.693-8.058s2.549-5.5.6-7.786a4.868,4.868,0,0,1-1.146-2.38c-.326-2.108,0-5.616,4.545-8.534,7-4.5,9.711-8.156,9.711-8.156S298.872,234.578,294.588,233.312Zm-13.895,5.59V235.18c1.3-.063,2.623.089,3.926,0a9.9,9.9,0,0,0,1.9-.321l.315.221A34.57,34.57,0,0,1,280.694,238.9ZM260.86,297.267c.513.361,1.028.736,1.535,1.111.315,1.836.593,3.133.613,3.222a25.844,25.844,0,0,0-2.148-4.333Z" transform="translate(-179.454 -162.953)"/>
    <path id="Path_560" data-name="Path 560" class="cls-11" d="M377.929,491l-.309,1.678-.238,1.283-.432,2.348-4.192,2.935s-.378-.324-1-.833a73.042,73.042,0,0,0-7.981-5.842,8.933,8.933,0,0,0-2.194-1.011Z" transform="translate(-285.309 -359.037)"/>
    <path id="Path_561" data-name="Path 561" class="cls-5" d="M377.929,491l-.309,1.678a13.091,13.091,0,0,1-2.766-.143l-9.782.14c-.461-.029-.893-.063-1.3-.106a8.933,8.933,0,0,0-2.194-1.011Z" transform="translate(-285.309 -359.037)"/>
    <path id="Path_562" data-name="Path 562" class="cls-12" d="M366.4,483.851s4.888.839,5.175-1.249-2.517-3.216-4.891-3.356-16.629.839-16.629.839-2.514,3.353,6.566,3.915Z" transform="translate(-276.855 -350.639)"/>
    <path id="Path_563" data-name="Path 563" class="cls-5" d="M377.929,491l-.309,1.678-.238,1.283-.432,2.348-4.192,2.935s-.378-.324-1-.833a73.042,73.042,0,0,0-7.981-5.842,8.933,8.933,0,0,0-2.194-1.011Z" transform="translate(-285.309 -359.037)"/>
    <path id="Path_564" data-name="Path 564" class="cls-5" d="M377.929,491l-.309,1.678a13.091,13.091,0,0,1-2.766-.143l-9.782.14c-.461-.029-.893-.063-1.3-.106a8.933,8.933,0,0,0-2.194-1.011Z" transform="translate(-285.309 -359.037)"/>
    <path id="Path_565" data-name="Path 565" class="cls-5" d="M366.393,483.809s4.891.836,5.172-1.26-2.517-3.213-4.891-3.353-16.629.839-16.629.839-2.514,3.353,6.566,3.912Z" transform="translate(-276.848 -350.603)"/>
    <rect id="Rectangle_260" data-name="Rectangle 260" class="cls-12" width="25.573" height="30.324" transform="translate(74.662 64.323)"/>
    <rect id="Rectangle_261" data-name="Rectangle 261" class="cls-5" width="25.573" height="30.324" transform="translate(74.662 64.46)"/>
    <path id="Path_566" data-name="Path 566" class="cls-11" d="M227.029,429.79a4.094,4.094,0,0,0-1.558,1.1c-2.577,2.552-6.269,8.54-6.269,8.54-4.719-5.621.5-10.063,2.729-11.589.541-.369.9-.573.9-.573Z" transform="translate(-182.338 -313.557)"/>
    <path id="Path_567" data-name="Path 567" class="cls-11" d="M383.914,288.22s1.257,8.8,5.59,10.9-5.59,6.014-5.59,6.014L370.36,300.1s7.686-2.517,6.148-9.923Z" transform="translate(-291.574 -214.327)"/>
    <path id="Path_568" data-name="Path 568" class="cls-11" d="M326.17,473.16l-.306,1.672-.249,1.289-.432,2.348L320.99,481.4s-.378-.321-1-.83A72.835,72.835,0,0,0,312,474.729a8.876,8.876,0,0,0-2.194-1.011Z" transform="translate(-248.364 -346.306)"/>
    <path id="Path_569" data-name="Path 569" class="cls-5" d="M326.2,473.16l-.306,1.672a13.1,13.1,0,0,1-2.766-.143l-9.782.14c-.461-.029-.9-.063-1.3-.106a8.88,8.88,0,0,0-2.194-1.011Z" transform="translate(-248.392 -346.306)"/>
    <path id="Path_570" data-name="Path 570" class="cls-12" d="M314.671,466.019s4.891.836,5.169-1.257-2.514-3.216-4.891-3.356-16.627.839-16.627.839-2.517,3.353,6.566,3.915Z" transform="translate(-239.938 -337.908)"/>
    <path id="Path_571" data-name="Path 571" class="cls-5" d="M350.977,483.257l-.432,2.348-4.192,2.932s-.378-.321-1-.83l5.544-4.548Z" transform="translate(-273.726 -353.442)"/>
    <path id="Path_572" data-name="Path 572" class="cls-12" d="M377.389,499.776c-.192-.095-.384-.192-.573-.286l-.516-.65-6.761-8.574v.149c-.046,1.432-.533,12.778-4.33,13.826-4.052,1.117-8.94,1.4-11.168-6.148s-6.3-24.035-10.481-25.014l6.22-5.1s4.118,4.817,5.8,9.427c-.063-.286-2.907-13.574-.573-15.925h20.4s3.15,8.972,5.309,13.416c1.681,3.451,4.2,11.609,5.828,17.131A6.554,6.554,0,0,1,377.389,499.776Z" transform="translate(-272.449 -337.971)"/>
    <path id="Path_573" data-name="Path 573" class="cls-5" d="M402.949,421.475c-3.15,1.864-16.979,1.105-21.478.8l-1.226-.089c-.132,0,.02-.074.02-.074l.126-1.269,3.353-8.522L401.7,401.91a15.633,15.633,0,0,0-.455,4.7A109.062,109.062,0,0,0,402.949,421.475Z" transform="translate(-298.591 -295.46)"/>
    <path id="Path_574" data-name="Path 574" class="cls-13" d="M402.577,420.026c-3.15,1.864-16.979,1.105-21.478.8l-1.226-.086-.2-.017.223-.057,1.105-.286,2.374-9.5,17.955-10.41a15.635,15.635,0,0,0-.455,4.7A108.989,108.989,0,0,0,402.577,420.026Z" transform="translate(-298.218 -294.432)"/>
    <path id="Path_575" data-name="Path 575" class="cls-5" d="M401.339,405.161c-3.651.842-11.687,3.313-14.774,9.278-2.059,3.972-3.792,5.676-5,6.389l-1.226-.086a.713.713,0,0,0,.02-.074l1.105-.286,2.374-9.5,17.955-10.41A15.663,15.663,0,0,0,401.339,405.161Z" transform="translate(-298.696 -294.432)"/>
    <path id="Path_576" data-name="Path 576" class="cls-5" d="M234.4,427.29,238.6,429.8a4.094,4.094,0,0,0-1.558,1.1c-.349-1.019-2.543-2.443-3.54-3.05C234.041,427.493,234.4,427.29,234.4,427.29Z" transform="translate(-193.907 -313.571)"/>
    <path id="Path_577" data-name="Path 577" class="cls-5" d="M377.016,471.73a.249.249,0,0,1-.286-.04.994.994,0,0,0,.286.04Z" transform="translate(-296.12 -345.257)"/>
    <path id="Path_578" data-name="Path 578" class="cls-14" d="M284.076,271.072a8.309,8.309,0,0,1-6.429-2.377s-11.168,3.216-14.951,10.481S233.2,300.7,233.2,300.7s4.473,2.514,4.052,3.771l16.91-9.782s6.014-4.33,7.683-5.309,10.9-6.987,12.858,9.361,0,14.393,0,14.393,2.795.979,6.847-6.847,16.627-9.642,16.627-9.642l.7-8.242s2.494-5.464.573-7.732a4.868,4.868,0,0,1-1.12-2.365c-.318-2.093,0-5.581,4.45-8.479,6.847-4.473,9.5-8.1,9.5-8.1s.14-2.658-4.052-3.915-21.24-8.1-21.24-8.1l-.573,2.377,13.451,9.493s-6.707,5.441-12.027,5.309C287.839,266.879,288.827,270.931,284.076,271.072Z" transform="translate(-193.693 -186.838)"/>
    <path id="Path_579" data-name="Path 579" class="cls-5" d="M399.1,293.094a27.294,27.294,0,0,1-.773-3.414l-7.406,1.956a8.119,8.119,0,0,1-.169,4.273A7.964,7.964,0,0,0,399.1,293.094Z" transform="translate(-306.125 -215.369)"/>
    <circle id="Ellipse_63" data-name="Ellipse 63" class="cls-11" cx="7.964" cy="7.964" r="7.964" transform="translate(78.857 64.463)"/>
    <path id="Path_580" data-name="Path 580" class="cls-5" d="M359.194,219.687c2.211.249,4.31,1.2,6.486,1.718a3.219,3.219,0,0,0,1.678.066c.845-.263,1.532-1.145,2.408-1.12a2.561,2.561,0,0,1,1.46.736,17.685,17.685,0,0,1,2,1.787c1.5,1.629,2.431,3.823,3.8,5.6s3.528,3.15,5.473,2.337c-1.323,5.155-5.656,9.081-10.344,9.4-1.87.126-3.786-.263-5.6.286a4.942,4.942,0,0,1-1.412.344c-1.042,0-1.881-.956-2.532-1.887-1.523-2.188-2.729-4.674-4.444-6.67a3.664,3.664,0,0,0-2.036-1.406,3.767,3.767,0,0,0-2.251.63A10.611,10.611,0,0,0,350.6,233.8a4.558,4.558,0,0,0-1.111,4.009,9.369,9.369,0,0,1,.676,2.245c.017,1.269-1.105,2.2-1.326,3.436a12.913,12.913,0,0,0-.054,1.564,6.4,6.4,0,0,1-2.363,4.149,2.981,2.981,0,0,0-1.082,1.5c-.089.435,0,.9-.057,1.34a2.443,2.443,0,0,1-2.237,1.8,6.509,6.509,0,0,1-3.356-.4,3.874,3.874,0,0,0,1.879-4.107c-.432-2.268-2.712-3.895-2.517-6.206a7.22,7.22,0,0,1,.63-2.042,18.629,18.629,0,0,0,1.077-3.866,6.519,6.519,0,0,0-.066-3.084A9.54,9.54,0,0,0,339.3,231.8a13.309,13.309,0,0,1-1.612-3.3,2.291,2.291,0,0,1-.155-1.091,2.245,2.245,0,0,1,.7-1.145c1.246-1.309,2.577-2.672,4.247-3.044a9.429,9.429,0,0,1,2.411-.095,28.063,28.063,0,0,0,4.19-.178c1.145-.135,3.081-.115,4.052-.859.9-.7,1.415-1.564,2.529-2A7.394,7.394,0,0,1,359.194,219.687Z" transform="translate(-268.137 -165.373)"/>
    <path id="Path_581" data-name="Path 581" class="cls-5" d="M428.67,507.07s4.611,9.084,3.213,11.876" transform="translate(-333.186 -370.505)"/>
    <path id="Path_582" data-name="Path 582" class="cls-5" d="M440.894,565.869l-6.753-8.562v.149s-.389-2.772.9-1.841c2.818,2.039,7.325,5.381,7.423,5.956S441.547,564.445,440.894,565.869Z" transform="translate(-337.051 -405.011)"/>
    <g id="Group_224" data-name="Group 224" class="cls-15" transform="translate(39.659 62.851)">
      <path id="Path_583" data-name="Path 583" d="M421.351,309.412a3.419,3.419,0,0,1-1.271,3.539,3.145,3.145,0,0,0,2.864-3.651A9,9,0,0,1,421.351,309.412Z" transform="translate(-366.715 -292.221)"/>
      <path id="Path_584" data-name="Path 584" d="M235.268,348.041s25.71-14.253,29.5-21.518c2.706-5.215,9.23-8.342,12.695-9.694-2.526.859-11.037,4.1-14.233,10.252-3.771,7.265-29.5,21.521-29.5,21.521Z" transform="translate(-233.73 -297.595)"/>
      <path id="Path_585" data-name="Path 585" d="M426.036,265.74a30.288,30.288,0,0,0,8.557-4.757l-13.425-9.507.306-1.3-1.286-.515-.558,2.377,13.416,9.5a32.419,32.419,0,0,1-7.01,4.2Z" transform="translate(-366.394 -249.66)"/>
      <path id="Path_586" data-name="Path 586" d="M442.27,414.278a33.376,33.376,0,0,1,5.258-1.329l.023-.269A35.645,35.645,0,0,0,442.27,414.278Z" transform="translate(-382.551 -365.996)"/>
      <path id="Path_587" data-name="Path 587" d="M357.259,405.4h-.123a.252.252,0,0,1-.286-.04,1.006,1.006,0,0,0,.286.04c.458-.266,1.145-2.354-.286-14.433-1.541-12.887-7.6-11.881-10.919-10.4,3.391-.934,8.056-.126,9.381,10.956,1.446,12.079.756,14.167.286,14.433a3.1,3.1,0,0,0,1.661-.558Z" transform="translate(-313.799 -342.477)"/>
      <path id="Path_588" data-name="Path 588" d="M378.976,471.24a1.006,1.006,0,0,1-.286-.04.252.252,0,0,0,.286.04Z" transform="translate(-337.178 -407.758)"/>
    </g>
    <path id="Path_589" data-name="Path 589" class="cls-12" d="M359.2,218.72c2.211.252,4.31,1.2,6.486,1.718a3.219,3.219,0,0,0,1.678.063c.845-.261,1.532-1.145,2.408-1.12a2.671,2.671,0,0,1,1.46.736,17.964,17.964,0,0,1,2,1.787c1.5,1.629,2.431,3.823,3.8,5.6s3.528,3.15,5.473,2.337c-1.323,5.155-5.656,9.081-10.344,9.4-1.87.129-3.786-.261-5.6.286a4.848,4.848,0,0,1-1.412.344c-1.042,0-1.881-.956-2.531-1.887-1.523-2.188-2.729-4.671-4.444-6.667a3.655,3.655,0,0,0-2.036-1.409,3.77,3.77,0,0,0-2.251.633,10.564,10.564,0,0,0-3.293,2.291,4.558,4.558,0,0,0-1.111,4.009,9.366,9.366,0,0,1,.676,2.245c.017,1.271-1.105,2.2-1.326,3.436a12.883,12.883,0,0,0-.054,1.564,6.4,6.4,0,0,1-2.363,4.149,2.974,2.974,0,0,0-1.082,1.5c-.089.438,0,.9-.057,1.343a2.437,2.437,0,0,1-2.237,1.8,6.452,6.452,0,0,1-3.356-.4,3.87,3.87,0,0,0,1.879-4.1c-.432-2.268-2.712-3.9-2.517-6.206a7.191,7.191,0,0,1,.63-2.042,18.7,18.7,0,0,0,1.077-3.869,6.521,6.521,0,0,0-.066-3.084,9.592,9.592,0,0,0-1.392-2.345,13.336,13.336,0,0,1-1.612-3.3,2.322,2.322,0,0,1-.155-1.094,2.257,2.257,0,0,1,.7-1.131c1.246-1.309,2.577-2.669,4.247-3.044a9.559,9.559,0,0,1,2.411-.092,28.459,28.459,0,0,0,4.19-.178c1.145-.135,3.081-.117,4.052-.859.9-.693,1.415-1.564,2.529-2a7.446,7.446,0,0,1,3.534-.4Z" transform="translate(-268.138 -164.686)"/>
    <circle id="Ellipse_64" data-name="Ellipse 64" class="cls-16" cx="16.057" cy="16.057" r="16.057" transform="translate(127.466 116.176)"/>
    <path id="Path_590" data-name="Path 590" class="cls-17" d="M563.131,431.07a21.46,21.46,0,1,1-21.461-21.46A21.46,21.46,0,0,1,563.131,431.07Zm-23.94,11.36,15.919-15.919a1.383,1.383,0,0,0,0-1.959l-1.959-1.944a1.38,1.38,0,0,0-1.956,0l-12.984,12.984-6.062-6.077a1.389,1.389,0,0,0-1.959,0l-1.959,1.97a1.389,1.389,0,0,0,0,1.959l9,9a1.383,1.383,0,0,0,1.959,0Z" transform="translate(-398.512 -300.954)"/>
  </g>
</svg>
