<svg id="user-avt" xmlns="http://www.w3.org/2000/svg" viewBox="0 0 72 72.003">
  <defs>
    <style>
      .cls-1 {
        fill: #e7eced;
      }

      .cls-2 {
        fill: #556080;
      }
    </style>
  </defs>
  <path id="Path_1826" data-name="Path 1826" class="cls-1" d="M21.9,53.581,11.161,59.441a9.653,9.653,0,0,0-1.724,1.227,35.978,35.978,0,0,0,46.227.12,9.53,9.53,0,0,0-1.894-1.269l-11.5-5.751a4.387,4.387,0,0,1-2.425-3.923V45.331a17.374,17.374,0,0,0,1.088-1.4,26.468,26.468,0,0,0,3.576-7.206,3.613,3.613,0,0,0,2.562-3.437V28.472a3.6,3.6,0,0,0-1.2-2.67V18.838S47.3,8,32.619,8,19.373,18.838,19.373,18.838V25.8a3.592,3.592,0,0,0-1.2,2.67v4.817a3.612,3.612,0,0,0,1.666,3.031,23.906,23.906,0,0,0,4.355,9.011v4.4A4.391,4.391,0,0,1,21.9,53.581Z" transform="translate(3.384 2.869)"/>
  <g id="Group_298" data-name="Group 298" transform="translate(0 0)">
    <path id="Path_1827" data-name="Path 1827" class="cls-2" d="M36.617.005a35.979,35.979,0,0,0-23.781,63.52,9.566,9.566,0,0,1,1.708-1.215l10.742-5.859A4.388,4.388,0,0,0,27.572,52.6V48.2a23.883,23.883,0,0,1-4.355-9.011,3.613,3.613,0,0,1-1.666-3.031V31.339a3.6,3.6,0,0,1,1.2-2.67V21.705S21.324,10.868,36,10.868,49.246,21.705,49.246,21.705v6.964a3.592,3.592,0,0,1,1.2,2.67v4.817a3.613,3.613,0,0,1-2.562,3.437A26.468,26.468,0,0,1,44.312,46.8a17.373,17.373,0,0,1-1.088,1.4v4.513a4.385,4.385,0,0,0,2.425,3.923l11.5,5.751a9.578,9.578,0,0,1,1.888,1.266A35.993,35.993,0,0,0,36.617.005Z" transform="translate(0 0)"/>
  </g>
</svg>
