<svg xmlns="http://www.w3.org/2000/svg" xmlns:xlink="http://www.w3.org/1999/xlink" width="1164" height="320" viewBox="0 0 1164 320">
  <defs>
    <filter id="Rectangle_576" x="0" y="0" width="1164" height="320" filterUnits="userSpaceOnUse">
      <feOffset dy="3" input="SourceAlpha"/>
      <feGaussianBlur stdDeviation="3" result="blur"/>
      <feFlood flood-opacity="0.161"/>
      <feComposite operator="in" in2="blur"/>
      <feComposite in="SourceGraphic"/>
    </filter>
  </defs>
  <g id="view-profile" transform="translate(-179 -161)">
    <g transform="matrix(1, 0, 0, 1, 179, 161)" filter="url(#Rectangle_576)">
      <rect id="Rectangle_576-2" data-name="Rectangle 576" width="1146" height="302" transform="translate(9 6)" fill="#fff"/>
    </g>
    <g id="user" transform="translate(218 216)">
      <path id="Path_1826" data-name="Path 1826" d="M35.407,102.957,13.029,115.163a20.11,20.11,0,0,0-3.592,2.556,74.952,74.952,0,0,0,96.3.249,19.852,19.852,0,0,0-3.945-2.643l-23.963-11.98a9.138,9.138,0,0,1-5.052-8.174v-9.4a36.194,36.194,0,0,0,2.267-2.915A55.139,55.139,0,0,0,82.5,67.843a7.527,7.527,0,0,0,5.338-7.16V50.646a7.492,7.492,0,0,0-2.508-5.561V30.577S88.306,8,57.731,8,30.137,30.577,30.137,30.577V45.085a7.482,7.482,0,0,0-2.508,5.561V60.682A7.524,7.524,0,0,0,31.1,67a49.8,49.8,0,0,0,9.074,18.773v9.17A9.148,9.148,0,0,1,35.407,102.957Z" transform="translate(17.271 14.643)" fill="#e7eced"/>
      <g id="Group_298" data-name="Group 298" transform="translate(0 0)">
        <path id="Path_1827" data-name="Path 1827" d="M76.282.011A74.953,74.953,0,0,0,26.74,132.34a19.927,19.927,0,0,1,3.558-2.53L52.675,117.6a9.142,9.142,0,0,0,4.763-8.024v-9.17a49.755,49.755,0,0,1-9.074-18.773,7.527,7.527,0,0,1-3.47-6.314V65.287A7.492,7.492,0,0,1,47.4,59.725V45.218S44.423,22.641,75,22.641s27.594,22.576,27.594,22.576V59.725a7.482,7.482,0,0,1,2.508,5.561V75.323a7.527,7.527,0,0,1-5.338,7.16,55.139,55.139,0,0,1-7.449,15.011,36.193,36.193,0,0,1-2.267,2.915v9.4a9.135,9.135,0,0,0,5.052,8.174l23.963,11.98a19.953,19.953,0,0,1,3.934,2.638A74.982,74.982,0,0,0,76.282.011Z" transform="translate(0 0)" fill="#556080"/>
      </g>
    </g>
    <text id="User_ID:_" data-name="User ID: " transform="translate(408 284)" fill="#4d4f5c" font-size="26" font-family="SourceSansPro-Light, Source Sans Pro" font-weight="300"><tspan x="0" y="0">User ID: </tspan></text>
    <text id="Email:" transform="translate(724 238)" fill="#2d2e39" font-size="26" font-family="SourceSansPro-Regular, Source Sans Pro"><tspan x="0" y="0">Email:</tspan></text>
    <text id="Phone:_" data-name="Phone: " transform="translate(724 283)" fill="#2d2e39" font-size="26" font-family="SourceSansPro-Regular, Source Sans Pro"><tspan x="0" y="0">Phone: </tspan></text>
    <text id="Birthday:_" data-name="Birthday: " transform="translate(724 327)" fill="#2d2e39" font-size="26" font-family="SourceSansPro-Regular, Source Sans Pro"><tspan x="0" y="0">Birthday: </tspan></text>
    <text id="Address:_" data-name="Address: " transform="translate(724 372)" fill="#2d2e39" font-size="26" font-family="SourceSansPro-Regular, Source Sans Pro"><tspan x="0" y="0">Address: </tspan></text>
    <text id="Gender:" transform="translate(724 416)" fill="#2d2e39" font-size="26" font-family="SourceSansPro-Regular, Source Sans Pro"><tspan x="0" y="0">Gender:</tspan></text>
    <line id="Line_92" data-name="Line 92" y2="228" transform="translate(683.5 204.5)" fill="none" stroke="#707070" stroke-width="3" stroke-dasharray="10"/>
  </g>
</svg>
